<?xml version="1.0" encoding="UTF-8"?>
<!DOCTYPE svg PUBLIC "-//W3C//DTD SVG 1.1//EN" "http://www.w3.org/Graphics/SVG/1.1/DTD/svg11.dtd">
<!-- Creator: CorelDRAW 2018 (64 Bit Versão de avaliação) -->
<svg xmlns="http://www.w3.org/2000/svg" xml:space="preserve" width="410px" height="410px" version="1.1" shape-rendering="geometricPrecision" text-rendering="geometricPrecision" image-rendering="optimizeQuality" fill-rule="evenodd" clip-rule="evenodd"
viewBox="0 0 93 93"
 xmlns:xlink="http://www.w3.org/1999/xlink">
 <g id="Camada_x0020_1">
  <metadata id="CorelCorpID_0Corel-Layer"/>
  <g id="_2322048486896">
   <circle fill="#E6E7E8" cx="46.5" cy="46.5" r="46.5"/>
   <g>
    <path fill="#A9ABAE" d="M33.25 51.24c-9.48,1.82 -15.29,10.44 -14.42,12.8 0.27,0.73 1.81,2.74 2.29,3.36 12.53,16.17 37.89,16.97 51.31,-0.91 2.47,-3.29 2.45,-3.77 -0.13,-7.19 -3.02,-4.02 -8.4,-8.05 -13.65,-8.29 -2.94,-0.14 -7.44,6.23 -17.51,2.94 -5.29,-1.73 -4.12,-3.43 -7.89,-2.71z"/>
    <path fill="#A9ABAE" d="M44.75 17.55c-8.32,1.02 -15.34,8.34 -14.31,17.88 0.88,8.22 8.49,15.33 17.88,14.25 8.24,-0.95 15.29,-8.44 14.24,-17.88 -0.91,-8.15 -8.45,-15.4 -17.81,-14.25z"/>
   </g>
  </g>
 </g>
</svg>
