<svg id="svg-defs" style="display: none;"><symbol fill="currentColor" fill-rule="evenodd" clip-rule="evenodd" viewBox="0 0 6.27 6.27" id="ic-add-cart"><title>add-cart</title>
 <g id="add-cart-Camada_x0020_1">
  <metadata id="add-cart-CorelCorpID_0Corel-Layer"/>
  <g id="add-cart-_1617452478640">
   <path d="M0 0.18c0,0.26 0.19,0.24 0.34,0.24 0.18,0 0.36,0 0.53,0l0.19 0.78c0.1,0.48 0.26,1.07 0.37,1.57 0.02,0.09 0.17,0.71 0.18,0.78 -0.18,0.04 -0.27,0.08 -0.38,0.18 -0.32,0.31 -0.2,0.84 0.16,1.01 0.06,0.03 0.17,0.07 0.24,0.07l3.62 0c0.22,0 0.26,-0.39 0.01,-0.42l-3.26 0c-0.17,0 -0.52,0.06 -0.53,-0.2 -0.02,-0.27 0.33,-0.22 0.5,-0.22 0.97,0 1.93,0 2.9,0 0.28,0 0.46,0.03 0.65,-0.08 0.15,-0.09 0.26,-0.23 0.3,-0.42 0.05,-0.17 0.45,-1.64 0.45,-1.75 0,-0.13 0,-0.2 -0.06,-0.33 -0.1,-0.19 -0.31,-0.35 -0.52,-0.35l-1.12 0c-0.14,0 -0.27,0.24 -0.1,0.38 0.06,0.05 0.09,0.04 0.19,0.04l0.92 0c0.4,0 0.24,0.34 0.2,0.48 -0.02,0.09 -0.05,0.19 -0.07,0.28l-0.3 1.13c-0.06,0.25 -0.22,0.2 -0.51,0.2 -0.95,0 -1.9,0 -2.85,0l-0.31 -1.3c-0.02,-0.09 -0.04,-0.17 -0.06,-0.26 -0.02,-0.08 -0.04,-0.18 -0.06,-0.27 -0.02,-0.06 -0.04,-0.21 -0.07,-0.26l1.32 0c0.1,0 0.13,0 0.18,-0.04 0.11,-0.09 0.11,-0.24 0,-0.33 -0.06,-0.05 -0.09,-0.05 -0.19,-0.05l-1.4 0c-0.02,-0.03 -0.02,-0.08 -0.03,-0.13l-0.17 -0.73c-0.03,-0.08 -0.09,-0.18 -0.19,-0.18l-0.89 0c-0.08,0 -0.18,0.1 -0.18,0.18z"/>
   <path d="M3.55 1.98c-0.06,-0.04 -0.1,-0.1 -0.21,-0.1 -0.12,0 -0.21,0.09 -0.21,0.21 0,0.1 0.06,0.14 0.11,0.19l0.31 0.31c0.1,0.1 0.1,0.13 0.24,0.13 0.1,0 0.27,-0.2 0.33,-0.27 0.11,-0.1 0.27,-0.22 0.27,-0.36 0,-0.12 -0.09,-0.21 -0.21,-0.21 -0.12,0 -0.14,0.07 -0.21,0.12l0 -1.17c-0.01,-0.27 -0.41,-0.27 -0.42,-0.01 -0.01,0.26 0,0.88 0,1.16z"/>
   <path d="M4.39 5.65c-0.01,-0.03 0.03,-0.13 0.05,-0.15 0.11,-0.12 0.35,-0.07 0.36,0.13 0.02,0.25 -0.37,0.31 -0.41,0.02zm-0.42 -0.06c0,0.13 0,0.2 0.06,0.33 0.06,0.13 0.16,0.22 0.29,0.29 0.23,0.11 0.54,0.07 0.72,-0.12 0.41,-0.4 0.08,-1.08 -0.39,-1.08 -0.2,0 -0.35,0.03 -0.5,0.18 -0.09,0.09 -0.18,0.26 -0.18,0.4z"/>
   <path d="M2.09 5.65c-0.01,-0.06 0.05,-0.2 0.2,-0.21 0.26,-0.02 0.3,0.39 0.02,0.41 -0.12,0 -0.2,-0.09 -0.22,-0.2zm-0.42 -0.06c0,0.13 0,0.2 0.06,0.33 0.1,0.19 0.31,0.35 0.52,0.35 0.13,0 0.2,0 0.33,-0.06 0.19,-0.1 0.35,-0.31 0.35,-0.52 0,-0.19 -0.03,-0.35 -0.18,-0.5 -0.24,-0.24 -0.66,-0.24 -0.9,0 -0.09,0.09 -0.18,0.26 -0.18,0.4z"/>
  </g>
 </g>
</symbol><symbol fill="currentColor" fill-rule="evenodd" clip-rule="evenodd" viewBox="0 0 6.45 6.45" id="ic-add"><title>add</title>
 <g id="add-Camada_x0020_1">
  <metadata id="add-CorelCorpID_0Corel-Layer"/>
  <path d="M2.91 0.29l0 2.62 -2.62 0c-0.16,0 -0.29,0.14 -0.29,0.34 0,0.14 0.15,0.29 0.29,0.29l2.62 0 0 2.62c0,0.15 0.14,0.29 0.34,0.29 0.14,0 0.29,-0.15 0.29,-0.29l0 -2.62 2.62 0c0.16,0 0.29,-0.14 0.29,-0.34 0,-0.15 -0.15,-0.29 -0.29,-0.29l-2.62 0 0 -2.62c0,-0.16 -0.14,-0.29 -0.34,-0.29 -0.15,0 -0.29,0.14 -0.29,0.29z"/>
 </g>
</symbol><symbol fill="currentColor" fill-rule="evenodd" clip-rule="evenodd" viewBox="0 0 119.19 154.67" id="ic-cache"><title>cache</title>
 <g id="cache-Camada_x0020_1">
  <metadata id="cache-CorelCorpID_0Corel-Layer"/>
  <path d="M108.22 144.04l-43.2 0c-0.49,-7.11 -0.14,-14.47 -0.09,-21.6 0.04,-6.81 1.84,-16.89 -5.25,-16.86 -3.68,0.01 -4.95,2.27 -5.24,5.73 -0.29,3.52 -0.34,7.21 -0.32,10.76 0.04,7.24 0.41,14.79 -0.11,21.97l-42.87 0c-0.65,-9.51 -0.21,-19.21 -0.23,-28.75 -0.02,-9.08 -1.09,-19.46 0.1,-28.34 1.38,-10.29 9.52,-9.56 19.45,-9.45 9.67,0.1 19.37,0.09 29.04,0.14 9.68,0.05 19.46,0.08 29.13,-0.17 9.63,-0.25 18.42,-0.8 19.58,9.26 0.51,4.4 0.43,9.43 0.5,13.91 0.07,4.88 0.08,9.77 0.03,14.65 -0.1,9.52 -0.05,19.27 -0.52,28.75zm-43.1 -77.41c-0.54,-13.66 -0.21,-27.76 -0.15,-41.46 0.02,-6.9 0.07,-3.45 0.1,-10.35 0.01,-3.12 0.37,-7.06 -0.13,-10.03 -0.52,-3.12 -2.01,-4.76 -5.44,-4.79 -3.51,-0.03 -4.75,1.94 -5.21,5.22 -0.39,2.79 -0.05,16.58 -0.03,20.5 0.06,11.62 0.45,29.96 -0.15,40.95 -1.38,0.21 -23.21,0.07 -25.2,0.07 -9.55,0 -14.39,-0.43 -20.79,4.51 -4.44,3.43 -7.92,9.06 -7.96,17.3 -0.08,16.57 -0.28,33.46 -0.06,50 0.18,13.42 -1.73,16.12 9.03,16.12l100.74 0c4.04,0 7.95,0.14 8.89,-3.73 0.74,-3.03 0.3,-9.01 0.3,-12.38 0,-8.37 0,-16.73 0,-25.1 0.01,-8.36 0.19,-16.94 0,-25.28 -0.16,-6.78 -2.78,-13.28 -8.11,-17.01 -7.25,-5.06 -10.53,-4.43 -20.86,-4.43 -2.94,0 -23.92,0.18 -24.97,-0.11z"/>
 </g>
</symbol><symbol fill="currentColor" fill-rule="evenodd" clip-rule="evenodd" viewBox="0 0 79.35 56.39" id="ic-check"><title>check</title>
 <g id="check-Camada_x0020_1">
  <metadata id="check-CorelCorpID_0Corel-Layer"/>
  <path d="M24.66 42.42l-13.88 -14.02c-1.86,-1.87 -3.56,-3.36 -4.44,-3.73 -3.79,-1.59 -7.49,2.11 -6,6.01 0.35,0.92 2.86,3.92 6.41,7.34l17.15 16.52c4.92,4.96 8.75,-1.3 11.64,-4.18l41.16 -40.88c1.36,-1.35 2.56,-3.01 2.64,-4.68 0.18,-3.54 -3.74,-6.2 -7.08,-4 -0.77,0.52 -2.54,2.38 -3.18,3.06l-38.36 38.31c-3.25,3.34 -3.34,3 -6.06,0.25z"/>
 </g>
</symbol><symbol fill="currentColor" fill-rule="evenodd" clip-rule="evenodd" viewBox="0 0 12.42 12.42" id="ic-checked"><title>checked</title>
 <g id="checked-Camada_x0020_1">
  <metadata id="checked-CorelCorpID_0Corel-Layer"/>
  <g id="checked-_1617983086400">
   <path d="M0 6.04c0,0.79 0.02,0.92 0.18,1.67 0.11,0.53 0.38,1.14 0.65,1.61 0.23,0.41 0.66,0.97 0.98,1.29 0.08,0.07 0.13,0.1 0.2,0.17 1.07,1 2.56,1.64 4.03,1.64 0.79,0 0.92,-0.02 1.67,-0.17 0.18,-0.04 0.4,-0.11 0.58,-0.18 0.34,-0.11 0.72,-0.3 1.03,-0.47 0.36,-0.21 0.79,-0.53 1.08,-0.81 0.08,-0.07 0.13,-0.1 0.21,-0.18 0.07,-0.08 0.1,-0.12 0.17,-0.2 0.07,-0.08 0.11,-0.11 0.18,-0.2 0.17,-0.2 0.34,-0.41 0.48,-0.64 0.3,-0.5 0.56,-0.96 0.72,-1.54 0.19,-0.69 0.26,-1.05 0.26,-1.84 0,-0.41 -0.56,-0.64 -0.85,-0.25 -0.12,0.16 -0.11,0.69 -0.14,1.02 -0.13,1.18 -0.9,2.52 -1.78,3.23 -0.07,0.05 -0.13,0.11 -0.21,0.18 -0.32,0.26 -0.83,0.56 -1.22,0.71 -0.2,0.08 -0.37,0.14 -0.58,0.2 -1.5,0.44 -3.2,0.13 -4.44,-0.75 -0.27,-0.19 -0.47,-0.37 -0.71,-0.6 -1.5,-1.51 -1.96,-3.69 -1.16,-5.71 0.21,-0.5 0.52,-1.02 0.88,-1.42l0.19 -0.21c0.07,-0.07 0.12,-0.12 0.19,-0.19 0.64,-0.65 1.63,-1.16 2.52,-1.34 0.4,-0.08 0.31,-0.05 0.68,-0.09 0.24,-0.03 0.51,0.01 0.68,-0.11 0.15,-0.1 0.26,-0.29 0.2,-0.51 -0.09,-0.33 -0.33,-0.35 -0.57,-0.35l-0.06 0c-1.09,0 -2.38,0.42 -3.28,1.04 -0.46,0.32 -0.95,0.73 -1.3,1.17 -0.06,0.07 -0.1,0.12 -0.16,0.2 -0.07,0.09 -0.11,0.13 -0.17,0.22 -0.06,0.09 -0.09,0.13 -0.15,0.22 -0.34,0.57 -0.66,1.19 -0.8,1.84 -0.09,0.43 -0.18,0.84 -0.18,1.35z"/>
   <path d="M5.8 7.28l-1.96 -2.12c-0.35,-0.44 -0.9,-0.14 -0.9,0.25 0,0.25 0.42,0.66 0.61,0.84l0.35 0.38c0.06,0.09 0.1,0.12 0.17,0.19 0.08,0.08 0.1,0.12 0.17,0.2 0.06,0.07 0.12,0.11 0.18,0.18 0.07,0.07 0.1,0.12 0.17,0.19l0.7 0.76c0.17,0.18 0.22,0.29 0.51,0.29 0.27,0 0.63,-0.45 0.88,-0.69l5.2 -5.21c0.23,-0.22 0.32,-0.23 0.32,-0.57 0,-0.19 -0.23,-0.42 -0.43,-0.42 -0.33,0 -0.56,0.33 -0.85,0.62l-3.65 3.65c-0.12,0.12 -1.37,1.39 -1.47,1.46z"/>
  </g>
 </g>
</symbol><symbol fill="currentColor" fill-rule="evenodd" clip-rule="evenodd" viewBox="0 0 15.54 15.57" id="ic-close"><title>close</title>
 <g id="close-Camada_x0020_1">
  <metadata id="close-CorelCorpID_0Corel-Layer"/>
  <path d="M0.22 1.36l6.37 6.44 -6.4 6.48c-0.27,0.28 -0.26,0.74 0.09,1.1 0.25,0.25 0.76,0.25 1.01,0l6.4 -6.49 6.39 6.48c0.27,0.27 0.74,0.26 1.1,-0.09 0.25,-0.26 0.25,-0.76 0,-1.01l-6.39 -6.47 6.55 -6.51c0.28,-0.28 0.27,-0.75 -0.09,-1.1 -0.25,-0.25 -0.75,-0.25 -1.01,0l-6.55 6.51 -6.38 -6.44c-0.27,-0.28 -0.74,-0.27 -1.09,0.09 -0.26,0.25 -0.26,0.75 0,1.01z"/>
 </g>
</symbol><symbol fill="currentColor" fill-rule="evenodd" clip-rule="evenodd" viewBox="0 0 1.56 1.56" id="ic-copy"><title>copy</title>
 <g id="copy-Camada_x0020_1">
  <metadata id="copy-CorelCorpID_0Corel-Layer"/>
  <path d="M0.26 0.46c0.03,-0.01 0.08,0 0.12,0l0.6 0c0.04,0 0.06,0.01 0.08,0.03 0.06,0.05 0.05,0.11 0.05,0.2l0 0.6c0,0.07 -0.05,0.12 -0.12,0.13 -0.03,0 -0.08,0 -0.12,0l-0.6 0c-0.04,0 -0.06,-0.01 -0.09,-0.03 -0.02,-0.02 -0.04,-0.04 -0.04,-0.08 0,-0.08 0,-0.17 0,-0.25l0 -0.48c0,-0.07 0.04,-0.12 0.12,-0.12zm0.2 -0.14c0,-0.06 -0.01,-0.09 0.02,-0.13 0.02,-0.02 0.05,-0.05 0.1,-0.05l0.58 0c0.05,0 0.11,0 0.15,0 0.04,0 0.08,0.04 0.09,0.06 0.03,0.04 0.02,0.08 0.02,0.13l0 0.73c0,0.03 0,0.04 -0.02,0.06 -0.04,0.07 -0.09,0.06 -0.16,0.06 0,-0.14 0,-0.27 0,-0.41 0,-0.07 0.01,-0.14 0,-0.21 0,-0.06 -0.03,-0.11 -0.05,-0.15 -0.1,-0.11 -0.19,-0.09 -0.32,-0.09 -0.04,0 -0.38,0 -0.41,0zm0.78 1c0.1,0 0.16,0 0.23,-0.06 0.01,-0.01 0.01,-0.01 0.02,-0.02 0,0 0,0 0.01,-0.01 0.04,-0.05 0.06,-0.11 0.06,-0.19 0,-0.06 0,-0.13 0,-0.2 0,-0.13 0,-0.26 0,-0.4 0,-0.13 0.02,-0.25 -0.06,-0.34 -0.03,-0.03 -0.06,-0.06 -0.11,-0.08 -0.06,-0.02 -0.12,-0.02 -0.19,-0.02l-0.6 0c-0.12,0 -0.2,0.05 -0.25,0.15 -0.04,0.05 -0.03,0.1 -0.03,0.17 -0.06,0 -0.12,0 -0.17,0.02 -0.17,0.09 -0.15,0.25 -0.15,0.42 0,0.13 0,0.25 0,0.38 0,0.13 -0.01,0.23 0.06,0.32 0.02,0.02 0.01,0.01 0.02,0.02 0.01,0.01 0.02,0.02 0.03,0.03 0.07,0.05 0.14,0.05 0.23,0.05 0.19,0 0.38,0 0.57,0 0.06,0 0.11,0 0.17,-0.02 0.08,-0.03 0.16,-0.13 0.16,-0.22z"/>
 </g>
</symbol><symbol fill="currentColor" fill-rule="evenodd" clip-rule="evenodd" viewBox="0 0 12.58 12.58" id="ic-dashboard"><title>dashboard</title>
 <g id="dashboard-Camada_x0020_1">
  <metadata id="dashboard-CorelCorpID_0Corel-Layer"/>
  <g id="dashboard-_1617512582560">
   <path d="M8.61 7.89c0.3,-0.02 0.65,0 0.95,0 0.32,0 0.64,0 0.96,0 0.3,0 0.61,-0.02 0.84,0.12 0.18,0.11 0.32,0.31 0.34,0.61 0.02,0.29 0,0.64 0,0.94 0,0.32 0,0.64 0,0.95 0,0.29 0.03,0.62 -0.11,0.84 -0.13,0.2 -0.3,0.32 -0.6,0.35 -0.14,0.01 -1.74,0 -1.92,0 -0.31,0 -0.59,0.03 -0.84,-0.12 -0.18,-0.11 -0.31,-0.31 -0.34,-0.6 -0.01,-0.19 0,-1.67 0,-1.9 0,-0.33 -0.03,-0.58 0.12,-0.84 0.1,-0.19 0.32,-0.32 0.6,-0.35zm-0.13 -0.86c-0.41,0.05 -0.66,0.17 -0.95,0.43 -0.21,0.18 -0.43,0.51 -0.49,0.9 -0.04,0.23 -0.02,1.08 -0.02,1.37 0,0.32 -0.01,1.13 0.01,1.38 0.05,0.73 0.64,1.32 1.33,1.44 0.23,0.04 1.08,0.02 1.37,0.02 0.3,0 1.14,0.02 1.38,0 0.74,-0.06 1.33,-0.66 1.44,-1.34 0.04,-0.23 0.02,-1.08 0.02,-1.36 0,-0.29 0.02,-1.17 0,-1.39 -0.07,-0.74 -0.65,-1.32 -1.34,-1.44 -0.22,-0.04 -1.08,-0.02 -1.37,-0.02 -0.24,0 -1.22,-0.01 -1.38,0.01z"/>
   <path d="M8.58 0.88c0.15,-0.02 1.71,-0.01 1.9,-0.01 0.29,0 0.61,-0.03 0.85,0.11 0.2,0.11 0.33,0.29 0.37,0.59 0.02,0.16 0,1.7 0,1.9 0,0.3 0.03,0.6 -0.1,0.85 -0.11,0.2 -0.31,0.33 -0.59,0.36 -0.15,0.02 -1.71,0.01 -1.9,0.01 -0.3,0 -0.62,0.03 -0.85,-0.1 -0.2,-0.12 -0.33,-0.3 -0.36,-0.59 -0.02,-0.15 -0.01,-1.71 -0.01,-1.9 0,-0.32 -0.03,-0.6 0.1,-0.85 0.11,-0.21 0.3,-0.33 0.59,-0.37zm-1.56 3.17c0.02,0.23 0.06,0.38 0.14,0.56 0.14,0.3 0.38,0.56 0.66,0.73 0.41,0.24 0.72,0.22 1.17,0.22 0.47,0 0.93,0 1.39,0 0.22,0 0.47,0.01 0.68,0 0.76,-0.05 1.35,-0.62 1.49,-1.3 0.04,-0.22 0.02,-0.45 0.02,-0.67l0 -1.39c0,-0.22 0.02,-0.47 0,-0.69 -0.05,-0.75 -0.61,-1.34 -1.3,-1.48 -0.21,-0.04 -0.45,-0.03 -0.67,-0.03l-1.38 0c-0.22,0 -0.48,-0.01 -0.69,0.01 -0.76,0.05 -1.35,0.62 -1.48,1.3 -0.05,0.25 -0.03,1.06 -0.03,1.36 0,0.27 -0.01,1.19 0,1.38z"/>
   <path d="M1.61 7.89c0.28,-0.02 0.65,0 0.95,0 0.31,0 0.63,0 0.95,0 0.32,0 0.61,-0.03 0.84,0.12 0.18,0.11 0.32,0.31 0.34,0.61 0.01,0.31 0,0.65 0,0.95 0,0.32 0,0.63 0,0.95 0,0.31 0.03,0.59 -0.12,0.84 -0.11,0.19 -0.31,0.31 -0.61,0.34 -0.13,0.01 -1.73,0 -1.91,0 -0.31,0 -0.59,0.03 -0.84,-0.12 -0.39,-0.24 -0.33,-0.68 -0.33,-1.09l0 -1.42c0,-0.32 -0.03,-0.59 0.11,-0.84 0.12,-0.19 0.32,-0.31 0.62,-0.34zm-1.6 3.18c0.06,0.77 0.61,1.34 1.3,1.48 0.21,0.04 0.45,0.02 0.67,0.02l1.38 0c0.22,0 0.47,0.01 0.69,0 0.75,-0.04 1.35,-0.62 1.48,-1.3 0.04,-0.21 0.03,-0.45 0.03,-0.67l0 -1.38c0,-0.22 0.01,-0.48 0,-0.69 -0.05,-0.76 -0.62,-1.35 -1.3,-1.48 -0.22,-0.04 -0.45,-0.03 -0.68,-0.03 -0.46,0 -0.92,0 -1.38,0 -0.22,0 -0.47,-0.01 -0.69,0 -0.76,0.05 -1.35,0.64 -1.48,1.31 -0.04,0.25 -0.03,1.05 -0.03,1.36 0,0.28 -0.01,1.17 0.01,1.38z"/>
   <path d="M1.57 0.88c0.16,-0.02 1.71,-0.01 1.91,-0.01 0.29,0 0.62,-0.02 0.85,0.11 0.19,0.12 0.32,0.29 0.35,0.59 0.02,0.17 0.01,1.7 0.01,1.91 0,0.31 0.03,0.59 -0.11,0.85 -0.11,0.2 -0.3,0.32 -0.59,0.35 -0.15,0.02 -1.72,0.01 -1.9,0.01 -0.3,0 -0.62,0.03 -0.85,-0.11 -0.2,-0.12 -0.32,-0.29 -0.36,-0.59 -0.02,-0.15 0,-1.71 0,-1.9 0,-0.31 -0.03,-0.62 0.1,-0.85 0.12,-0.2 0.3,-0.32 0.59,-0.36zm-1.56 3.17c0.02,0.22 0.06,0.39 0.14,0.56 0.14,0.31 0.36,0.55 0.66,0.73 0.4,0.24 0.71,0.22 1.17,0.22l1.38 0c0.22,0 0.47,0.01 0.69,0 0.75,-0.05 1.35,-0.61 1.48,-1.3 0.04,-0.22 0.03,-0.45 0.03,-0.67l0 -1.39c0,-0.22 0.01,-0.47 0,-0.69 -0.05,-0.75 -0.62,-1.35 -1.3,-1.48 -0.22,-0.04 -0.45,-0.03 -0.68,-0.03 -0.46,0 -0.92,0 -1.38,0 -0.22,0 -0.47,-0.01 -0.69,0.01 -0.75,0.05 -1.35,0.62 -1.48,1.3 -0.04,0.25 -0.03,1.06 -0.03,1.36 0,0.28 -0.01,1.18 0.01,1.38z"/>
  </g>
 </g>
</symbol><symbol fill="currentColor" fill-rule="evenodd" clip-rule="evenodd" viewBox="0 0 24.69 21.84" id="ic-delivery"><title>delivery</title>
 <g id="delivery-Camada_x0020_1">
  <metadata id="delivery-CorelCorpID_0Corel-Layer"/>
  <g id="delivery-_1617647493712">
   <path d="M1.71 14.26l0.96 0 0 5.9 -0.96 0 0 -5.9zm3.39 5.16c-0.14,0 -0.54,0.02 -0.62,0 -0.01,-0.06 -0.02,-0.1 -0.03,-0.16 -0.04,-0.23 -0.03,-1.18 -0.03,-1.43 0,-0.16 0.02,-0.24 0.02,-0.39l0 -1.93c0.34,0 0.82,-0.16 1.04,-0.28 0.56,-0.3 1.43,-1.39 2.56,-1.39 0.83,0 1.37,0.21 2.14,0.4l1.14 0.27c0.41,0.1 1.97,0.45 2.24,0.57 0.24,0.11 0.28,0.35 0.28,0.68 0,0.23 -1.13,-0.02 -1.38,-0.02 -0.54,0 -1.01,0.05 -1.53,-0.02l-0.62 -0.04c-0.46,-0.01 -1.48,-0.1 -1.8,0.13 -0.09,0.07 -0.17,0.15 -0.22,0.25 -0.29,0.51 0.04,1.26 0.72,1.29l1.4 0.07c0.12,0 0.16,0.02 0.29,0.02l0.83 0.04c0.27,0.02 0.52,0 0.86,0.04 0.08,0.01 0.2,0 0.29,0 0.12,0 0.15,0.02 0.27,0.02 0.21,0 0.35,0.02 0.56,0.02 0.65,0 0.29,0.1 1.05,-0.09l1.38 -0.41c0.3,-0.1 0.59,-0.18 0.89,-0.27 0.3,-0.1 0.58,-0.2 0.89,-0.29 0.16,-0.05 0.29,-0.1 0.44,-0.14 0.16,-0.04 0.3,-0.1 0.45,-0.15l1.8 -0.57c0.36,-0.12 2.14,-0.67 2.31,-0.61 0.2,0.08 0.46,0.51 -0.06,0.77 -0.35,0.18 -1.1,0.5 -1.5,0.67 -0.33,0.16 -0.67,0.3 -1,0.45 -0.81,0.36 -1.73,0.75 -2.51,1.12l-1.01 0.44c-0.77,0.38 -1.74,0.76 -2.5,1.12l-1.01 0.45c-0.11,0.05 -0.15,0.01 -0.3,0.01l-1.02 -0.08c-0.19,-0.02 -0.47,-0.05 -0.67,-0.06 -0.21,0 -0.46,-0.04 -0.67,-0.05 -0.22,-0.01 -0.48,-0.03 -0.67,-0.06l-1.35 -0.1c-0.08,0 -0.25,-0.02 -0.34,-0.03 -0.36,-0.05 -1.32,-0.08 -1.69,-0.13 -0.22,-0.03 -0.41,-0.05 -0.64,-0.07 -0.23,-0.02 -0.44,-0.06 -0.68,-0.06zm-0.68 -5.66c-0.03,-0.39 -0.36,-0.79 -0.69,-0.97 -0.47,-0.27 -0.94,-0.33 -1.56,-0.33 -0.52,0 -1.2,0.14 -1.52,0.34 -0.17,0.1 -0.36,0.3 -0.46,0.47 -0.14,0.23 -0.19,0.41 -0.19,0.76l0 6.36c0,0.48 0.1,0.65 0.35,0.97 0.15,0.18 0.53,0.48 0.85,0.48l1.84 0c0.39,0 0.89,-0.21 1.1,-0.56 0.05,-0.08 0.05,-0.1 0.09,-0.17l1.02 0.09c0.67,0.04 1.41,0.14 2.08,0.18 0.49,0.03 1.05,0.11 1.57,0.13 0.15,0.01 0.36,0.04 0.52,0.04 0.95,0 2,0.27 3.14,0.27 0.96,0 1.89,-0.36 2.7,-0.77l4.59 -2.06c0.06,-0.02 0.13,-0.05 0.2,-0.09 0.27,-0.13 0.53,-0.23 0.8,-0.36l0.4 -0.18c0.4,-0.16 0.86,-0.4 1.2,-0.54 0.14,-0.06 0.25,-0.12 0.38,-0.18 0.66,-0.33 1.28,-0.57 1.64,-1.28 0.28,-0.57 0.29,-1.2 0.05,-1.79 -0.3,-0.74 -1.01,-1.31 -1.82,-1.31 -0.64,0 -1.32,0.29 -1.93,0.46 -0.44,0.12 -1.24,0.4 -1.72,0.55l-1.73 0.54c-0.28,0.09 -0.56,0.16 -0.85,0.26l-0.66 0.19c-0.09,0.03 -0.15,0.05 -0.23,0.07 0,-0.31 -0.18,-0.74 -0.35,-0.99 -0.2,-0.3 -0.39,-0.47 -0.69,-0.66 -0.54,-0.36 -1.37,-0.48 -2.02,-0.68 -0.88,-0.26 -2.36,-0.62 -3.28,-0.75 -1.21,-0.17 -2.27,-0.18 -3.33,0.43 -0.12,0.07 -0.25,0.17 -0.38,0.26l-0.85 0.75c-0.06,0.03 -0.19,0.07 -0.26,0.07z"/>
   <path d="M12.85 4.75l0 -2.97 2.33 0 0 2.85c-0.44,-0.29 -0.51,-0.54 -1.21,-0.54 -0.23,0 -0.48,0.15 -0.63,0.25 -0.13,0.09 -0.31,0.29 -0.49,0.41zm-7.93 -2.91l0 8.86c0,0.7 0.84,1.07 1.37,0.67 0.44,-0.32 0.34,-0.95 0.34,-1.45 0,-0.22 -0.02,-0.36 -0.02,-0.58l0 -5.44c0,-0.59 -0.11,-1.36 0.04,-1.92 0.02,-0.1 0.06,-0.13 0.08,-0.2l4.43 0 0 4.19c0,0.33 0.15,0.61 0.31,0.78 0.47,0.49 1.1,0.45 1.64,0.08 0.27,-0.19 0.39,-0.38 0.75,-0.64 0.04,-0.03 0.07,-0.05 0.1,-0.08 0.04,-0.04 0.05,-0.05 0.09,-0.08 0.2,0.05 1.01,1.08 1.65,1.08 0.39,0 0.63,-0.12 0.91,-0.39 0.24,-0.24 0.33,-0.48 0.33,-0.85l0 -4.09c1.29,0 2.52,-0.04 3.82,-0.04 0.94,0 0.65,0.16 0.66,0.82l0 7.03c0,0.25 0.01,0.57 0,0.8l-0.04 0.74c-0.01,0.14 0.03,0.58 0.07,0.72 0.13,0.51 0.48,0.67 1.01,0.67 0.19,0 0.41,-0.18 0.5,-0.3 0.09,-0.12 0.22,-0.37 0.22,-0.57l0 -9.79c0,-0.38 -0.18,-0.79 -0.38,-1.07 -0.08,-0.11 -0.15,-0.17 -0.24,-0.26 -0.17,-0.17 -0.36,-0.3 -0.6,-0.4 -0.24,-0.1 -0.5,-0.13 -0.85,-0.13l-14.11 0c-0.58,0 -1.05,0.13 -1.45,0.51 -0.3,0.28 -0.63,0.76 -0.63,1.33z"/>
   <path d="M16.34 11.34c0,0.23 0.01,0.42 0.2,0.61 0.12,0.12 0.27,0.19 0.42,0.24 0.28,0.09 0.93,0.15 1.19,0.11 0.67,-0.1 1.15,0.16 1.59,-0.39 0.24,-0.29 0.27,-0.79 -0.03,-1.09 -0.14,-0.13 -0.23,-0.2 -0.44,-0.26 -0.22,-0.06 -0.36,-0.05 -0.64,-0.05 -0.12,-0.01 -0.19,-0.03 -0.33,-0.02 -0.64,0 -1.45,-0.09 -1.83,0.44 -0.06,0.09 -0.13,0.26 -0.13,0.41z"/>
  </g>
 </g>
</symbol><symbol fill="currentColor" fill-rule="evenodd" clip-rule="evenodd" viewBox="0 0 0.66 0.81" id="ic-discount"><title>discount</title>
 <g id="discount-Camada_x0020_1">
  <metadata id="discount-CorelCorpID_0Corel-Layer"/>
  <g id="discount-_2290055209120">
   <g>
    <path d="M0 0.47c0,0.05 0.01,0.1 0.03,0.15 0.04,0.07 0.08,0.12 0.16,0.16 0.04,0.02 0.08,0.03 0.12,0.03l0.04 0c0.02,0 0.04,-0.01 0.06,-0.01 0.05,-0.01 0.09,-0.04 0.13,-0.07 0.03,-0.03 0.01,-0.06 -0.01,-0.06 -0.02,0 -0.02,0.01 -0.04,0.02 -0.06,0.05 -0.14,0.07 -0.22,0.05 -0.05,-0.01 -0.1,-0.04 -0.13,-0.08 -0.02,-0.02 -0.04,-0.04 -0.05,-0.07 -0.04,-0.08 -0.03,-0.15 0,-0.24 0,-0.02 0.02,-0.06 0.03,-0.08l0.02 -0.02c0.01,-0.02 0.01,-0.03 0.03,-0.04 0.02,-0.03 0.06,-0.07 0.08,-0.09l0.03 -0.03c0,0.04 0.01,0.08 0.03,0.12 0.01,0.02 0.05,0.08 0.07,0.08 0.02,0 0.03,-0.01 0.03,-0.02l0.04 -0.05c0,0 0.01,-0.02 0.02,-0.02 0,0.01 0.01,0.03 0.02,0.04 0,0.01 0.01,0.01 0.01,0.02 0.05,0.07 0.08,0.1 0.09,0.19 0.01,0.06 -0.01,0.09 -0.01,0.12 0,0.01 0.02,0.02 0.03,0.02 0.03,0 0.03,-0.01 0.04,-0.04 0.03,-0.13 -0.01,-0.22 -0.09,-0.32 -0.01,-0.01 -0.02,-0.02 -0.02,-0.04 -0.03,-0.03 -0.02,-0.06 -0.03,-0.07 -0.01,-0.02 -0.03,-0.02 -0.04,-0.01 -0.02,0.01 -0.03,0.03 -0.04,0.04l-0.05 0.05c-0.02,-0.03 -0.03,-0.06 -0.03,-0.1 -0.01,-0.02 -0.01,-0.04 -0.01,-0.06 0,-0.02 0,-0.02 -0.01,-0.03 0,-0.01 -0.01,-0.01 -0.02,-0.01l-0.01 0c-0.02,0 -0.04,0.02 -0.06,0.04l-0.08 0.08c-0.03,0.03 -0.07,0.09 -0.09,0.12 -0.01,0.02 -0.02,0.03 -0.03,0.05 0,0.01 0,0.01 -0.01,0.02 -0.01,0.04 -0.03,0.1 -0.03,0.16z"/>
    <path d="M0.19 0.61c0,0.01 0,0.02 0.01,0.03 0.01,0.01 0.02,0.01 0.03,0.01 0.01,0 0.03,-0.02 0.03,-0.03l0.09 -0.11c0.01,-0.01 0.02,-0.02 0.03,-0.03l0.05 -0.06c0.02,-0.03 0.03,-0.04 0.03,-0.06 0,-0.01 -0.01,-0.03 -0.02,-0.03 -0.03,0 -0.03,0.01 -0.05,0.03l-0.17 0.21c-0.01,0.01 -0.03,0.03 -0.03,0.04z"/>
    <path d="M0.18 0.37l0 0.01c0,0.02 0.02,0.05 0.04,0.05l0.01 0c0.02,0 0.04,-0.03 0.04,-0.05l0 -0.01c0,-0.02 -0.02,-0.04 -0.04,-0.04l-0.01 0c-0.02,0 -0.04,0.02 -0.04,0.04z"/>
    <path d="M0.39 0.6l0 0c0,0.02 0.02,0.05 0.04,0.05l0.01 0c0.02,0 0.04,-0.03 0.04,-0.05l0 0c0,-0.03 -0.02,-0.05 -0.04,-0.05l-0.01 0c-0.02,0 -0.04,0.02 -0.04,0.05z"/>
   </g>
  </g>
 </g>
</symbol><symbol fill="currentColor" fill-rule="evenodd" clip-rule="evenodd" viewBox="0 0 1955.45 1956.31" id="ic-document-user"><title>document-user</title>
 <g id="document-user-Camada_x0020_1">
  <metadata id="document-user-CorelCorpID_0Corel-Layer"/>
  <path d="M391.12 3.83c-168.57,22.22 -283.91,131.14 -343.29,244.87 -44.76,85.74 -47.35,137.27 -47.35,243.79l0 880.89c0,195.83 -13.19,264.7 99.83,413.79 17.54,23.15 23.31,24.57 36.01,38.12 7.73,8.25 8.62,10.51 17.5,17.38 26.68,20.69 26.08,24.01 63.49,47.7 126.11,79.92 224.96,64.69 375.25,64.69 48.71,0 97.4,0 146.09,0 52.27,0 95.7,9.65 120.69,-24.87 27.19,-37.56 9.5,-82.56 -23.04,-98.42 -21.49,-10.47 -113.26,-5.76 -143.44,-5.37 -89.71,1.22 -199.89,6.57 -287.45,-4.62 -37.6,-4.81 -80.18,-20 -108.79,-36.88 -64.4,-38.04 -109.58,-82.51 -139.97,-154.46 -36.48,-86.43 -27.37,-174.68 -27.37,-267.96l0 -734.8c0,-173.93 -19.68,-333.58 144.74,-442.89 70.84,-47.08 140.41,-54.92 237.87,-54.92l588.72 0c101.26,0 165.17,7.68 239.24,55.73 54.34,35.26 102.69,87.32 128.49,163.84 14.73,43.62 9.65,86.09 20.95,125.13 10.59,36.53 57.72,55.43 96.3,31.99 34.84,-21.17 31.83,-62.33 26.62,-114.02 -9.34,-92.4 -48.61,-160.04 -101.5,-227.26 -60.46,-76.86 -150.39,-131.51 -248.55,-154.7 -62.35,-14.72 -214,-9.53 -285.84,-9.53 -61.24,0 -536.3,-3.67 -585.2,2.78zm62.14 1171.13c2.4,18.85 24.67,39.6 39.04,45.8 14.7,6.32 60.98,3.45 80.64,3.45l340.15 0c35.74,0 44.81,3.71 66.34,-17.77 16.37,-16.36 23.83,-28.69 19.49,-61.15 -2.47,-18.46 -23.63,-39.57 -38.32,-46.18 -14.6,-6.58 -60.81,-3.67 -80.21,-3.67l-340.15 0c-33.41,0 -47.07,-1.51 -67.13,16.74 -15.61,14.22 -23.72,32.55 -19.85,62.78zm45.8 219.58c-41.34,12.15 -66.44,69.91 -29.71,106.42 22.11,21.99 25.13,21.1 64.35,21.08 57.79,-0.01 408.01,2.51 421.74,-1.72 37.79,-11.67 64.02,-65.12 27.9,-105.96 -17.31,-19.57 -29.6,-21.14 -63.71,-21.13 -57.09,0.04 -407.84,-2.43 -420.57,1.31zm-1.45 -591.61c-36.25,10.27 -66.07,64.7 -28.58,107.51 15.51,17.7 33,19.9 64.67,19.89 57.63,-0.02 407.64,2.54 421.11,-1.4 33.37,-9.78 66.45,-60.5 29.27,-106.25 -19.44,-23.94 -42.02,-21.17 -64.45,-21.17 -58.4,0.04 -407.81,-2.6 -422.02,1.42zm1.85 -297.78c-22.96,6.01 -45.89,28.74 -46.65,57.01 -0.54,20.21 0.18,29.24 10.37,42.28 6.1,7.8 17.22,19.3 27.88,24.38 16.28,7.78 363.76,3.83 411.13,3.83 31.56,0 190.81,3.61 208.17,-1.78 50.83,-15.81 64.41,-94.01 5.38,-123.03 -16.51,-8.13 -362.49,-4.01 -409.79,-4.01 -27.11,0 -194.24,-1.89 -206.49,1.32zm971.29 1095.84c128.18,-7.78 233.32,19.74 305.07,128.59 42.66,64.72 40.54,100.16 49.83,168.77 10.25,75.61 102.52,68.38 124.6,21.68 17.19,-36.34 -12.7,-152.5 -25.64,-186.71 -23.94,-63.19 -63.2,-116.98 -113.26,-159.32 -30.47,-25.78 -60.7,-46.95 -98.33,-65.03 -56.57,-27.16 -105.62,-37.67 -176.31,-38.71 -69.09,-1.01 -135.96,-3.43 -197.48,19.64 -49.09,18.41 -100.52,46.68 -138.31,79.79 -37.19,32.61 -70.11,67.76 -98.33,119.62 -25.53,46.91 -46.96,104.35 -49.95,168.1 -0.57,12.27 -1.87,43.03 1.17,53.43 11.66,39.96 68.07,59.16 105.54,31.46 28.95,-21.39 19.96,-100.75 47.98,-170.01 10.2,-25.18 27.21,-50.72 41.49,-67.52l26.37 -28.18c8.6,-10.01 18.56,-16.84 29.7,-24.83 44.47,-31.86 99.17,-46.73 165.86,-50.77zm-157.19 -569.93c-10.03,-98.97 61.61,-191.28 166.35,-202.98 109.25,-12.19 196.43,70.27 204.7,168.43 9.06,107.62 -71.22,193.36 -168.27,201.76 -107.32,9.29 -193.15,-72.34 -202.78,-167.21zm147.79 -331.88c-82.51,9.76 -155.52,48.81 -205.58,111.98 -52.82,66.68 -79.95,128.44 -69.72,241.16 14.41,158.9 170.6,298.57 352.29,274.71 122.74,-16.12 226.81,-104.55 262.2,-210.86 35.87,-107.79 8.98,-245.18 -76.68,-326.78 -6.24,-5.95 -14.13,-13.68 -21.66,-19.73 -60.6,-48.81 -134.93,-83 -240.85,-70.48z"/>
 </g>
</symbol><symbol fill="currentColor" fill-rule="evenodd" clip-rule="evenodd" viewBox="0 0 382455.71 454145.09" id="ic-document"><title>document</title>
 <g id="document-Camada_x0020_1">
  <metadata id="document-CorelCorpID_0Corel-Layer"/>
  <path d="M30348.78 142937.83c0,-16627.89 -1335.4,-36120.27 3385.73,-51146.63 8132.06,-25948.9 28704.73,-48001.84 53475.71,-56618.93 17186.93,-5971.49 30659.01,-4854.99 49641.16,-4854.99l110108.81 0c19103.42,0 32358.17,-1020.44 49288.42,5231.36 24226.11,8932.04 44568.86,30499.95 52603.29,56765.38 4574.68,14952.34 3204.64,35427.38 3204.64,52019.05 0,81622.97 59.84,172129.16 0,186305.15 -97.64,19966.39 -1044.07,31096.79 -10487.91,48428.6 -7402.94,13557.11 -19163.25,25389.86 -32139.28,33096.74 -17476.69,10390.27 -29857.45,11664.25 -53354.45,11664.25l-130437.38 0c-23109.61,0 -35986.42,-1505.47 -53100.92,-11930.39 -13155.54,-8023.4 -24273.35,-19286.08 -31932.98,-33292 -9029.68,-16506.64 -10109.96,-27892.15 -10231.22,-46461.73 -97.64,-15158.64 -23.62,-107352.97 -23.62,-189205.86zm74375.92 164215.99l173015.75 0c8240.72,0 14975.97,6735.25 14975.97,14977.55l0 11.02c0,8242.3 -6735.25,14977.55 -14975.97,14977.55l-173015.75 0c-8240.72,0 -14977.54,-6735.25 -14977.54,-14977.55l0 -11.02c0,-8242.3 6736.82,-14977.55 14977.54,-14977.55zm0 -74790.08l173015.75 0c8240.72,0 14975.97,6736.82 14975.97,14977.54l0 12.6c0,8240.72 -6735.25,14977.55 -14975.97,14977.55l-173015.75 0c-8240.72,0 -14977.54,-6736.83 -14977.54,-14977.55l0 -12.6c0,-8240.72 6736.82,-14977.54 14977.54,-14977.54zm0 -115338.59l43548.42 0c8240.72,0 14977.54,6735.25 14977.54,14977.55l0 11.02c0,8242.3 -6736.82,14977.55 -14977.54,14977.55l-43548.42 0c-8240.72,0 -14977.54,-6735.25 -14977.54,-14977.55l0 -11.02c0,-8242.3 6736.82,-14977.55 14977.54,-14977.55zm277006.62 -11530.39c-1433.03,-15815.32 -5499.06,-29019.68 -11906.76,-41145.33 -17393.23,-32964.46 -52578.1,-62130.59 -94876.16,-63998.26 -16931.82,-741.71 -35428.95,-74.01 -52529.27,-74.01l-105908.92 0c-43305.91,-36.22 -79789.95,23097.01 -100738.99,58125.97 -17270.39,28873.23 -15413.75,52784.39 -15413.75,90142.42 0,53003.28 0,94948.59 0,147951.87 0,16627.9 -982.65,36507.67 314.95,52748.17 4223.51,52833.2 52590.69,102183.04 106746.7,104548.33 16955.44,741.71 35452.57,74.01 52578.09,74.01l105896.32 0c17199.53,11.03 30586.57,-2124.35 44543.67,-8495.83 24262.33,-11081.59 43912.19,-29057.47 56207.92,-49630.14 17185.35,-28715.75 15413.75,-52978.08 15413.75,-90129.83 0,-53015.87 0,-94948.59 0,-147964.46 0,-16130.27 1080.28,-36628.92 -327.55,-52152.91z"/>
 </g>
</symbol><symbol fill="currentColor" fill-rule="evenodd" clip-rule="evenodd" viewBox="0 0 1.16 1.16" id="ic-dolar-circle"><title>dolar-circle</title>
 <g id="dolar-circle-Camada_x0020_1">
  <metadata id="dolar-circle-CorelCorpID_0Corel-Layer"/>
  <g id="dolar-circle-_2339351652384">
   <path d="M0.56 0.1c0.07,-0.01 0.15,0.01 0.2,0.03 0.07,0.03 0.1,0.06 0.15,0.1 0.06,0.05 0.11,0.14 0.13,0.23 0.01,0.03 0.02,0.06 0.02,0.1 0.01,0.06 -0.02,0.15 -0.04,0.2 -0.01,0.05 -0.04,0.08 -0.06,0.12l-0.03 0.03c-0.09,0.09 -0.2,0.14 -0.33,0.15 -0.12,0.01 -0.27,-0.05 -0.35,-0.13 -0.01,-0.01 -0.01,-0.01 -0.02,-0.02 0,0 -0.01,-0.01 -0.01,-0.01 -0.01,-0.01 -0.02,-0.02 -0.03,-0.03 -0.01,-0.03 -0.03,-0.05 -0.04,-0.08 -0.07,-0.13 -0.07,-0.26 -0.02,-0.39 0.04,-0.1 0.09,-0.15 0.16,-0.21 0.08,-0.06 0.17,-0.08 0.27,-0.09zm-0.03 -0.1c-0.11,0.01 -0.19,0.04 -0.27,0.1 -0.04,0.02 -0.05,0.03 -0.08,0.06 -0.01,0.02 -0.02,0.03 -0.04,0.04 -0.01,0.01 -0.02,0.02 -0.03,0.04 -0.03,0.04 -0.06,0.09 -0.07,0.14 -0.06,0.15 -0.05,0.33 0.03,0.47 0.02,0.05 0.06,0.09 0.09,0.13 0.02,0.02 0.02,0.01 0.04,0.03 0.06,0.05 0.1,0.08 0.18,0.11 0.15,0.06 0.33,0.05 0.47,-0.03 0.03,-0.02 0.07,-0.04 0.09,-0.06l0.05 -0.04c0,0 0,-0.01 0.01,-0.01 0.02,-0.03 0.06,-0.07 0.08,-0.1 0.06,-0.11 0.09,-0.22 0.08,-0.35 -0.02,-0.13 -0.07,-0.24 -0.15,-0.33 0,-0.01 0,-0.01 0,-0.01 -0.01,-0.01 -0.02,-0.02 -0.03,-0.03 -0.01,0 -0.02,-0.01 -0.02,-0.02 -0.03,-0.03 -0.12,-0.08 -0.18,-0.1 -0.08,-0.03 -0.16,-0.05 -0.25,-0.04z"/>
   <path d="M0.42 0.73c0,0.02 -0.01,0.05 -0.02,0.07 0,0.01 0.01,0.02 0.03,0.02 0.03,0.02 0.09,0.02 0.1,0.03 0.02,0.02 0,0.06 0.01,0.08 0.02,0 0.05,0 0.07,0 0,-0.02 0,-0.05 0,-0.07 0.01,-0.04 0.08,-0.02 0.12,-0.1 0.02,-0.03 0.03,-0.07 0.02,-0.11 -0.02,-0.08 -0.1,-0.11 -0.16,-0.13 -0.03,-0.02 -0.07,-0.04 -0.08,-0.07 -0.01,-0.04 0.04,-0.06 0.08,-0.07 0.03,0 0.06,0.01 0.09,0.02 0.01,0 0.02,0.01 0.03,0.01 0,-0.01 0.02,-0.06 0.02,-0.07 -0.01,-0.02 -0.05,-0.03 -0.08,-0.03 -0.05,-0.01 -0.04,-0.02 -0.04,-0.08l-0.05 0c-0.02,0 -0.01,0 -0.01,0.04 0,0.03 -0.01,0.04 -0.03,0.05 -0.04,0.01 -0.07,0.03 -0.09,0.06 -0.02,0.03 -0.03,0.08 -0.01,0.13 0.01,0.03 0.04,0.05 0.07,0.07 0.05,0.03 0.12,0.04 0.15,0.08 0.03,0.05 -0.01,0.14 -0.16,0.09 -0.01,0 -0.02,0 -0.03,-0.01 -0.01,0 -0.02,-0.01 -0.03,-0.01z"/>
  </g>
 </g>
</symbol><symbol fill="currentColor" fill-rule="evenodd" clip-rule="evenodd" viewBox="0 0 12.42 1.85" id="ic-dots-h"><title>dots-h</title>
 <g id="dots-h-Camada_x0020_1">
  <metadata id="dots-h-CorelCorpID_0Corel-Layer"/>
  <g id="dots-h-_1617645729856">
   <circle cx="0.92" cy="0.92" r="0.92"/>
   <circle cx="6.12" cy="0.92" r="0.92"/>
   <circle cx="11.5" cy="0.92" r="0.92"/>
  </g>
 </g>
</symbol><symbol fill="currentColor" fill-rule="evenodd" clip-rule="evenodd" viewBox="0 0 0.36 2.43" id="ic-dots-v"><title>dots-v</title>
 <g id="dots-v-Camada_x0020_1">
  <metadata id="dots-v-CorelCorpID_0Corel-Layer"/>
  <g id="dots-v-_1617710362784">
   <circle transform="matrix(1.27614E-13 4.81845 -4.81845 1.27614E-13 0.180791 0.180794)" r="0.04"/>
   <circle transform="matrix(1.27614E-13 4.81845 -4.81845 1.27614E-13 0.180791 1.1985)" r="0.04"/>
   <circle transform="matrix(1.27614E-13 4.81845 -4.81845 1.27614E-13 0.180791 2.25267)" r="0.04"/>
  </g>
 </g>
</symbol><symbol fill="currentColor" fill-rule="evenodd" clip-rule="evenodd" viewBox="0 0 5.25 2.87" id="ic-down"><title>down</title>
 <g id="down-Camada_x0020_1">
  <metadata id="down-CorelCorpID_0Corel-Layer"/>
  <path d="M2.47 2.16l-1.92 -1.95c-0.1,-0.09 -0.18,-0.17 -0.23,-0.19 -0.19,-0.08 -0.38,0.11 -0.3,0.31 0.02,0.04 0.15,0.19 0.32,0.37l2.09 2.07c0.26,0.26 0.45,-0.06 0.6,-0.21l2.09 -2.08c0.07,-0.07 0.13,-0.15 0.13,-0.24 0.01,-0.18 -0.19,-0.31 -0.36,-0.2 -0.04,0.03 -0.13,0.12 -0.16,0.16l-1.95 1.94c-0.16,0.17 -0.17,0.16 -0.31,0.02z"/>
 </g>
</symbol><symbol fill="currentColor" fill-rule="evenodd" clip-rule="evenodd" viewBox="0 0 8.37 7.76" id="ic-download"><title>download</title>
 <g id="download-Camada_x0020_1">
  <metadata id="download-CorelCorpID_0Corel-Layer"/>
  <path d="M0 5.19l0 1.09c0,0.76 0.7,1.48 1.46,1.48l5.44 0c0.77,0 1.47,-0.72 1.47,-1.48l0 -1.09c0,-0.14 -0.1,-0.26 -0.22,-0.3 -0.68,-0.18 -0.3,1.15 -0.44,1.62 -0.05,0.13 -0.11,0.24 -0.2,0.33 -0.22,0.22 -0.41,0.31 -0.76,0.31l-5.13 0c-0.44,0 -0.82,-0.23 -0.95,-0.63 -0.16,-0.49 0.23,-1.78 -0.44,-1.63 -0.12,0.03 -0.23,0.14 -0.23,0.3zm2.17 -1.33c0,-0.23 0.13,-0.32 0.34,-0.32 0.14,0 0.58,0.49 0.7,0.61l0.67 0.66 0 -4.43c0,-0.13 0,-0.18 0.06,-0.26 0.17,-0.21 0.55,-0.16 0.55,0.24l0 4.45c0.11,-0.07 0.35,-0.34 0.46,-0.45 0.08,-0.08 0.15,-0.14 0.23,-0.23l0.46 -0.47c0.26,-0.26 0.49,-0.15 0.57,0.05 0.11,0.28 -0.26,0.53 -0.54,0.8l-0.93 0.94c-0.22,0.21 -0.34,0.41 -0.59,0.41 -0.14,0 -0.44,-0.35 -0.54,-0.45l-1.24 -1.24c-0.08,-0.08 -0.2,-0.14 -0.2,-0.31z"/>
 </g>
</symbol><symbol fill="currentColor" fill-rule="evenodd" clip-rule="evenodd" viewBox="0 0 98.23 98.23" id="ic-edit"><title>edit</title>
 <g id="edit-Camada_x0020_1">
  <metadata id="edit-CorelCorpID_0Corel-Layer"/>
  <path d="M7.19 90.79c0,-11.24 -0.9,-19.66 5.43,-28.11l9.8 -10.01c4.48,-4.52 8.82,-8.85 13.27,-13.39l9.97 -9.84c0.96,-1.25 1.69,-2.97 2.9,-3.65 2.76,1.61 2.18,2.08 4.56,3.99l18.67 18.54c-0.52,3.04 -6.25,7.91 -8.58,10.23l-21.75 21.65c-1.06,0.84 -2.04,2.06 -3.11,3.01 -1.08,0.95 -2.06,1.91 -3.32,2.82 -8.03,5.82 -17.73,5.31 -27.84,4.76zm47.79 -69.44c2.93,-5.29 2.81,-3.77 5.54,-7 0.67,-0.79 1.03,-0.93 1.71,-1.59 0.64,-0.61 0.82,-0.92 1.54,-1.53 11,-9.16 25.16,-1.69 27.08,9.13 0.64,3.61 -0.04,7.48 -1.4,10.42 -1.06,2.31 -2.57,3.91 -4.04,5.63 -0.5,0.59 -1.02,0.95 -1.57,1.5 -1.58,1.61 -4.27,4.78 -7.14,5.48 -1.47,-1.79 -3.71,-3.84 -5.42,-5.59l-10.85 -11.09c-1.77,-1.82 -3.65,-3.51 -5.45,-5.36zm43.12 3.85c1.14,-10.32 -5.33,-19.03 -13.46,-22.94 -9.7,-4.67 -20.49,-1.72 -27.34,5.33 -4.09,4.21 -8.05,8.19 -12.22,12.31 -2.1,2.1 -4.04,4.02 -6.17,6.09 -1.06,1.03 -1.92,2.12 -2.98,3.16 -4.99,4.87 -10.88,10.32 -15.49,15.16l-9.1 9.3c-1.11,0.96 -1.97,2.22 -2.92,3.21 -3.34,3.5 -6.85,9.81 -7.88,16.41 -0.49,3.11 -1.05,21.54 0.32,23.43 1.06,1.47 2.44,1.4 4.71,1.4 14.06,0 23.45,1.98 35.3,-7.62 4.59,-3.72 8.44,-8.03 12.46,-12.05 8.24,-8.24 16.28,-16.32 24.53,-24.53l9.25 -9.15c5.56,-5.73 9.88,-9.37 10.99,-19.51z"/>
 </g>
</symbol><symbol fill="currentColor" fill-rule="evenodd" clip-rule="evenodd" viewBox="0 0 24.69 19.9" id="ic-email"><title>email</title>
 <g id="email-Camada_x0020_1">
  <metadata id="email-CorelCorpID_0Corel-Layer"/>
  <path d="M1.56 13.8c0,-1.49 -0.1,-7.94 0.12,-8.99 0.12,-0.56 0.35,-0.87 0.4,-1.11 0.25,0.06 2.09,2.01 2.31,2.23 1.3,1.3 3.32,3.4 4.61,4.55 1.77,1.59 4.78,1.63 6.66,0.03 1.03,-0.88 3.67,-3.62 4.62,-4.56 0.22,-0.22 2.08,-2.19 2.33,-2.25 0.11,0.47 0.52,0.74 0.52,2.45l0 7.65c0,1.57 -0.49,2.81 -1.71,3.71 -0.68,0.5 -1.58,0.77 -2.51,0.77l-13.13 0c-1.78,0 -3.26,-0.96 -3.91,-2.59 -0.22,-0.53 -0.31,-1.13 -0.31,-1.89zm1.67 -11.4c0.18,-0.05 0.08,-0.04 0.23,-0.14 0.61,-0.4 1.46,-0.65 2.22,-0.65l13.33 0c0.78,0 1.56,0.24 2.19,0.63 0.15,0.1 0.07,0.11 0.26,0.16 -0.06,0.24 -1.83,1.9 -2.04,2.12l-4.22 4.22c-0.79,0.79 -1.6,1.37 -2.86,1.37 -1.22,0 -2.05,-0.57 -2.82,-1.35l-6.04 -6.04c-0.31,-0.3 -0.17,-0.18 -0.25,-0.32zm-3.23 2.91l0 9.27c0,1.11 0.56,2.28 1.15,3.07 0.39,0.52 0.92,1.01 1.47,1.35 1.03,0.62 1.99,0.9 3.32,0.9l12.81 0c1.35,0 2.29,-0.28 3.32,-0.9 1.45,-0.88 2.62,-2.76 2.62,-4.42l0 -9.27c0,-1.45 -0.73,-2.49 -1.46,-3.43l-0.73 -0.68c-1.15,-0.82 -2.19,-1.2 -3.75,-1.2l-12.81 0c-1.33,0 -2.29,0.28 -3.32,0.9 -0.83,0.5 -1.58,1.34 -2.01,2.21 -0.28,0.56 -0.61,1.4 -0.61,2.2z"/>
 </g>
</symbol><symbol fill="currentColor" fill-rule="evenodd" clip-rule="evenodd" viewBox="0 0 25.32 25.32" id="ic-enter"><title>enter</title>
 <g id="enter-Camada_x0020_1">
  <metadata id="enter-CorelCorpID_0Corel-Layer"/>
  <g id="enter-_1617512552352">
   <path d="M16.37 23.14l0 -18.94c0,-0.5 0.81,-0.62 1.48,-0.84l5.34 -1.78c0.32,0 0.55,0.27 0.55,0.65l0 18.84c0,0.58 -0.9,0.7 -1.67,0.95l-5.01 1.67c-0.37,0.09 -0.69,-0.1 -0.69,-0.55zm0.55 2.18l-0.19 0c-0.52,-0.02 -1.01,-0.22 -1.46,-0.73 -0.61,-0.68 -0.53,-1.5 -0.53,-2.44l-3.56 0c-1.5,0 -2.77,-1.33 -2.77,-3.16 0,-0.85 -0.2,-2.13 0.84,-2.13 1.04,0 0.79,1.47 0.79,2.18 -0.01,0.91 0.42,1.53 1.43,1.53l3.27 0 0 -16.17c0,-2.48 2.57,-2.34 3.26,-2.82 -2.09,0 -4.19,0.01 -6.28,0 -2.32,-0.01 -1.51,1.89 -1.69,3.01 -0.1,0.59 -0.82,1.03 -1.42,0.39 -0.31,-0.33 -0.2,-1.19 -0.2,-1.82 0,-1.35 0.55,-2.28 1.59,-2.85 0.3,-0.15 0.75,-0.31 1.18,-0.31l12.16 0c0.68,0 1.48,0.54 1.78,1.19 0.09,0.18 0.2,0.52 0.2,0.79l0 19.28c0,0.81 -0.7,1.57 -1.31,1.81 -0.75,0.3 -3.73,1.25 -4.59,1.54 -0.88,0.29 -1.72,0.68 -2.5,0.71z"/>
   <path d="M8.85 10.29c-0.43,0 -8.05,-0.05 -8.29,0.02 -0.35,0.09 -0.54,0.4 -0.56,0.73l0 0.09c0.02,0.3 0.19,0.59 0.53,0.71 0.27,0.09 3.1,0.03 3.52,0.03 1.6,0 3.2,0 4.8,0l-1.87 1.89c-0.23,0.24 -0.78,0.68 -0.88,1 -0.17,0.55 0.11,1.06 0.87,1.06 0.34,0 0.95,-0.72 1.28,-1.05l2.94 -2.94c0.56,-0.56 0.63,-0.88 0.02,-1.48l-3.53 -3.54c-0.34,-0.34 -0.38,-0.48 -0.86,-0.48 -0.54,0 -0.87,0.51 -0.73,1.03 0.14,0.51 2.36,2.32 2.76,2.93z"/>
  </g>
 </g>
</symbol><symbol fill="currentColor" fill-rule="evenodd" clip-rule="evenodd" viewBox="0 0 2.12 0.97" id="ic-eye-close"><title>eye-close</title>
 <g id="eye-close-Camada_x0020_1">
  <metadata id="eye-close-CorelCorpID_0Corel-Layer"/>
  <path d="M0.05 0.08c0,0.07 0.09,0.16 0.13,0.21 -0.04,0.05 -0.16,0.11 -0.18,0.18l0 0.03c0,0.02 0.01,0.03 0.03,0.05 0.01,0 0.01,0.01 0.02,0.01 0.11,0.04 0.17,-0.08 0.25,-0.13 0.02,0 0.03,0.01 0.05,0.03 0.01,0.01 0.03,0.02 0.04,0.03 0.03,0.03 0.07,0.05 0.11,0.06 -0.02,0.07 -0.09,0.13 -0.09,0.21 0,0.05 0.11,0.14 0.2,0 0.02,-0.04 0.04,-0.08 0.06,-0.12 0.06,0.01 0.18,0.06 0.29,0.06 0,0.14 -0.03,0.27 0.11,0.27 0.12,0 0.09,-0.2 0.09,-0.27 0.08,0 0.21,-0.04 0.29,-0.06 0,0.03 0.08,0.15 0.1,0.17 0.04,0.03 0.08,0.04 0.12,0.01 0.11,-0.07 -0.05,-0.2 -0.05,-0.27 0.04,-0.01 0.12,-0.07 0.15,-0.09 0.02,-0.02 0.03,-0.03 0.05,-0.03 0.05,0.03 0.14,0.14 0.21,0.14 0.04,0 0.09,-0.03 0.09,-0.09 0,-0.05 -0.05,-0.08 -0.08,-0.1 -0.02,-0.02 -0.08,-0.08 -0.1,-0.08 0.04,-0.06 0.16,-0.18 0.12,-0.25 -0.02,-0.04 -0.06,-0.05 -0.1,-0.05l0 0c-0.05,0 -0.09,0.07 -0.13,0.13 -0.08,0.12 -0.11,0.15 -0.22,0.23 -0.05,0.04 -0.17,0.1 -0.23,0.12 -0.31,0.12 -0.73,0.03 -0.96,-0.2l-0.07 -0.06c-0.12,-0.15 -0.1,-0.22 -0.21,-0.22 -0.05,0 -0.09,0.03 -0.09,0.08z"/>
 </g>
</symbol><symbol fill="currentColor" fill-rule="evenodd" clip-rule="evenodd" viewBox="0 0 1.39 0.89" id="ic-eye-open"><title>eye-open</title>
 <g id="eye-open-Camada_x0020_1">
  <metadata id="eye-open-CorelCorpID_0Corel-Layer"/>
  <g id="eye-open-_2751289367472">
   <g>
    <path d="M0.11 0.44c0.01,-0.01 0.02,-0.02 0.03,-0.03l0.02 -0.02c0,0 0,0 0.01,-0.01 0,0 0.04,-0.04 0.04,-0.04 0.02,-0.02 0.03,-0.03 0.04,-0.04 0.01,0 0.01,-0.01 0.02,-0.01l0.03 -0.03c0.02,-0.02 0.05,-0.04 0.08,-0.06 0.01,0 0.01,0 0.02,-0.01 0.03,-0.02 0.09,-0.05 0.13,-0.06 0.01,-0.01 0.03,-0.01 0.04,-0.01 0.06,-0.02 0.08,-0.02 0.14,-0.02 0.04,0 0.07,0.01 0.1,0.01 0.03,0.01 0.09,0.03 0.12,0.05 0.03,0.01 0.09,0.05 0.11,0.06 0.01,0.01 0.01,0.01 0.01,0.01 0.03,0.02 0.05,0.04 0.07,0.06l0.06 0.05c0.01,0.01 0.01,0.01 0.02,0.01l0.05 0.06c0.01,0.01 0.02,0.03 0.03,0.04 -0.01,0 -0.01,0.01 -0.01,0.01 -0.01,0 -0.01,0.01 -0.01,0.01 0,0 -0.01,0 -0.01,0.01 0,0 0,0 0,0 -0.02,0.02 -0.07,0.08 -0.08,0.08 -0.01,0.01 -0.02,0.02 -0.03,0.03l-0.05 0.04c-0.01,0.01 -0.02,0.02 -0.03,0.03 -0.02,0.01 -0.04,0.02 -0.06,0.03 -0.01,0.01 -0.02,0.02 -0.03,0.02l-0.04 0.02c-0.01,0.01 -0.03,0.02 -0.04,0.02 -0.06,0.03 -0.12,0.04 -0.2,0.04 -0.08,0 -0.14,-0.02 -0.19,-0.04 -0.02,-0.01 -0.05,-0.02 -0.07,-0.03 -0.03,-0.02 -0.05,-0.03 -0.08,-0.05 -0.02,-0.02 -0.03,-0.03 -0.05,-0.04 -0.02,-0.02 -0.07,-0.06 -0.09,-0.08 0,0 0,-0.01 0,-0.01l-0.1 -0.1zm0.6 0.45l-0.04 0c-0.03,0 -0.07,-0.01 -0.12,-0.02 -0.03,-0.01 -0.07,-0.02 -0.1,-0.03 -0.02,-0.01 -0.03,-0.02 -0.05,-0.03 -0.01,0 -0.03,-0.01 -0.04,-0.02 -0.03,-0.02 -0.04,-0.02 -0.07,-0.04 -0.03,-0.02 -0.06,-0.05 -0.09,-0.07l-0.04 -0.04c-0.01,-0.01 -0.01,-0.01 -0.02,-0.02 -0.01,0 -0.01,-0.01 -0.02,-0.02l-0.03 -0.03c-0.01,-0.01 -0.06,-0.07 -0.07,-0.09 -0.02,-0.01 -0.02,-0.02 -0.02,-0.04l0 0c0,-0.02 0.03,-0.05 0.04,-0.07 0.01,0 0.01,-0.01 0.02,-0.01l0.07 -0.08c0,0 0.01,-0.01 0.01,-0.01l0.14 -0.11c0.04,-0.04 0.04,-0.03 0.08,-0.06 0.06,-0.04 0.13,-0.07 0.2,-0.08 0.06,-0.02 0.09,-0.02 0.15,-0.02 0.09,0 0.2,0.03 0.28,0.08 0.06,0.03 0.07,0.04 0.13,0.08 0.01,0.01 0.09,0.07 0.1,0.08l0.16 0.17c0,0 0,0 0,0.01 0.01,0.01 0.01,0.02 0.01,0.03l0 0c0,0.02 -0.03,0.05 -0.04,0.07l-0.03 0.03c-0.01,0.02 -0.03,0.03 -0.04,0.04 -0.01,0.01 -0.04,0.03 -0.05,0.05l-0.06 0.05c0,0 0,0 0,0.01 -0.01,0 -0.01,0 -0.01,0.01l-0.02 0.01c-0.02,0.02 -0.04,0.03 -0.07,0.04 -0.05,0.04 -0.12,0.08 -0.18,0.1 -0.06,0.02 -0.12,0.03 -0.18,0.03z"/>
    <path d="M0.52 0.45c0,-0.04 0.01,-0.08 0.03,-0.11 0.05,-0.07 0.16,-0.1 0.24,-0.05 0.03,0.02 0.06,0.05 0.07,0.09 0.02,0.05 0.02,0.12 -0.02,0.17 -0.02,0.02 -0.04,0.05 -0.07,0.06 -0.05,0.02 -0.09,0.02 -0.13,0 -0.02,0 -0.05,-0.02 -0.06,-0.03 -0.02,-0.02 -0.03,-0.03 -0.05,-0.06 0,-0.02 -0.01,-0.04 -0.01,-0.07zm-0.1 0c0,0.04 0.01,0.08 0.02,0.11l0.02 0.03c0,0.01 0,0.01 0.01,0.01 0,0.01 0.01,0.02 0.01,0.02 0.03,0.03 0.06,0.06 0.1,0.08 0.02,0.01 0.07,0.02 0.11,0.02 0.01,0 0.05,0 0.06,0 0.04,-0.01 0.09,-0.03 0.12,-0.06l0.01 -0.01c0.01,-0.01 0.01,-0.01 0.03,-0.02l0.01 -0.02c0.01,-0.02 0.02,-0.03 0.03,-0.04 0.04,-0.08 0.03,-0.19 -0.01,-0.26 -0.01,-0.02 -0.02,-0.03 -0.03,-0.04l-0.02 -0.02c-0.01,-0.01 -0.02,-0.02 -0.03,-0.03l-0.03 -0.02c-0.03,-0.01 -0.09,-0.03 -0.12,-0.03 -0.01,0 -0.01,0 -0.02,0 -0.01,0 -0.03,0 -0.05,0 -0.03,0.01 -0.07,0.02 -0.1,0.04l-0.06 0.05c-0.02,0.03 -0.05,0.08 -0.05,0.12 -0.01,0.02 -0.01,0.04 -0.01,0.07z"/>
   </g>
  </g>
 </g>
</symbol><symbol fill="currentColor" fill-rule="evenodd" clip-rule="evenodd" viewBox="0 0 11.03 13.1" id="ic-file"><title>file</title>
 <g id="file-Camada_x0020_1">
  <metadata id="file-CorelCorpID_0Corel-Layer"/>
  <path d="M0.88 4.12c0,-0.48 -0.04,-1.04 0.09,-1.47 0.24,-0.75 0.83,-1.39 1.55,-1.64 0.49,-0.17 0.88,-0.14 1.43,-0.14l3.17 0c0.55,0 0.94,-0.02 1.43,0.16 0.69,0.25 1.28,0.88 1.51,1.63 0.13,0.43 0.09,1.02 0.09,1.5 0,2.36 0.01,4.97 0,5.38 0,0.57 -0.03,0.89 -0.3,1.39 -0.21,0.39 -0.55,0.74 -0.92,0.96 -0.51,0.3 -0.87,0.33 -1.54,0.33l-3.77 0c-0.66,0 -1.03,-0.04 -1.53,-0.34 -0.38,-0.23 -0.7,-0.56 -0.92,-0.96 -0.26,-0.48 -0.29,-0.8 -0.29,-1.34 -0.01,-0.44 0,-3.1 0,-5.46zm2.14 4.74l4.99 0c0.24,0 0.43,0.19 0.43,0.43l0 0c0,0.24 -0.19,0.43 -0.43,0.43l-4.99 0c-0.24,0 -0.43,-0.19 -0.43,-0.43l0 0c0,-0.24 0.19,-0.43 0.43,-0.43zm0 -2.16l4.99 0c0.24,0 0.43,0.2 0.43,0.43l0 0c0,0.24 -0.19,0.44 -0.43,0.44l-4.99 0c-0.24,0 -0.43,-0.2 -0.43,-0.44l0 0c0,-0.23 0.19,-0.43 0.43,-0.43zm0 -3.32l1.26 0c0.23,0 0.43,0.19 0.43,0.43l0 0c0,0.24 -0.2,0.43 -0.43,0.43l-1.26 0c-0.24,0 -0.43,-0.19 -0.43,-0.43l0 0c0,-0.24 0.19,-0.43 0.43,-0.43zm7.99 -0.34c-0.04,-0.45 -0.16,-0.83 -0.34,-1.18 -0.5,-0.95 -1.52,-1.8 -2.74,-1.85 -0.49,-0.02 -1.02,0 -1.51,0l-3.06 0c-1.25,0 -2.3,0.66 -2.91,1.67 -0.49,0.84 -0.44,1.53 -0.44,2.6 0,1.53 0,2.74 0,4.27 0,0.48 -0.03,1.06 0.01,1.52 0.12,1.53 1.52,2.95 3.08,3.02 0.49,0.02 1.02,0 1.51,0l3.06 0c0.5,0 0.88,-0.06 1.28,-0.24 0.7,-0.32 1.27,-0.84 1.63,-1.44 0.49,-0.82 0.44,-1.52 0.44,-2.59 0,-1.53 0,-2.74 0,-4.27 0,-0.47 0.03,-1.06 -0.01,-1.51z"/>
 </g>
</symbol><symbol fill="currentColor" fill-rule="evenodd" clip-rule="evenodd" viewBox="0 0 129.83 177.41" id="ic-flash"><title>flash</title>
 <g id="flash-Camada_x0020_1">
  <metadata id="flash-CorelCorpID_0Corel-Layer"/>
  <path d="M21.74 73.35c2.83,-8.58 5.63,-17.05 8.44,-25.56l10.58 -31.98c1.34,-4.04 0.21,-3.57 4.6,-3.58l56.09 -0.05c-0.06,3.7 -6.82,17.59 -8.54,21.53 -6.01,13.73 -12.77,27.79 -18.6,41.58 -1.34,3.17 -3.15,8.41 1.57,10.53 3.26,1.46 36.97,0.68 38.86,0.66 -0.72,2 -2.19,3.49 -3.39,4.94l-45.6 55.89c-2.8,3.04 -4.23,5.52 -8.33,7.42 0,-10.7 -2.09,-22.56 -3.39,-33.21 -0.63,-5.09 -1.17,-11.05 -2.15,-15.98 -0.52,-2.57 -1.09,-4.94 -3.3,-5.75 -2.15,-0.77 -5.83,-0.71 -8.26,-0.71l-27.03 0 8.45 -25.73zm18.87 37.9c0,5.62 4.87,41.41 5.94,50.01 0.34,2.77 0.7,5.54 1.02,8.28 0.39,3.21 0.72,5.18 2.66,6.65 2.22,1.7 4.9,1.52 7.24,0.11 0.83,-0.49 1.5,-1.44 2.19,-2.33l56.78 -69.39c2.12,-2.56 11.52,-13.61 12.47,-15.73 2.5,-5.62 -0.49,-10.96 -4.02,-13 -4.18,-2.4 -11.78,-1.51 -17.08,-1.51 -3.13,0 -16.92,0.15 -18.81,-0.11 1.56,-6.95 10.07,-24.15 13.53,-32.16 2.3,-5.31 4.78,-10.57 7.03,-15.89 3.37,-8 10.57,-17.94 1.82,-24.2 -2.7,-1.94 -5.84,-1.98 -9.61,-1.98l-57.67 0c-3.75,0 -7.31,-0.15 -9.68,1.91 -3.97,3.47 -5.31,9.65 -7.22,15.69 -5.32,16.81 -11.69,35.07 -17.32,51.94l-8.68 25.81c-1.16,3.62 -1.83,5.71 -0.34,9.59 3,7.81 9.33,6.31 16.55,6.31 7.73,0 15.47,0 23.2,0z"/>
 </g>
</symbol><symbol fill="currentColor" fill-rule="evenodd" clip-rule="evenodd" viewBox="0 0 95.8 95.74" id="ic-formula"><title>formula</title>
 <g id="formula-Camada_x0020_1">
  <metadata id="formula-CorelCorpID_0Corel-Layer"/>
  <g id="formula-_1619509791504">
   <path d="M5.87 50.84c0.06,-0.04 0.02,-0.03 0.14,-0.06l0.43 -0.01c0.21,0.01 0.42,0 0.63,0 4.41,0 37.41,-0.08 37.92,0.04 0.1,0.49 0.06,38.81 0.01,39.03 -0.01,0.01 -0.02,0.05 -0.02,0.04 0,-0.01 -0.01,0.03 -0.02,0.04l-34.2 0c-0.97,0 -1.37,0 -2.09,-0.35 -0.57,-0.28 -1.04,-0.62 -1.43,-1.01 -0.34,-0.35 -0.81,-0.94 -1.04,-1.47 -0.35,-0.8 -0.33,-1.07 -0.33,-2.11 0,-1.62 0,-3.25 0,-4.87 0,-9.69 0.11,-19.65 0,-29.27zm44.97 39.08c-0.1,-0.15 -0.07,-0.35 -0.06,-0.56 0.05,-5.12 -0.1,-37.91 0.02,-38.55 0.43,-0.1 9.11,-0.04 9.79,-0.04 1.53,0 28.65,-0.06 29.2,0l0.19 0.07c-0.06,6.51 0,13.06 0,19.57l0 14.7c0.01,1.71 -0.57,2.59 -1.43,3.45 -0.35,0.35 -0.89,0.81 -1.46,1.05 -0.77,0.32 -1.12,0.31 -2.11,0.31l-34.14 0zm0 -84.11c11.36,0.06 22.88,0.02 34.26,0 0.91,0 1.38,0.06 2.06,0.38 0.98,0.45 2.04,1.52 2.47,2.49 0.27,0.61 0.35,1.24 0.35,2.08 -0.02,11.39 0.05,22.81 0,34.2l-0.24 0.07c-0.08,0 -0.24,-0.01 -0.32,-0.01 -5.1,-0.05 -38,0.1 -38.61,-0.03 -0.12,-0.48 -0.04,-31.62 -0.04,-34.36 0,-0.74 -0.09,-4.57 0.07,-4.82zm-5.88 0l0.07 0.25c0,0.08 0,0.23 -0.01,0.32 -0.04,5.05 0.11,38.03 -0.03,38.61 -0.47,0.1 -19.19,0.03 -19.6,0.03 -6.23,0 -12.79,-0.06 -19.01,0l-0.46 -0.04c-0.01,-0.02 -0.03,-0.01 -0.05,-0.02 -0.04,-11.4 0,-22.86 0,-34.27 0,-0.96 0.02,-1.38 0.36,-2.08 0.45,-0.93 1.53,-2.06 2.5,-2.45 0.74,-0.3 1.11,-0.35 2.09,-0.35 11.35,0.01 22.81,0.06 34.14,0zm-44.96 4.05l0 76.01c0.09,0.15 0.07,1.16 0.31,1.98 0.37,1.25 1.19,2.97 2.04,3.91 0.53,0.6 0.52,0.79 1.15,1.23 0.19,0.12 0.13,0.12 0.28,0.28 0.23,0.25 0.45,0.34 0.68,0.51l1.09 0.73c0.69,0.41 1.71,0.84 2.53,1.03 0.19,0.04 0.88,0.14 0.96,0.2l77.6 0c0.07,-0.06 0.72,-0.16 0.89,-0.2 0.83,-0.17 1.84,-0.57 2.56,-0.94 0.89,-0.45 2.33,-1.53 2.93,-2.26 0.12,-0.15 0.12,-0.2 0.24,-0.32 1.03,-1.06 2.06,-3.1 2.37,-4.65l0.17 -1.02 0 -76.96c-0.01,-0.01 -0.02,-0.03 -0.02,-0.04 0,-0.02 -0.01,-0.04 -0.02,-0.05 -0.1,-0.44 -0.01,-0.69 -0.37,-1.87 -0.17,-0.54 -0.47,-1.22 -0.71,-1.63 -0.19,-0.33 -0.97,-1.57 -1.2,-1.8 -0.79,-0.81 -0.17,-0.37 -1.42,-1.45 -1.59,-1.37 -3.31,-2.19 -5.39,-2.5l-0.21 -0.05 -77.19 0 -1.06 0.2c-1.35,0.28 -3.22,1.24 -4.17,2.09 -1.11,0.99 -1.29,1.1 -2.17,2.33 -0.91,1.25 -1.46,2.68 -1.74,4.21 -0.04,0.23 -0.06,0.92 -0.13,1.03z"/>
   <path d="M20.32 71.43l-3.4 3.27c-0.51,0.56 -1.07,1.23 -1.26,2.13 -0.38,1.87 1.83,4.46 4.49,2.78 0.71,-0.45 2.03,-1.8 2.58,-2.47 0.27,-0.32 0.54,-0.53 0.82,-0.87 0.2,-0.24 0.62,-0.68 0.9,-0.79 0.53,0.48 2.47,2.57 3.29,3.4 2.84,2.84 5.72,0.35 5.44,-2.01 -0.11,-0.84 -0.73,-1.64 -1.23,-2.14 -0.57,-0.58 -1.14,-1.09 -1.71,-1.66 -0.53,-0.53 -1.35,-1.21 -1.69,-1.72 0.22,-0.34 0.49,-0.6 0.8,-0.85l1.29 -1.22c0.59,-0.59 1.44,-1.28 2.01,-2.17 0.86,-1.34 0.67,-2.7 -0.29,-3.67 -0.53,-0.53 -1.36,-0.94 -2.46,-0.82 -1.54,0.17 -3.42,2.61 -4.61,3.82 -0.23,0.23 -0.6,0.7 -0.9,0.81 -0.46,-0.34 -0.84,-0.84 -1.22,-1.25 -1.05,-1.14 -2.89,-3.21 -4.24,-3.38 -1.21,-0.15 -1.88,0.31 -2.45,0.89 -0.27,0.27 -0.49,0.5 -0.66,0.96 -0.16,0.42 -0.25,0.99 -0.15,1.46 0.16,0.83 0.78,1.66 1.25,2.13 0.57,0.57 3.3,3.1 3.4,3.37z"/>
   <path d="M21.48 23.48c-1.72,0.12 -3.62,-0.08 -5.35,0.02 -2.94,0.16 -3.57,5.03 0.13,5.76 1.32,0.25 3.72,-0.1 5.24,0.07 0,1.01 -0.06,4.58 0.06,5.31 0.38,2.2 3.03,3.23 4.82,1.69 0.43,-0.37 0.76,-1.02 0.9,-1.72 0.09,-0.41 0.03,-4.52 0.03,-5.3 1.21,0 4.37,0.14 5.32,-0.07 3.78,-0.84 2.87,-5.62 0.01,-5.75 -1.7,-0.07 -3.58,0 -5.31,0 -0.14,-1.02 0.09,-4.08 -0.02,-5.41 -0.24,-3.03 -5.35,-3.49 -5.79,0.07 -0.15,1.15 0.1,4 -0.04,5.33z"/>
   <path d="M60.73 65.03l0 0.82c0,1.22 1.27,2.58 2.61,2.58l16.07 0c0.76,0 1.4,-0.36 1.87,-0.84 1,-1 1.08,-2.85 0.18,-3.97 -0.39,-0.49 -1.14,-1.01 -1.73,-1.01l-16.64 0c-0.79,0 -1.74,0.75 -2.07,1.47 -0.07,0.15 -0.29,0.82 -0.29,0.95z"/>
   <path d="M79.35 80.17c0.34,0 0.87,-0.13 1.13,-0.24 0.99,-0.42 1.49,-1.43 1.6,-2.55 0.08,-0.76 -0.25,-1.57 -0.64,-2.05 -0.31,-0.37 -1.02,-0.97 -1.71,-0.97l-16.7 0c-0.43,0 -1.2,0.41 -1.56,0.8 -0.74,0.79 -0.74,1.64 -0.74,2.51 0,1.09 1.28,2.5 2.61,2.5l16.01 0z"/>
   <path d="M60.67 26.51c0,0.73 0.52,1.61 0.91,1.96 0.47,0.42 1.38,0.84 1.95,0.84l15.63 0c0.74,0 1.54,-0.43 1.99,-0.81 1.32,-1.09 1.35,-3.5 -0.26,-4.59 -0.81,-0.55 -1.72,-0.42 -2.91,-0.42 -4.47,0 -8.93,0 -13.39,0 -1.3,0 -1.95,-0.13 -2.81,0.52 -0.81,0.61 -1.11,1.48 -1.11,2.5z"/>
   <path d="M44.96 89.92c0.01,-0.01 0.02,-0.05 0.02,-0.04 0,0.01 0.01,-0.03 0.02,-0.04 0.05,-0.22 0.09,-38.54 -0.01,-39.03 -0.51,-0.12 -33.51,-0.04 -37.92,-0.04 -0.21,0 -0.42,0.01 -0.63,0l-0.43 0.01c-0.12,0.03 -0.08,0.02 -0.14,0.06l39.03 0 0.06 39.08z"/>
   <path d="M89.98 44.96l-39.14 0 0 -39.15c-0.16,0.25 -0.07,4.08 -0.07,4.82 0,2.74 -0.08,33.88 0.04,34.36 0.61,0.13 33.51,-0.02 38.61,0.03 0.08,0 0.24,0.01 0.32,0.01l0.24 -0.07z"/>
   <path d="M50.84 89.92l0 -39.08 39.14 0 -0.19 -0.07c-0.55,-0.06 -27.67,0 -29.2,0 -0.68,0 -9.36,-0.06 -9.79,0.04 -0.12,0.64 0.03,33.43 -0.02,38.55 -0.01,0.21 -0.04,0.41 0.06,0.56z"/>
   <path d="M5.87 44.96c0.02,0.01 0.04,0 0.05,0.02l0.46 0.04c6.22,-0.06 12.78,0 19.01,0 0.41,0 19.13,0.07 19.6,-0.03 0.14,-0.58 -0.01,-33.56 0.03,-38.61 0.01,-0.09 0.01,-0.24 0.01,-0.32l-0.07 -0.25 0.06 39.15 -39.15 0z"/>
  </g>
 </g>
</symbol><symbol fill="currentColor" fill-rule="evenodd" clip-rule="evenodd" viewBox="0 0 5.52 6.38" id="ic-gear"><title>gear</title>
 <g id="gear-Camada_x0020_1">
  <metadata id="gear-CorelCorpID_0Corel-Layer"/>
  <g id="gear-_1618009927968">
   <path d="M2.76 5.96c-0.07,0 -0.31,-0.15 -0.39,-0.2 -0.03,-0.02 -0.05,-0.03 -0.08,-0.05l-1.5 -0.9c-0.06,-0.03 -0.11,-0.05 -0.16,-0.08 -0.1,-0.07 -0.21,-0.14 -0.21,-0.27l0 -2.54c0,-0.07 0.03,-0.13 0.07,-0.17 0.07,-0.07 0.34,-0.22 0.44,-0.27 0.21,-0.13 0.4,-0.24 0.6,-0.36l0.6 -0.36c0.11,-0.06 0.21,-0.12 0.31,-0.18 0.08,-0.05 0.24,-0.16 0.33,-0.16 0.04,0 0.13,0.05 0.17,0.07l0.3 0.18c0.06,0.03 0.11,0.06 0.16,0.1l0.15 0.09c0.05,0.03 0.1,0.06 0.16,0.09l0.3 0.18c0.21,0.12 0.41,0.24 0.62,0.37 0.1,0.06 0.2,0.12 0.3,0.18 0.06,0.03 0.1,0.06 0.14,0.11 0.03,0.05 0.04,0.12 0.04,0.2l0 2.39c0,0.18 -0.04,0.23 -0.17,0.32 -0.03,0.01 -0.05,0.03 -0.08,0.04l-0.16 0.09c-0.53,0.32 -1.07,0.64 -1.61,0.96 -0.06,0.04 -0.26,0.17 -0.33,0.17zm-2.76 -4.11l0 2.68c0,0.08 0.03,0.17 0.06,0.23 0.03,0.06 0.07,0.11 0.12,0.16 0.09,0.09 0.24,0.16 0.35,0.23 0.12,0.07 0.28,0.17 0.4,0.24l0.09 0.06c0.02,0.01 0.03,0.02 0.05,0.03l0.36 0.21c0.03,0.02 0.06,0.04 0.09,0.05l0.81 0.49c0.15,0.09 0.19,0.12 0.37,0.14 0.02,0.01 0.04,0 0.07,0 0.13,0.02 0.35,-0.09 0.47,-0.16 0.01,-0.01 0.03,-0.02 0.04,-0.03l0.18 -0.11c0.03,-0.02 0.06,-0.04 0.09,-0.06 0.06,-0.03 0.12,-0.07 0.18,-0.1l1.44 -0.86c0.14,-0.08 0.22,-0.15 0.29,-0.3 0.03,-0.05 0.06,-0.14 0.06,-0.22l0 -2.69c0,-0.05 -0.01,-0.13 -0.03,-0.18 -0.03,-0.05 -0.05,-0.08 -0.08,-0.13 -0.04,-0.05 -0.05,-0.06 -0.09,-0.09 -0.11,-0.1 -0.53,-0.34 -0.68,-0.43l-1.43 -0.85c-0.14,-0.09 -0.25,-0.16 -0.42,-0.16 -0.14,0 -0.16,0.01 -0.29,0.06 -0.07,0.03 -0.13,0.06 -0.19,0.1 -0.12,0.06 -0.24,0.15 -0.36,0.21l-1.42 0.86c-0.06,0.04 -0.31,0.18 -0.35,0.23 -0.09,0.1 -0.18,0.25 -0.18,0.39z"/>
   <path d="M2.74 4.25c-0.04,0 -0.08,0 -0.12,-0.01 -0.13,-0.01 -0.27,-0.06 -0.38,-0.13 -0.1,-0.05 -0.21,-0.15 -0.28,-0.23 -0.04,-0.06 -0.07,-0.09 -0.11,-0.15 0,-0.02 -0.01,-0.03 -0.02,-0.05 -0.07,-0.11 -0.12,-0.33 -0.12,-0.46 0,-0.2 0.02,-0.31 0.1,-0.48 0.02,-0.05 0.04,-0.08 0.06,-0.13 0.07,-0.11 0.18,-0.21 0.28,-0.29 0.03,-0.02 0.05,-0.03 0.08,-0.05 0.13,-0.08 0.31,-0.15 0.49,-0.15l0.07 0c0.14,0 0.32,0.05 0.41,0.1 0.13,0.06 0.14,0.07 0.23,0.15 0.06,0.05 0.18,0.18 0.22,0.25 0.09,0.14 0.16,0.32 0.16,0.51 0,0.22 -0.02,0.32 -0.1,0.51 -0.03,0.09 -0.13,0.24 -0.22,0.31 -0.09,0.08 -0.1,0.11 -0.22,0.17 -0.14,0.08 -0.37,0.13 -0.53,0.13zm-1.45 -1.17c0,0.26 0.01,0.48 0.12,0.72 0.05,0.08 0.09,0.15 0.14,0.23 0.02,0.03 0.11,0.14 0.13,0.17l0.05 0.05c0.01,0.01 0.01,0.02 0.02,0.02 0.01,0.01 0.01,0.01 0.02,0.02l0.08 0.07c0.17,0.13 0.33,0.22 0.54,0.27 0.34,0.08 0.66,0.05 0.98,-0.08 0.12,-0.06 0.22,-0.12 0.32,-0.2 0.02,-0.02 0.13,-0.13 0.15,-0.16 0.07,-0.08 0.1,-0.11 0.17,-0.22 0.01,-0.01 0.01,-0.02 0.02,-0.03l0.03 -0.06c0.09,-0.15 0.17,-0.39 0.17,-0.58 0,-0.24 0,-0.37 -0.07,-0.59 -0.02,-0.07 -0.08,-0.18 -0.11,-0.24 -0.04,-0.07 -0.06,-0.1 -0.1,-0.17 -0.08,-0.11 -0.21,-0.23 -0.31,-0.31 -0.11,-0.08 -0.21,-0.14 -0.34,-0.19 -0.12,-0.05 -0.29,-0.1 -0.43,-0.1 -0.23,0 -0.39,0 -0.59,0.08 -0.16,0.06 -0.26,0.1 -0.4,0.22 -0.02,0.01 -0.03,0.02 -0.05,0.04l-0.09 0.08c-0.01,0.01 -0.02,0.01 -0.02,0.02l-0.07 0.07c-0.04,0.06 -0.07,0.09 -0.11,0.15 -0.05,0.08 -0.05,0.09 -0.1,0.17 -0.07,0.12 -0.15,0.35 -0.15,0.55z"/>
  </g>
 </g>
</symbol><symbol fill="currentColor" fill-rule="evenodd" clip-rule="evenodd" viewBox="0 0 12.39 12.4" id="ic-info-circle"><title>info-circle</title>
 <g id="info-circle-Camada_x0020_1">
  <metadata id="info-circle-CorelCorpID_0Corel-Layer"/>
  <path d="M6.13 2.72c-0.84,0.15 -0.56,1.28 0.16,1.15 0.28,-0.05 0.53,-0.33 0.47,-0.67 -0.04,-0.28 -0.31,-0.54 -0.63,-0.48zm-0.33 -1.92c0.83,-0.06 1.6,0.06 2.31,0.33 0.41,0.16 0.99,0.47 1.32,0.73l0.36 0.3c0.17,0.13 0.36,0.36 0.51,0.52 0.68,0.75 1.21,2.02 1.29,3.09 0.13,1.71 -0.55,3.11 -1.36,4.02l-0.33 0.36c-0.1,0.1 -0.25,0.2 -0.37,0.3 -1.82,1.4 -4.2,1.56 -6.17,0.35 -0.49,-0.3 -0.42,-0.29 -0.77,-0.57l-0.44 -0.43c-0.03,-0.04 -0.04,-0.06 -0.07,-0.09 -1.27,-1.43 -1.65,-3.65 -0.95,-5.44 0.26,-0.66 0.65,-1.26 1.03,-1.68l0.33 -0.35c0.12,-0.11 0.25,-0.2 0.38,-0.31 0.78,-0.63 1.85,-1.06 2.93,-1.13zm6.58 5.76c0.06,-0.94 -0.12,-1.87 -0.43,-2.66 -0.21,-0.51 -0.52,-1.07 -0.85,-1.48 -0.35,-0.45 -0.7,-0.81 -1.16,-1.16 -0.92,-0.69 -2.14,-1.2 -3.38,-1.25 -1.8,-0.08 -3.28,0.49 -4.55,1.62 -0.07,0.06 -0.15,0.13 -0.21,0.19 -0.05,0.06 -0.03,0.05 -0.1,0.11 -0.1,0.08 -0.35,0.39 -0.44,0.51 -1.57,1.97 -1.68,4.97 -0.3,7.09 0.2,0.31 0.3,0.41 0.51,0.67l0.77 0.77c1.69,1.42 4.14,1.84 6.24,0.99 0.37,-0.14 0.72,-0.33 1.02,-0.53 0.61,-0.41 1,-0.73 1.45,-1.27 0.21,-0.26 0.62,-0.85 0.77,-1.15 0.36,-0.74 0.61,-1.5 0.66,-2.45zm-6.3 -1.12c-0.37,0.13 -0.29,0.58 -0.29,0.98l0 2.51c0,0.19 -0.02,0.42 0.06,0.57 0.07,0.11 0.25,0.23 0.46,0.17 0.34,-0.09 0.28,-0.63 0.28,-0.98l0 -2.52c0,-0.19 0.02,-0.42 -0.07,-0.57 -0.07,-0.11 -0.25,-0.22 -0.44,-0.16z"/>
 </g>
</symbol><symbol fill="currentColor" fill-rule="evenodd" clip-rule="evenodd" viewBox="0 0 21.52 20.91" id="ic-list"><title>list</title>
 <g id="list-Camada_x0020_1">
  <metadata id="list-CorelCorpID_0Corel-Layer"/>
  <g id="list-_1617705855776">
   <g>
    <path d="M6.15 3.53c-0.53,0 -0.96,0.45 -0.96,1.13 0,0.48 0.48,0.97 0.96,0.97 16.8,0 -3.38,0 13.4,0 0.53,0 0.97,-0.46 0.97,-1.14 0,-0.48 -0.48,-0.96 -0.97,-0.96 -16.8,0 3.39,0 -13.4,0z"/>
    <circle cx="2.05" cy="4.58" r="1.05"/>
   </g>
   <g>
    <path d="M6.15 9.41c-0.53,0 -0.96,0.45 -0.96,1.13 0,0.48 0.48,0.97 0.96,0.97 16.8,0 -3.38,0 13.4,0 0.53,0 0.97,-0.46 0.97,-1.14 0,-0.48 -0.48,-0.96 -0.97,-0.96 -16.8,0 3.39,0 -13.4,0z"/>
    <circle cx="2.05" cy="10.46" r="1.05"/>
   </g>
   <g>
    <path d="M6.15 15.28c-0.53,0 -0.96,0.46 -0.96,1.14 0,0.48 0.48,0.96 0.96,0.96 16.8,0 -3.38,0 13.4,0 0.53,0 0.97,-0.46 0.97,-1.13 0,-0.48 -0.48,-0.97 -0.97,-0.97 -16.8,0 3.39,0 -13.4,0z"/>
    <circle cx="2.05" cy="16.33" r="1.05"/>
   </g>
  </g>
 </g>
</symbol><symbol fill="currentColor" fill-rule="evenodd" clip-rule="evenodd" viewBox="0 0 32.34 33.22" id="ic-logs"><title>logs</title>
 <g id="logs-Camada_x0020_1">
  <metadata id="logs-CorelCorpID_0Corel-Layer"/>
  <path d="M6.13 4.74c0,1.75 1.6,1.75 3.6,2.42 0.3,0.1 1.25,0.43 1.52,0.43 0.48,0 1.1,-0.5 1.1,-0.97 0,-1.05 -0.35,-1.21 -1.71,-1.6 -0.27,-0.07 -0.57,-0.2 -0.82,-0.22 0.07,-0.06 -0.02,0 0.11,-0.08 0.06,-0.03 0.12,-0.07 0.17,-0.09 0.13,-0.07 0.2,-0.1 0.31,-0.15 1.34,-0.68 3.61,-1.24 5.12,-1.24 2.46,0 3.65,0.1 5.93,1.01 1.08,0.43 2.68,1.37 3.56,2.16l1.43 1.36c0.23,0.23 0.43,0.51 0.65,0.77 0.22,0.27 0.41,0.53 0.6,0.83 1.63,2.45 2.63,5.79 2.29,8.92 -0.16,1.47 -0.34,2.2 -0.78,3.5 -0.29,0.88 -0.91,2.07 -1.4,2.81 -0.3,0.44 -0.87,1.27 -1.23,1.63 -0.27,0.26 -0.42,0.5 -0.68,0.74 -0.69,0.63 -1.24,1.05 -1.98,1.59 -2.58,1.91 -6.26,2.62 -9.55,2.25 -2.06,-0.23 -4.89,-1.34 -6.54,-2.67l-0.78 -0.65c-0.64,-0.63 -0.34,-0.24 -1.04,-1.04 -0.12,-0.14 -0.23,-0.22 -0.35,-0.35 -0.44,-0.5 -1.19,-1.55 -1.48,-2.1 -0.35,-0.65 -0.64,-1.17 -0.93,-1.92 -1.19,-3.04 -1.21,-6.48 -0.15,-9.6 0.12,-0.34 0.26,-0.7 0.41,-1.02 0.23,-0.49 0.41,-0.77 0.41,-1.21 0,-0.6 -0.49,-1.1 -1.17,-1.1 -0.77,0 -1.06,0.69 -1.3,1.23 -0.25,0.56 -0.54,1.26 -0.71,1.88 -0.19,0.68 -0.35,1.26 -0.49,2.04 -0.82,4.53 0.43,9.03 3.08,12.57 2.75,3.68 7.57,6.35 12.4,6.35 3.01,0 4.7,-0.35 7.26,-1.49 3.32,-1.49 6.07,-4.26 7.69,-7.5 0.07,-0.14 0.1,-0.24 0.16,-0.36 1.99,-4.04 2,-9.57 0,-13.62 -0.97,-1.97 -1.18,-2.15 -2.31,-3.6 -0.45,-0.57 -1.41,-1.51 -1.98,-1.97 -0.19,-0.16 -0.32,-0.27 -0.54,-0.44 -0.22,-0.16 -0.36,-0.28 -0.59,-0.44 -4.47,-3.09 -10.13,-3.78 -15.23,-1.74 -0.22,0.09 -0.49,0.23 -0.69,0.28 0.04,-0.55 0.32,-0.41 0.32,-1.37 0,-0.43 -0.53,-0.97 -0.97,-0.97 -1.23,0 -1.22,0.71 -1.78,2.11 -0.18,0.46 -0.94,2.28 -0.94,2.63zm7 6.74l0 6.56c0,1.4 1.44,2.91 3.05,2.91l4.41 0c1.19,0 1.41,-2.14 0,-2.27 -0.89,-0.07 -2.96,0.06 -4.09,0.01 -0.65,-0.03 -1.07,-0.32 -1.1,-0.98 -0.08,-1.96 0.08,-4.35 0,-6.16 -0.06,-1.53 -2.27,-1.41 -2.27,-0.07z"/>
 </g>
</symbol><symbol fill="currentColor" fill-rule="evenodd" clip-rule="evenodd" viewBox="0 0 9.92 9.64" id="ic-minus"><title>minus</title>
 <g id="minus-Camada_x0020_1">
  <metadata id="minus-CorelCorpID_0Corel-Layer"/>
  <path d="M0.45 4.34c-0.25,0 -0.45,0.21 -0.45,0.52 0,0.22 0.22,0.45 0.45,0.45 7.74,0 1.29,0 9.03,0 0.24,0 0.44,-0.22 0.44,-0.53 0,-0.22 -0.22,-0.44 -0.44,-0.44 -7.75,0 -1.3,0 -9.03,0z"/>
 </g>
</symbol><symbol fill="currentColor" fill-rule="evenodd" clip-rule="evenodd" viewBox="0 0 15.72 28.8" id="ic-next"><title>next</title>
 <g id="next-Camada_x0020_1">
  <metadata id="next-CorelCorpID_0Corel-Layer"/>
  <path d="M11.82 15.24l-10.66 10.56c-0.52,0.52 -0.94,0.99 -1.04,1.23 -0.44,1.06 0.59,2.09 1.68,1.68 0.25,-0.1 1.08,-0.81 2.04,-1.79l11.36 -11.47c1.38,-1.37 -0.36,-2.43 -1.17,-3.24l-11.39 -11.47c-0.37,-0.38 -0.84,-0.71 -1.3,-0.74 -0.99,-0.05 -1.73,1.05 -1.12,1.98 0.15,0.21 0.67,0.7 0.86,0.88l10.67 10.7c0.93,0.9 0.84,0.93 0.07,1.68z"/>
 </g>
</symbol><symbol fill="currentColor" fill-rule="evenodd" clip-rule="evenodd" viewBox="0 0 12.58 12.56" id="ic-package"><title>package</title>
 <g id="package-Camada_x0020_1">
  <metadata id="package-CorelCorpID_0Corel-Layer"/>
  <path d="M1.46 3.35c0.05,-0.08 0.32,-0.27 0.42,-0.33 0.46,-0.27 0.75,-0.45 1.23,-0.69 0.1,-0.04 0.16,-0.1 0.25,-0.12 0.11,0.12 1.87,1.02 2.11,1.14l2.15 1.13c0.11,0.06 0.57,0.28 0.61,0.35 -0.12,0.03 -1.55,0.76 -1.7,0.84 -0.31,0.15 -0.15,0.16 -0.84,-0.19 -0.29,-0.14 -0.56,-0.28 -0.85,-0.42 -0.22,-0.11 -3.27,-1.61 -3.38,-1.71zm2.84 -1.64c0.33,-0.21 1.39,-0.71 1.72,-0.79 0.69,-0.15 1.68,0.48 2.3,0.81l1.24 0.65c0.29,0.14 0.54,0.28 0.82,0.44 0.14,0.09 0.25,0.15 0.39,0.24 0.09,0.06 0.31,0.22 0.36,0.29 -0.12,0.11 -0.67,0.35 -0.85,0.44 -0.29,0.15 -0.58,0.29 -0.87,0.44 -0.25,0.13 -0.2,0.09 -0.43,-0.04l-1.29 -0.67c-0.15,-0.07 -0.27,-0.15 -0.41,-0.22 -0.08,-0.04 -0.15,-0.07 -0.22,-0.11 -0.08,-0.04 -0.12,-0.07 -0.21,-0.12l-0.87 -0.45c-0.14,-0.08 -0.25,-0.14 -0.41,-0.21l-1.27 -0.7zm7.27 2.44c0.14,0.33 0.11,2.49 0.11,3 0,1.11 -0.06,1.71 -0.83,2.29 -0.43,0.32 -1.09,0.6 -1.49,0.84 -0.17,0.11 -0.34,0.17 -0.51,0.27 -0.18,0.1 -0.34,0.17 -0.51,0.26l-0.52 0.28c-0.2,0.1 -0.88,0.47 -1.09,0.49l0 -5.03 2.02 -1.01c0,0.41 -0.01,0.83 0,1.23 0.01,0.19 0.06,0.34 0.17,0.43 0.12,0.1 0.3,0.15 0.47,0.07 0.35,-0.16 0.26,-0.62 0.26,-0.97 0,-0.41 0,-0.82 0,-1.23l1.92 -0.92zm-5.71 7.43c-0.21,-0.02 -0.87,-0.38 -1.08,-0.48 -0.35,-0.18 -0.68,-0.35 -1.02,-0.54 -0.45,-0.25 -1.03,-0.52 -1.52,-0.81 -0.5,-0.3 -0.97,-0.53 -1.18,-1.17 -0.21,-0.63 -0.15,-2.2 -0.15,-2.96 0,-0.35 0.02,-1.26 0.11,-1.47l4.84 2.4 0 5.03zm-5.85 -5.33c0,0.87 -0.04,2.1 0.31,2.86 0.43,0.97 1.33,1.3 2.13,1.77l2.07 1.08c0.17,0.09 0.34,0.18 0.52,0.27 1.27,0.58 1.85,0.32 2.99,-0.25 0.19,-0.09 0.35,-0.17 0.53,-0.27l1.54 -0.81c0.45,-0.25 1.12,-0.58 1.46,-0.89 0.21,-0.19 0.19,-0.14 0.4,-0.39 0.43,-0.53 0.51,-1.05 0.59,-1.76 0.04,-0.42 0.04,-2.69 0,-3.14 -0.04,-0.48 -0.12,-0.91 -0.28,-1.28 -0.08,-0.18 -0.17,-0.33 -0.29,-0.48 -0.36,-0.44 -0.83,-0.75 -1.35,-1.02l-1.01 -0.54c-0.34,-0.2 -0.71,-0.35 -1.05,-0.54 -0.3,-0.19 -1.26,-0.66 -1.6,-0.75 -0.76,-0.21 -1.19,-0.11 -1.91,0.21l-3.57 1.89c-0.2,0.13 -0.5,0.34 -0.67,0.51 -0.2,0.2 -0.38,0.44 -0.5,0.7 -0.38,0.84 -0.24,1.55 -0.31,2.04 -0.02,0.21 0,0.57 0,0.79z"/>
 </g>
</symbol><symbol fill="currentColor" fill-rule="evenodd" clip-rule="evenodd" viewBox="0 0 1989.42 1985.29" id="ic-phone"><title>phone</title>
 <g id="phone-Camada_x0020_1">
  <metadata id="phone-CorelCorpID_0Corel-Layer"/>
  <g id="phone-_3089371930480">
   <path d="M426.02 864.42c0,41.17 38.13,88.23 60.38,121.6 34.45,51.7 70.76,103.13 110.47,150.1l261.04 260.09c39.62,31.14 108.22,86.16 149.96,110.63 19.84,11.63 33.27,21.21 53.34,33.5 78.95,48.41 83.04,34.83 172.36,-54.47 21.61,-21.63 77.1,-87.9 106.5,-87.9 48.63,0 54.23,14.94 85.83,46.54l124.08 124.08c21.27,21.27 50.66,43.39 50.66,77.54 0,38.36 -28.27,55.15 -48.61,75.48 -45.88,45.89 -77.91,87.24 -143.14,109.15 -91.38,30.71 -133.09,26.09 -233.96,5.34 -36.75,-7.57 -79.63,-19.97 -111.98,-32.8 -151.01,-59.86 -312.95,-153.6 -429.09,-261.61 -9.24,-8.58 -9.4,-9.07 -19.98,-17.25 -36.33,-28.09 -77.78,-76.17 -110.24,-108.98 -160.23,-161.94 -338.25,-430.72 -363.37,-658.21 -6.8,-61.58 -16.35,-101.45 12.68,-174.15 38.02,-95.2 84.9,-115.83 143.71,-174.77 53.46,-53.59 103.35,10.29 122.11,29.05l126.15 126.15c93.85,93.85 53.16,102.75 -82.72,237.81 -16.7,16.62 -36.18,31.59 -36.18,63.08zm-426.02 -194.38c0,238.53 99.54,436.75 212.6,606.33l100.82 134.93c40.91,46.81 129.72,148.88 171.72,183.98 9.94,8.31 12.9,9.03 22.64,18.72 120.05,119.48 331.27,248.35 481.32,308.65 146.31,58.8 199.31,62.64 346.83,62.64 48.5,0 112.05,-19.27 146.21,-35.77 80.48,-38.9 138.52,-104.22 202.35,-169.91 12.87,-13.26 29.15,-38.17 35.6,-55.4 17.87,-47.72 23.3,-87.1 6.3,-137.65 -21.13,-62.87 -47.75,-79.55 -93.69,-125.51 -49.97,-49.95 -97,-96.7 -146.77,-146.89 -48.88,-49.3 -135.14,-71.75 -214.49,-38.58 -70.99,29.68 -115.38,105.69 -158.86,134.8 -38.97,-10.4 -194.76,-142.35 -228.08,-168.96 -26.02,-20.76 -141.35,-139.7 -164.84,-170.18 -25.36,-32.92 -131.37,-159.78 -140.62,-194.4 42.62,-63.64 174.29,-120.39 147.3,-275.51 -6.17,-35.42 -28.46,-75.18 -48.98,-95.79 -29.03,-29.14 -193.71,-198.21 -218.99,-215.28 -82.72,-55.88 -185.08,-47 -248.56,14.68 -100.7,97.83 -209.81,195.92 -209.81,365.1z"/>
   <path d="M930.6 57.9c0,127.47 123.19,31.85 378.16,134.71 297.85,120.14 499.8,374.25 540.8,700 4.72,37.5 4.06,75.06 7.49,116.59 6.76,81.57 132.37,69.44 132.37,-0.02 0,-212.36 -37.13,-338.25 -135.06,-518.41 -73.32,-134.88 -223.03,-281.66 -358.4,-357.14 -158.16,-88.2 -298.84,-133.63 -507.46,-133.63 -25.82,0 -57.9,32.08 -57.9,57.9z"/>
   <path d="M976.1 479.78c0,83.52 68.35,67.62 128.9,77.9 148.87,25.29 276.14,137.79 316.1,279.48 23.52,83.41 6.27,131.68 35.58,162.96 43.03,45.91 115,13.43 115,-44.7 0,-89.05 -14.95,-163.09 -49.61,-231.63 -20.12,-39.79 -43.19,-83.06 -73.49,-116.77 -6.68,-7.43 -9.1,-8.71 -15.78,-17.32 -23.88,-30.78 -22.53,-22.77 -48.28,-46.84 -87.79,-82.1 -225.02,-125.12 -350.52,-125.12 -21.09,0 -57.9,24.66 -57.9,62.04z"/>
  </g>
 </g>
</symbol><symbol fill="currentColor" fill-rule="evenodd" clip-rule="evenodd" viewBox="0 0 6.53 11.97" id="ic-prev"><title>prev</title>
 <g id="prev-Camada_x0020_1">
  <metadata id="prev-CorelCorpID_0Corel-Layer"/>
  <path d="M1.62 6.33l4.43 4.39c0.22,0.21 0.39,0.41 0.43,0.51 0.18,0.44 -0.24,0.87 -0.7,0.7 -0.1,-0.04 -0.44,-0.34 -0.85,-0.74l-4.72 -4.77c-0.57,-0.57 0.15,-1.01 0.49,-1.35l4.73 -4.76c0.16,-0.16 0.35,-0.3 0.54,-0.31 0.41,-0.02 0.72,0.43 0.47,0.82 -0.06,0.09 -0.28,0.3 -0.36,0.37l-4.43 4.44c-0.39,0.38 -0.35,0.39 -0.03,0.7z"/>
 </g>
</symbol><symbol fill="currentColor" fill-rule="evenodd" clip-rule="evenodd" viewBox="0 0 24.45 24.64" id="ic-price-tag"><title>price-tag</title>
 <g id="price-tag-Camada_x0020_1">
  <metadata id="price-tag-CorelCorpID_0Corel-Layer"/>
  <g id="price-tag-_1617966889136">
   <path d="M1.69 9.19c0,-1.22 0.14,-2.54 0.16,-3.81l0.1 -1.21c0.16,-1.14 0.78,-1.88 1.81,-2.15l3.69 -0.28c0.2,-0.01 0.42,0.01 0.63,0.01 0.56,-0.01 0.97,-0.18 1.83,0.07 1.18,0.33 1.98,1.38 2.96,2.37 0.46,0.45 0.87,0.86 1.32,1.32l3.28 3.32c0.24,0.24 0.39,0.45 0.63,0.69 0.73,0.72 2.37,2.3 2.94,2.98 0.73,0.88 1.72,1.25 1.72,3.19 0,1.08 -0.51,1.91 -1.07,2.47 -0.61,0.6 -1.18,1.18 -1.79,1.79 -0.6,0.6 -1.17,1.17 -1.77,1.77 -0.61,0.61 -1.47,1.2 -2.39,1.2 -2.15,0 -2.65,-0.98 -4.29,-2.63l-5.15 -5.25c-0.6,-0.59 -1.15,-1.15 -1.74,-1.74l-1.72 -1.77c-0.59,-0.59 -1.15,-1.46 -1.15,-2.34zm6.72 -9.19l0.36 0c2.31,0.03 2.88,0.58 4.42,2.13l4.57 4.56c0.26,0.27 0.52,0.5 0.77,0.77 1.01,1.1 1.95,2 3,3.06 0.56,0.56 1.87,1.93 2.15,2.4 0.77,1.29 0.77,1.81 0.77,3.19 0,0.81 -0.46,1.75 -0.77,2.29 -0.43,0.72 -3.76,3.91 -4.5,4.64 -0.5,0.51 -1.06,0.98 -1.82,1.24 -0.84,0.28 -1.5,0.45 -2.56,0.32 -1.87,-0.23 -2.73,-1.3 -3.75,-2.33 -2.04,-2.03 -4.01,-4.06 -6.05,-6.1 -0.14,-0.14 -0.26,-0.25 -0.39,-0.39l-2.62 -2.67c-0.57,-0.57 -0.96,-0.94 -1.37,-1.69 -0.33,-0.57 -0.61,-1.44 -0.62,-2.32l0 -0.08 0.11 -2.2c0.01,-0.93 0.06,-2.87 0.27,-3.54 0.26,-0.86 0.56,-1.28 1.16,-1.89 1.31,-1.31 2.85,-1.23 4.8,-1.28 0.28,-0.01 0.4,-0.06 0.74,-0.06 0.24,0 0.49,0.01 0.74,0 0.27,0 0.35,-0.04 0.59,-0.05z"/>
   <path d="M6.97 8.19l-0.26 0c-0.51,0 -1.22,-0.59 -1.22,-1.06 0,-0.56 -0.03,-0.98 0.47,-1.38 0.29,-0.24 0.54,-0.29 0.92,-0.27 1.36,0.08 1.47,1.4 1.19,1.95 -0.06,0.1 -0.2,0.29 -0.27,0.37 -0.15,0.17 -0.52,0.39 -0.83,0.39zm-3.22 -1.48c0,0.5 0.09,0.93 0.26,1.32 0.43,0.95 1.43,1.85 2.49,1.85 1.02,0 1.72,-0.11 2.44,-0.83 0.27,-0.27 0.43,-0.48 0.62,-0.81 0.6,-1.06 0.36,-2.68 -0.57,-3.61 -1.2,-1.2 -3.15,-1.16 -4.3,0 -0.28,0.28 -0.46,0.47 -0.64,0.84 -0.14,0.29 -0.3,0.83 -0.3,1.24z"/>
   <path d="M15.16 19.28c0,0.61 0.39,0.95 0.79,0.95 0.55,0 1.07,-0.68 1.39,-0.99l2.37 -2.38c0.34,-0.34 0.98,-0.91 0.48,-1.56 -0.18,-0.22 -0.52,-0.33 -0.82,-0.27 -0.38,0.08 -0.48,0.28 -0.71,0.51l-3.01 3.01c-0.18,0.18 -0.49,0.41 -0.49,0.73z"/>
  </g>
 </g>
</symbol><symbol fill="currentColor" fill-rule="evenodd" clip-rule="evenodd" viewBox="0 0 1.56 1.56" id="ic-question-circle"><title>question-circle</title>
 <g id="question-circle-Camada_x0020_1">
  <metadata id="question-circle-CorelCorpID_0Corel-Layer"/>
  <path d="M1.42 0.8c0,-0.11 -0.02,-0.2 -0.06,-0.29 -0.08,-0.15 -0.16,-0.23 -0.31,-0.31 -0.16,-0.08 -0.38,-0.08 -0.54,0 -0.15,0.08 -0.23,0.16 -0.31,0.31 -0.08,0.16 -0.08,0.38 0,0.54 0.03,0.05 0.06,0.1 0.09,0.14 0.08,0.08 0.12,0.12 0.22,0.17 0.16,0.08 0.38,0.08 0.54,0 0.01,-0.01 0.03,-0.02 0.05,-0.03 0.12,-0.07 0.16,-0.11 0.23,-0.23 0.05,-0.07 0.09,-0.2 0.09,-0.3zm-0.74 0.28l0 0.01c0,0.08 0.11,0.11 0.15,0.03 0.03,-0.06 -0.02,-0.12 -0.06,-0.12l-0.02 0c-0.03,0 -0.07,0.04 -0.07,0.08zm-0.11 -0.54c0,0.03 0.03,0.06 0.06,0.06 0.05,0 0.04,-0.08 0.14,-0.08 0.07,0 0.12,0.04 0.08,0.11 0,0.01 0,0.01 -0.01,0.01 0,0.01 0,0.01 -0.01,0.01l-0.03 0.03c-0.07,0.05 -0.1,0.1 -0.1,0.19 0,0.05 0.02,0.06 0.06,0.06 0.03,0 0.05,0 0.06,-0.02 0,-0.01 0,-0.05 0,-0.07 0.01,-0.04 0.04,-0.06 0.06,-0.08 0.06,-0.05 0.12,-0.11 0.12,-0.19 0,-0.06 -0.04,-0.1 -0.07,-0.13 -0.13,-0.09 -0.36,-0.03 -0.36,0.1zm0.24 -0.54l-0.05 0c-0.07,0 -0.14,0.01 -0.21,0.03 -0.01,0.01 -0.02,0.01 -0.03,0.01 -0.08,0.03 -0.15,0.07 -0.22,0.12 -0.05,0.05 -0.12,0.11 -0.16,0.17l-0.02 0.03c-0.02,0.03 -0.04,0.06 -0.05,0.09 -0.01,0.03 -0.02,0.04 -0.03,0.07 -0.02,0.08 -0.04,0.15 -0.04,0.23l0 0.05c0,0.07 0.01,0.14 0.03,0.21 0.02,0.07 0.06,0.13 0.09,0.19 0.02,0.03 0.04,0.06 0.06,0.08 0.01,0.01 0.02,0.02 0.03,0.03 0.01,0.01 0.01,0.01 0.02,0.02 0.01,0.01 0.01,0.02 0.02,0.03 0.04,0.03 0.09,0.07 0.14,0.1 0.04,0.02 0.09,0.04 0.13,0.06 0.02,0.01 0.05,0.01 0.07,0.02 0.1,0.02 0.11,0.02 0.21,0.02 0.19,0 0.37,-0.08 0.51,-0.21 0.01,0 0.01,-0.01 0.02,-0.02 0.04,-0.04 0.1,-0.11 0.13,-0.16 0.03,-0.06 0.07,-0.13 0.08,-0.2 0.02,-0.1 0.02,-0.11 0.02,-0.21 0,-0.06 -0.01,-0.12 -0.02,-0.17 -0.02,-0.08 -0.06,-0.16 -0.1,-0.23 -0.01,-0.01 -0.01,-0.02 -0.02,-0.03 -0.01,-0.01 -0.01,-0.02 -0.02,-0.03 -0.01,-0.01 -0.01,-0.01 -0.02,-0.02l-0.05 -0.05c-0.07,-0.08 -0.19,-0.15 -0.29,-0.19 -0.08,-0.02 -0.15,-0.04 -0.23,-0.04z"/>
 </g>
</symbol><symbol fill="currentColor" fill-rule="evenodd" clip-rule="evenodd" viewBox="0 0 2035.14 2034.26" id="ic-remote"><title>remote</title>
 <g id="remote-Camada_x0020_1">
  <metadata id="remote-CorelCorpID_0Corel-Layer"/>
  <g id="remote-_3089371946064">
   <path d="M489.03 1893.14c-74.02,0 -94.4,-1.77 -163.96,-30.4 -98.04,-40.38 -184.83,-159.77 -184.83,-270.48 0,-92.88 22.51,-153.1 72.64,-220.24 18.65,-24.98 54.84,-63.01 77.13,-85.3l455.31 -455.31c4.79,-4.8 8.27,-8.89 13.43,-13.19 34.17,-28.55 63.84,-61.15 106.58,-82.48 91.4,-45.59 188.12,-47.99 281.35,-6.15 41.22,18.49 51.67,28.95 82.21,53.6 16.58,13.39 34.71,34.05 47.17,51.34 86.56,120.04 74.95,265.35 -9.5,382.31 -36,49.87 -246.47,253.09 -293.58,300.2 -72.1,72.09 -142.25,142.24 -214.34,214.35 -67.2,67.19 -95.25,102.87 -180.81,141.37 -21.1,9.49 -59.6,20.38 -88.8,20.38zm-45.26 141.12c113.62,0 210.96,-31.28 300.51,-98.9 23.55,-17.77 46.81,-36.71 67.61,-57.53l497.91 -497.92c47.03,-47.03 75.52,-83.12 109.04,-138.59 23.68,-39.19 55.38,-133.03 55.38,-194.91 0,-87.04 -8.22,-152.98 -45.26,-226.32 -78.71,-155.89 -227.28,-260.93 -426.03,-260.93 -95.91,0 -198.66,41.81 -268.96,95.82 -66.68,51.23 -127.11,117.85 -187.01,177.76 -122.69,122.69 -243.43,243.42 -366.12,366.11 -31.62,31.62 -58.43,59.58 -85.52,95.56 -117.47,155.96 -126.46,352.29 -26.47,518.35 38.33,63.68 96.16,121.41 160.38,159.13 20.66,12.14 39.33,21.49 62.37,30.83 39.29,15.94 96.44,31.54 152.17,31.54z"/>
   <path d="M1194.64 63.9c0,31.67 3.79,52.07 42.51,66.66 34.11,12.84 96.64,9.98 129.09,14.7 63.17,9.17 89.34,17.86 147.92,41.13 167.04,66.32 288.65,201.13 347.2,369.04 26.41,75.75 25.4,109.27 33.14,182.53 0.85,7.89 0.08,14.87 1.08,22.88 3.71,29.57 8.89,47.61 29.18,66.68 25.85,24.27 82.99,16.89 102.48,-21.55 12.97,-25.57 6,-59.55 6.14,-95.05 0.27,-69.19 -33.7,-190.61 -59.32,-254.87 -36.16,-90.72 -88.38,-168.49 -159.65,-234.42l-42.37 -37.52c-36.45,-29.35 -44.82,-39.36 -88.53,-68.57 -65.35,-43.68 -142.56,-74.71 -222.06,-94.79 -62.11,-15.66 -127.54,-20.75 -202.9,-20.75 -42.13,0 -63.91,36.98 -63.91,63.9z"/>
   <path d="M915.06 1014.47c0,-68.08 99.48,-130.71 165.81,-64.63 95.03,94.69 -44.82,232.94 -135.94,135.94 -14.41,-15.33 -29.87,-42.44 -29.87,-71.31zm98.53 242.3c38.7,0 67.73,-7.43 97.41,-19.74 145.08,-60.19 190.08,-264.89 72.33,-381.66 -67.62,-67.07 -168.87,-95.51 -259.42,-53.06 -53.66,25.15 -100.32,59.56 -123.76,115.88 -13.74,33 -19.68,52.94 -23.24,96.75 -2.23,27.51 10,72.15 20.58,98.46 34.45,85.7 122.7,143.37 216.1,143.37z"/>
   <path d="M1189.32 391.41c0,91.2 88.33,71.67 147.55,86.76 30.18,7.68 53.37,18.13 76.97,32.2 15.08,8.99 35.39,22.56 47.72,34.82 6.53,6.49 10.44,7.84 15.95,13.34l47.45 61.71c62.04,103.83 20.47,164.52 69.64,209.95 28.95,26.74 72.96,16.86 91.95,-5.46 53.66,-63.06 -13.85,-224.75 -41.77,-271.05 -7.87,-13.07 -14.67,-25.25 -23.7,-37.54 -8.46,-11.52 -17.57,-23.55 -27.69,-33.55 -10.9,-10.8 -19.75,-19.74 -30.59,-30.65 -7.09,-7.13 -10.4,-8.46 -17.33,-14.63 -57.78,-51.36 -102.36,-76.81 -182.54,-97.04 -30.07,-7.58 -74.72,-15.08 -109.9,-10.29 -32.67,4.44 -63.71,24.7 -63.71,61.43z"/>
  </g>
 </g>
</symbol><symbol fill="currentColor" fill-rule="evenodd" clip-rule="evenodd" viewBox="0 0 6.27 6.28" id="ic-search"><title>search</title>
 <g id="search-Camada_x0020_1">
  <metadata id="search-CorelCorpID_0Corel-Layer"/>
  <path d="M2.69 0.4c0.63,-0.04 1.32,0.22 1.77,0.64 0.35,0.34 0.74,0.93 0.77,1.66 0.02,0.62 -0.18,1.23 -0.58,1.69 -0.08,0.1 -0.09,0.09 -0.14,0.15 -0.03,0.03 -0.05,0.05 -0.08,0.08 -0.06,0.05 -0.1,0.09 -0.17,0.13 -0.11,0.08 -0.24,0.16 -0.36,0.23 -0.22,0.13 -0.67,0.24 -0.96,0.25 -0.57,0.01 -0.99,-0.09 -1.44,-0.38 -0.27,-0.18 -0.43,-0.34 -0.63,-0.58 -0.08,-0.11 -0.16,-0.24 -0.22,-0.38 -0.13,-0.27 -0.24,-0.61 -0.26,-0.95 -0.04,-0.76 0.31,-1.51 0.89,-1.99 0.02,-0.02 0.05,-0.04 0.08,-0.07 0.11,-0.08 0.23,-0.15 0.37,-0.22 0.28,-0.14 0.61,-0.23 0.96,-0.26zm2.27 4.24c0.03,-0.04 0.07,-0.09 0.1,-0.13 0.1,-0.13 0.17,-0.23 0.25,-0.39 0.1,-0.21 0.17,-0.38 0.24,-0.63 0.21,-0.87 -0.02,-1.82 -0.59,-2.49 -0.08,-0.09 -0.23,-0.25 -0.32,-0.33 -0.26,-0.21 -0.48,-0.35 -0.82,-0.49 -0.89,-0.36 -1.97,-0.16 -2.71,0.39 -0.08,0.07 -0.16,0.13 -0.23,0.2 -0.21,0.19 -0.42,0.48 -0.56,0.74 -0.23,0.44 -0.34,0.84 -0.32,1.41 0.03,0.67 0.22,1.12 0.57,1.6 0.04,0.06 0.06,0.07 0.09,0.12 0.14,0.16 0.4,0.39 0.57,0.51 0.8,0.55 1.84,0.63 2.74,0.24 0.23,-0.1 0.35,-0.2 0.53,-0.33 0.13,-0.09 0.14,-0.11 0.28,0.01 0.04,0.03 0.08,0.06 0.11,0.1l0.11 0.11c0.19,0.2 0.45,0.45 0.65,0.65l0.16 0.16c0.02,0.02 0.04,0.04 0.06,0.05 0.06,0.07 0.14,0.18 0.29,0.12 0.1,-0.05 0.15,-0.2 0.08,-0.29 -0.02,-0.03 -0.02,-0.03 -0.05,-0.06 -0.02,-0.02 -0.03,-0.03 -0.05,-0.05 -0.04,-0.04 -0.07,-0.07 -0.11,-0.11l-0.16 -0.16c-0.03,-0.02 -0.03,-0.04 -0.06,-0.06 -0.07,-0.07 -0.14,-0.14 -0.22,-0.21l-0.43 -0.44c-0.06,-0.05 -0.15,-0.15 -0.2,-0.24z"/>
 </g>
</symbol><symbol fill="currentColor" fill-rule="evenodd" clip-rule="evenodd" viewBox="0 0 6.14 6.29" id="ic-services"><title>services</title>
 <g id="services-Camada_x0020_1">
  <metadata id="services-CorelCorpID_0Corel-Layer"/>
  <g id="services-_1617647483632">
   <path d="M0.43 4.02c0.1,-0.02 0.31,-0.21 0.44,-0.07 0.04,0.05 0.62,1.23 0.71,1.4 0.08,0.18 0.17,0.31 -0.05,0.42 -0.05,0.02 -0.14,0.08 -0.2,0.09 -0.01,-0.07 -0.71,-1.43 -0.79,-1.6 -0.03,-0.06 -0.1,-0.17 -0.11,-0.24zm5.71 -0.48l0 0.08c-0.01,0.11 -0.05,0.22 -0.14,0.34 -0.07,0.09 -0.13,0.17 -0.2,0.27 -0.17,0.22 -0.65,0.91 -0.86,1.07 -0.18,0.13 -0.46,0.27 -0.69,0.27l-2.21 0c0,0.24 -0.12,0.39 -0.26,0.48 -0.05,0.03 -0.46,0.24 -0.5,0.24 -0.16,0 -0.17,-0.07 -0.25,-0.24l-0.89 -1.77c-0.06,-0.12 -0.13,-0.23 -0.14,-0.32l0 -0.04c0.01,-0.06 0.04,-0.11 0.13,-0.15 0.19,-0.09 0.42,-0.24 0.61,-0.24 0.11,0 0.14,0.02 0.22,0.05 0.06,0.02 0.09,-0.05 0.14,-0.09l0.27 -0.23c0.2,-0.16 0.47,-0.28 0.73,-0.28 0.33,0 0.48,0.03 0.76,0.2 0.05,0.03 0.08,0.05 0.12,0.08 0.2,0.17 0.17,0.15 0.45,0.15l0.81 0c0.11,0.02 0.22,0.07 0.28,0.13 0.04,0.04 0.07,0.07 0.1,0.11 0.03,0.05 0.03,0.08 0.06,0.13l0.35 -0.37c0.17,-0.21 0.31,-0.36 0.61,-0.36 0.22,0 0.48,0.21 0.5,0.49zm-4.23 1.67l-0.67 -1.34c0.04,-0.05 0.34,-0.31 0.39,-0.35 0.28,-0.21 0.65,-0.24 0.98,-0.07 0.39,0.22 0.2,0.32 0.78,0.32 0.11,0 0.75,-0.01 0.82,0.01 0.16,0.04 0.17,0.25 0.04,0.33 -0.12,0.06 -0.96,-0.01 -1.07,0.03 -0.18,0.06 -0.15,0.35 0.06,0.35l1.08 0c0.26,0 0.43,-0.26 0.59,-0.42 0.03,-0.03 0.04,-0.04 0.06,-0.06l0.44 -0.48c0.05,-0.04 0.08,-0.09 0.14,-0.11 0.13,-0.03 0.27,0.07 0.21,0.24 -0.01,0.03 -0.08,0.12 -0.1,0.15l-0.66 0.88c-0.31,0.41 -0.46,0.52 -1.03,0.52 -0.69,0 -1.38,0 -2.06,0z"/>
   <path d="M2.92 2.38c0.33,-0.02 0.61,0.05 0.8,0.34 0.11,0.17 0.11,0.26 0.13,0.45 0.03,0.19 0.27,0.18 0.33,0.05 0.05,-0.09 -0.03,-0.4 -0.07,-0.49 -0.06,-0.17 -0.16,-0.31 -0.3,-0.42 -0.08,-0.07 -0.16,-0.12 -0.25,-0.17 -0.15,-0.07 -0.28,-0.1 -0.47,-0.1 -0.18,-0.01 -0.36,-0.01 -0.52,0.05 -0.13,0.05 -0.26,0.12 -0.36,0.21 -0.1,0.09 -0.19,0.18 -0.26,0.31 -0.07,0.13 -0.13,0.28 -0.13,0.45 -0.01,0.03 -0.01,0.11 0,0.14 0.03,0.1 0.18,0.15 0.28,0.08 0.07,-0.06 0.05,-0.26 0.12,-0.45 0.03,-0.06 0.07,-0.13 0.11,-0.17l0.07 -0.08c0.02,-0.03 0.05,-0.04 0.08,-0.06 0.12,-0.09 0.26,-0.13 0.44,-0.14zm-0.42 -1.5c-0.02,-0.26 0.17,-0.5 0.44,-0.53 0.29,-0.04 0.52,0.18 0.54,0.44 0.02,0.28 -0.19,0.51 -0.44,0.53 -0.29,0.03 -0.51,-0.19 -0.54,-0.44zm0.39 -0.87c-0.22,0.02 -0.41,0.13 -0.54,0.29 -0.14,0.18 -0.21,0.34 -0.18,0.64 0.04,0.42 0.45,0.78 0.93,0.72 0.32,-0.04 0.59,-0.27 0.69,-0.55 0.09,-0.29 0.02,-0.65 -0.21,-0.87 -0.01,-0.01 -0.03,-0.03 -0.05,-0.05 -0.16,-0.13 -0.36,-0.22 -0.64,-0.18z"/>
  </g>
 </g>
</symbol><symbol fill="currentColor" fill-rule="evenodd" clip-rule="evenodd" viewBox="0 0 12.42 12.42" id="ic-spreadsheet"><title>spreadsheet</title>
 <g id="spreadsheet-Camada_x0020_1">
  <metadata id="spreadsheet-CorelCorpID_0Corel-Layer"/>
  <path d="M4.36 8.97l7.15 0c0.01,0.41 0,0.82 0,1.22 0,0.37 0.05,0.8 -0.15,1.05 -0.23,0.29 -0.49,0.27 -0.95,0.27l-3.63 0c-0.8,0 -1.62,0.02 -2.42,0l0 -2.54zm-0.91 2.54c-0.42,0.01 -0.85,0 -1.27,0 -0.42,0 -0.82,0.04 -1.06,-0.2 -0.25,-0.26 -0.21,-0.65 -0.21,-1.07 0,-0.42 -0.01,-0.85 0,-1.27l2.55 0 -0.01 2.54zm0.91 -7.15l7.15 0 0 3.7 -7.15 0 0 -3.7zm-3.45 0l2.55 0 0 3.7 -2.55 0 0 -3.7zm3.45 -3.45c2.01,-0.02 4.06,0 6.08,0 0.42,0 0.73,0 0.93,0.28 0.19,0.27 0.14,0.68 0.14,1.06 0,0.19 0.01,1.1 0,1.21l-7.15 0 0 -2.55zm-3.44 0.67c-0.02,-0.18 0.12,-0.39 0.21,-0.47 0.1,-0.1 0.27,-0.19 0.46,-0.19 0.06,-0.03 1.8,-0.04 1.87,-0.01 0.01,0.13 0,2.03 0,2.4 0,0.11 0.02,0.13 -0.02,0.15l-2.53 0c-0.01,-0.08 -0.01,-1.54 0,-1.78 0,-0.1 0.01,-0.08 0.01,-0.09 0,-0.01 0,-0.01 0,-0.01zm-0.91 9.34c0.05,0.82 0.74,1.49 1.6,1.5 1.03,0 2.07,0 3.1,0 1.55,0 3.1,0 4.65,0 0.4,0 1.19,0.01 1.55,-0.01 0.82,-0.04 1.5,-0.74 1.51,-1.6 0,-1.03 0,-2.07 0,-3.1l0 -4.65c0,-0.39 0.01,-1.22 -0.01,-1.55 -0.04,-0.83 -0.75,-1.5 -1.61,-1.5l-7.75 0c-0.37,0 -1.24,-0.02 -1.55,0 -0.82,0.05 -1.49,0.75 -1.49,1.61 -0.01,2.57 0,5.17 0,7.75 0,0.36 -0.02,1.25 0,1.55z"/>
 </g>
</symbol><symbol fill="currentColor" fill-rule="evenodd" clip-rule="evenodd" viewBox="0 0 7.28 8.59" id="ic-store"><title>store</title>
 <g id="store-Camada_x0020_1">
  <metadata id="store-CorelCorpID_0Corel-Layer"/>
  <g id="store-_1619509789712">
   <path d="M0.61 7.62l0 -4.17c0,-0.11 0.03,-0.2 0.09,-0.26l1.53 -1.39c0.03,-0.03 0.05,-0.05 0.09,-0.09 0.04,-0.04 0.05,-0.04 0.1,-0.08l0.76 -0.7c0.17,-0.15 0.38,-0.41 0.61,-0.27 0.08,0.05 0.59,0.55 0.68,0.61 0.12,0.1 0.25,0.24 0.38,0.35l1.24 1.13c0.04,0.04 0.06,0.04 0.1,0.08 0.03,0.03 0.05,0.06 0.09,0.09l0.29 0.26c0.06,0.06 0.1,0.15 0.1,0.27l0 4.17c0,0.23 -0.13,0.36 -0.36,0.36l-5.34 0c-0.24,0 -0.36,-0.13 -0.36,-0.36zm-0.61 -4.26l0 4.39c0,0.2 0.13,0.44 0.26,0.58 0.02,0.02 0.09,0.07 0.12,0.09 0.11,0.09 0.3,0.17 0.45,0.17l5.61 0c0.41,0 0.84,-0.43 0.84,-0.84l0 -4.39c0,-0.14 -0.04,-0.24 -0.08,-0.34 -0.12,-0.27 -0.34,-0.39 -0.52,-0.57l-0.34 -0.31c-0.14,-0.11 -0.63,-0.59 -0.79,-0.73l-1.14 -1.02c-0.46,-0.44 -0.9,-0.54 -1.42,-0.12l-1.25 1.13c-0.05,0.04 -0.07,0.07 -0.11,0.12 -0.05,0.04 -0.07,0.05 -0.12,0.09 -0.28,0.25 -0.76,0.72 -1.02,0.93 -0.04,0.03 -0.07,0.06 -0.11,0.1 -0.11,0.11 -0.22,0.2 -0.3,0.37 -0.04,0.1 -0.08,0.21 -0.08,0.35z"/>
   <path d="M2.12 7.03c0,0.21 0.13,0.35 0.27,0.35l2.5 0c0.14,0 0.26,-0.14 0.26,-0.35 0,-0.11 -0.14,-0.26 -0.26,-0.26l-2.5 0c-0.12,0 -0.27,0.15 -0.27,0.26z"/>
  </g>
 </g>
</symbol><symbol fill="currentColor" fill-rule="evenodd" clip-rule="evenodd" viewBox="0 0 626.43 659.83" id="ic-trash"><title>trash</title>
 <g id="trash-Camada_x0020_1">
  <metadata id="trash-CorelCorpID_0Corel-Layer"/>
  <path d="M539.1 145.3c-1.89,25.72 -5.45,52.67 -8.16,78.37 -2.8,26.51 -4.64,53.29 -7.12,79.89 -7.17,76.77 -14.21,164.58 -17.76,242.12 -0.6,13.24 -1.54,26.69 -4.63,39.07 -2.82,11.34 -8.14,22.26 -16.59,26.39 -14.17,6.9 -143.76,3.22 -169.67,3.18 -23.53,-0.02 -159.19,2.34 -171.17,-1.69 -20.52,-6.9 -21.31,-39.4 -23.02,-63.67 -1.89,-26.83 -3.81,-53.86 -5.75,-80.69 -3.87,-53.44 -8.87,-106.79 -13.06,-160.17 -2.13,-27.16 -3.53,-54.3 -5.4,-81.48 -1.94,-28 -5.78,-52.43 -4.47,-81.32l446.8 0zm-291.24 -145.3l130.7 0c13.19,0 23.99,10.8 23.99,23.99l0 0c0,13.19 -10.8,23.99 -23.99,23.99l-130.7 0c-13.19,0 -23.98,-10.8 -23.98,-23.99l0 0c0,-13.19 10.79,-23.99 23.98,-23.99zm304.19 97.58c-49.26,1.67 -98.65,0.89 -147.95,0.89l-296.92 -0.01c-24.2,0 -49.95,-1.11 -73.86,-0.44 -10.61,0.3 -22.43,1.84 -28.63,8.06 -6.58,6.6 -5.67,22.41 -0.8,29.47 5.64,8.18 16.42,7.83 28.7,8.41 12.41,0.57 12.42,11.55 13.34,23.16l26.53 345.96c1.72,22.68 2.91,46.42 6.06,68.61 3.23,22.74 9.56,39.32 21.02,53.54 9.9,12.27 25.83,22.62 49.83,23.87 23.77,1.24 50.54,0.46 74.62,0.51 73.87,0.17 147.91,-1.41 221.65,0.08 22.91,0.46 46.47,0.46 63.72,-10.49 16.09,-10.22 26.29,-23.55 32.46,-42.12 13.01,-39.15 11.34,-91.15 15.15,-133.22 2.09,-23.11 3.64,-46.3 5.22,-69.47 4.61,-67.65 9.7,-139.57 15.89,-207.09 1.01,-11.06 1.8,-22.75 3.57,-33.62 5.52,-33.88 31.02,-7.3 42.62,-31.84 4.6,-9.72 1.38,-23.42 -5.35,-28.04 -12.23,-8.39 -49.92,-6.8 -66.87,-6.22z"/>
 </g>
</symbol><symbol fill="currentColor" fill-rule="evenodd" clip-rule="evenodd" viewBox="0 0 24933.63 13605.94" id="ic-up"><title>up</title>
 <g id="up-Camada_x0020_1">
  <metadata id="up-CorelCorpID_0Corel-Layer"/>
  <path d="M11738.05 3370.05l-9136.67 9229.63c-448.87,453.32 -859.04,811.82 -1070.52,900.71 -914.77,384.8 -1809.37,-507.76 -1449.01,-1450.87 84.44,-221.29 702.19,-932.74 1547.16,-1769.74l9926.27 -9833.32c1187.54,-1195.87 2109.73,312.95 2807.67,1009.59l9931.08 9861.65c327.95,325.72 617.57,726.45 638.12,1130.88 43.34,852.56 -903.85,1495.49 -1708.26,963.29 -187.4,-124.07 -614.42,-573.49 -769.05,-738.3l-9255.74 -9242.23c-783.48,-804.96 -805.52,-723.3 -1461.05,-61.29z"/>
 </g>
</symbol><symbol fill="currentColor" fill-rule="evenodd" clip-rule="evenodd" viewBox="0 0 12.42 11.52" id="ic-upload"><title>upload</title>
 <g id="upload-Camada_x0020_1">
  <metadata id="upload-CorelCorpID_0Corel-Layer"/>
  <path d="M0 7.71l0 1.61c0,1.13 1.04,2.2 2.17,2.2l8.08 0c1.13,0 2.17,-1.07 2.17,-2.2l0 -1.61c0,-0.22 -0.14,-0.4 -0.32,-0.44 -1.01,-0.28 -0.45,1.7 -0.66,2.39 -0.06,0.2 -0.16,0.37 -0.29,0.5 -0.32,0.32 -0.61,0.46 -1.13,0.46l-7.62 0c-0.66,0 -1.22,-0.34 -1.41,-0.94 -0.23,-0.73 0.35,-2.64 -0.64,-2.42 -0.19,0.04 -0.35,0.21 -0.35,0.45zm3.22 -4.75c0,0.34 0.19,0.48 0.51,0.48 0.21,0 0.86,-0.73 1.03,-0.91l1 -0.98 0 6.58c0,0.2 0,0.27 0.09,0.39 0.26,0.31 0.82,0.24 0.81,-0.36l0 -6.61c0.16,0.11 0.52,0.51 0.69,0.67 0.12,0.12 0.22,0.22 0.34,0.34l0.68 0.7c0.38,0.39 0.73,0.23 0.84,-0.06 0.17,-0.43 -0.38,-0.8 -0.79,-1.2l-1.38 -1.39c-0.32,-0.32 -0.5,-0.61 -0.89,-0.61 -0.2,0 -0.64,0.52 -0.79,0.67l-1.84 1.84c-0.13,0.12 -0.3,0.21 -0.3,0.45z"/>
 </g>
</symbol><symbol fill="currentColor" fill-rule="evenodd" clip-rule="evenodd" viewBox="0 0 8.74 11.64" id="ic-user"><title>user</title>
 <g id="user-Camada_x0020_1">
  <metadata id="user-CorelCorpID_0Corel-Layer"/>
  <path d="M7.61 10.22c0.38,0.67 0.4,1.36 0.73,1.41 0.63,0.06 0.35,-0.91 0.21,-1.27 -0.17,-0.46 -0.4,-0.83 -0.66,-1.12 -0.9,-1.03 -2.32,-1.16 -3.6,-1.14 -1.3,0.02 -2.58,0.18 -3.47,1.2 -0.32,0.35 -0.57,0.79 -0.72,1.29 -0.24,0.77 0,1.04 0.23,1.05 0.1,0 0.2,-0.05 0.25,-0.12 0.21,-0.3 0.25,-0.79 0.48,-1.27 0.58,-1.18 2.06,-1.39 3.23,-1.41 1.2,-0.01 2.65,0.19 3.32,1.38zm-3.24 -10.22c1.68,0 3.04,1.36 3.04,3.04 0,1.68 -1.36,3.04 -3.04,3.04 -1.68,0 -3.04,-1.36 -3.04,-3.04 0,-1.68 1.36,-3.04 3.04,-3.04zm0 0.81c1.23,0 2.23,1 2.23,2.23 0,1.23 -1,2.23 -2.23,2.23 -1.24,0 -2.24,-1 -2.24,-2.23 0,-1.23 1,-2.23 2.24,-2.23z"/>
 </g>
</symbol><symbol fill="currentColor" fill-rule="evenodd" clip-rule="evenodd" viewBox="0 0 1.37 1.25" id="ic-warning"><title>warning</title>
 <g id="warning-Camada_x0020_1">
  <metadata id="warning-CorelCorpID_0Corel-Layer"/>
  <g id="warning-_2751233079024">
   <g>
    <path d="M1.13 1.13l-0.89 0c-0.02,0 -0.04,-0.01 -0.05,-0.02 0,0 -0.01,0 -0.01,-0.01 -0.01,0 -0.01,0 -0.02,-0.01 -0.01,-0.02 -0.03,-0.05 -0.03,-0.07 0,-0.04 0,-0.06 0.02,-0.09l0.23 -0.39c0.03,-0.06 0.06,-0.12 0.1,-0.17 0.01,-0.02 0.02,-0.04 0.03,-0.06l0.06 -0.11c0.03,-0.05 0.06,-0.07 0.13,-0.07 0.02,0 0.04,0.01 0.06,0.02 0.03,0.03 0.06,0.09 0.09,0.13l0.08 0.14c0.04,0.08 0.09,0.16 0.13,0.23l0.14 0.25c0.02,0.03 0.04,0.06 0.04,0.09 0,0.03 0,0.04 -0.01,0.07 -0.01,0.02 -0.03,0.04 -0.06,0.05 -0.01,0.01 -0.02,0.02 -0.04,0.02zm-1.13 -0.15l0 0.01c0,0.04 0,0.07 0.02,0.11 0,0.01 0,0.01 0,0.01l0.02 0.03c0.01,0.01 0.01,0.01 0.01,0.02 0.02,0.02 0.05,0.04 0.06,0.06 0.03,0.01 0.07,0.03 0.11,0.03l0.92 0c0.04,0 0.11,-0.03 0.13,-0.04 0.04,-0.04 0.05,-0.05 0.07,-0.1 0.03,-0.05 0.03,-0.07 0.03,-0.12l0 -0.01 0 0 0 0c0,-0.03 -0.01,-0.06 -0.02,-0.08l-0.19 -0.33c-0.02,-0.03 -0.1,-0.16 -0.11,-0.19 -0.01,-0.02 -0.02,-0.03 -0.02,-0.04 -0.03,-0.04 -0.14,-0.24 -0.16,-0.26 -0.03,-0.02 -0.05,-0.05 -0.09,-0.06 -0.04,-0.02 -0.06,-0.02 -0.11,-0.02l0 0c-0.07,0 -0.13,0.04 -0.17,0.08 -0.01,0.01 -0.01,0.01 -0.01,0.02 -0.03,0.03 -0.1,0.17 -0.13,0.21l-0.09 0.16c-0.04,0.07 -0.1,0.17 -0.14,0.23l-0.09 0.17c-0.01,0.01 -0.01,0.02 -0.02,0.03 -0.01,0.02 -0.02,0.06 -0.02,0.08z"/>
    <path d="M0.61 0.45c0,0.02 0,0.04 0,0.06 0,0.01 0,0.03 0,0.05 0,0.01 0,0.02 0,0.03 0.01,0.04 0.01,0.1 0.01,0.14 0.01,0.03 0,0.06 0.02,0.09 0.03,0.03 0.1,0.03 0.1,-0.04 0.01,-0.03 0.01,-0.07 0.01,-0.08l0.01 -0.12c0,0 0,0 0,-0.01 0,-0.04 0,-0.07 0,-0.11 0,-0.07 -0.07,-0.11 -0.13,-0.06l0 0c-0.01,0.02 -0.02,0.03 -0.02,0.05z"/>
    <path d="M0.68 1.03c0.02,0 0.05,-0.02 0.06,-0.03 0.04,-0.04 0.03,-0.1 -0.02,-0.12 -0.07,-0.03 -0.14,0.03 -0.11,0.1 0.01,0.02 0.03,0.04 0.06,0.04 0,0 0.01,0.01 0.01,0.01z"/>
   </g>
  </g>
 </g>
</symbol><symbol fill="currentColor" fill-rule="evenodd" clip-rule="evenodd" viewBox="0 0 7.93 8.46" id="ic-warranty"><title>warranty</title>
 <g id="warranty-Camada_x0020_1">
  <metadata id="warranty-CorelCorpID_0Corel-Layer"/>
  <path d="M1.54 3.35c-0.27,0.09 -0.27,0.45 -0.03,0.56 0.08,0.03 0.81,0.02 0.93,0.02 0.1,0 0.56,0.01 0.62,-0.01 0.22,-0.07 0.31,-0.42 0.03,-0.56 -0.07,-0.04 -0.22,-0.02 -0.3,-0.02 -0.18,0 -1.17,-0.02 -1.25,0.01zm2.1 3.04c-0.09,-0.03 -0.34,-0.32 -0.45,-0.42 -0.24,-0.24 -0.61,-0.01 -0.51,0.3 0.02,0.07 0.11,0.13 0.14,0.17 0.06,0.06 0.11,0.11 0.16,0.16l0.47 0.47c0.06,0.05 0.17,0.08 0.26,0.05 0.07,-0.01 0.14,-0.09 0.19,-0.12l0.15 -0.16c0.11,-0.13 0.92,-0.93 1.03,-1.02 0.35,-0.3 0.14,-0.63 -0.12,-0.61 -0.14,0 -0.2,0.06 -0.3,0.17 -0.03,0.03 -0.05,0.06 -0.08,0.08 -0.1,0.11 -0.2,0.21 -0.31,0.32 -0.22,0.23 -0.4,0.41 -0.63,0.61zm0.43 -6.03c0.02,-0.1 -0.02,-0.21 -0.07,-0.26 -0.07,-0.07 -0.11,-0.1 -0.24,-0.1l-2.04 0c-0.43,0 -0.7,0.05 -1.05,0.31 -0.22,0.17 -0.46,0.42 -0.58,0.77 -0.08,0.22 -0.09,0.36 -0.09,0.6l0 4.75c0,0.49 -0.03,0.79 0.19,1.17 0.16,0.29 0.39,0.52 0.68,0.68 0.4,0.22 0.69,0.18 1.18,0.18 0.9,0 1.81,0 2.72,0 0.49,0 0.73,-0.02 1.08,-0.26 0.25,-0.17 0.49,-0.41 0.63,-0.74 0.16,-0.37 0.12,-0.81 0.12,-1.24 0,-0.18 0.01,-1.27 -0.01,-1.35 -0.03,-0.07 -0.1,-0.15 -0.17,-0.18 -0.08,-0.04 -0.21,-0.03 -0.28,0.02 -0.17,0.13 -0.13,0.28 -0.13,0.54 0,0.45 0,0.91 0,1.36 0,0.42 -0.06,0.74 -0.36,1 -0.33,0.29 -0.68,0.26 -1.1,0.26l-2.72 0c-0.44,0 -0.69,-0.05 -0.99,-0.37 -0.28,-0.3 -0.25,-0.7 -0.25,-1.1l0 -4.08c0,-0.42 -0.05,-0.87 0.15,-1.21 0.16,-0.27 0.42,-0.47 0.84,-0.51 0.22,-0.03 0.45,-0.01 0.68,-0.01l1.35 0c0.21,0 0.28,0.03 0.4,-0.12 0.02,-0.02 0.04,-0.06 0.06,-0.11zm2.23 2.93c-0.09,-0.04 -0.34,-0.25 -0.42,-0.33 -0.27,-0.28 -0.49,-0.66 -0.57,-1.07 -0.02,-0.11 -0.09,-0.76 -0.02,-0.82 0.02,-0.03 0.02,-0.02 0.04,-0.04l0.12 -0.1c0.18,-0.14 0.54,-0.34 0.85,-0.34 0.17,0 0.35,0.06 0.48,0.12 0.13,0.06 0.26,0.16 0.37,0.23 0.21,0.16 0.19,0.1 0.19,0.41 -0.01,0.52 -0.11,0.97 -0.41,1.37 -0.15,0.2 -0.41,0.45 -0.63,0.57zm-0.18 -3.28c-0.27,0.02 -0.47,0.11 -0.68,0.21 -0.19,0.1 -0.62,0.41 -0.74,0.6 -0.05,0.09 -0.03,0.3 -0.03,0.42 0,0.3 -0.01,0.55 0.06,0.84 0.11,0.51 0.43,0.98 0.71,1.3 0.12,0.13 0.5,0.41 0.64,0.48 0.36,0.18 0.61,-0.11 0.91,-0.32 0.02,-0.02 0.03,-0.03 0.05,-0.05 0.46,-0.4 0.83,-1.11 0.88,-1.71 0.01,-0.1 0.02,-0.81 0.01,-0.89 -0.05,-0.24 -0.76,-0.68 -1.02,-0.77 -0.24,-0.09 -0.51,-0.14 -0.79,-0.11zm-4.57 2c-0.25,0.07 -0.31,0.42 -0.04,0.56 0.06,0.03 0.21,0.02 0.29,0.02 0.16,0 1.2,0.01 1.26,-0.01 0.22,-0.06 0.31,-0.41 0.03,-0.56 -0.06,-0.03 -0.21,-0.02 -0.3,-0.02 -0.15,0 -1.18,-0.01 -1.24,0.01z"/>
 </g>
</symbol></svg>