<?xml version="1.0" encoding="UTF-8"?>
<!DOCTYPE svg PUBLIC "-//W3C//DTD SVG 1.1//EN" "http://www.w3.org/Graphics/SVG/1.1/DTD/svg11.dtd">
<!-- Creator: CorelDRAW 2018 (64 Bit Versão de avaliação) -->
<svg xmlns="http://www.w3.org/2000/svg" xml:space="preserve" width="50px" height="50px" version="1.1" shape-rendering="geometricPrecision" text-rendering="geometricPrecision" image-rendering="optimizeQuality" fill-rule="evenodd" clip-rule="evenodd"
viewBox="0 0 6.27 6.27"
 xmlns:xlink="http://www.w3.org/1999/xlink">
 <g id="Camada_x0020_1">
  <metadata id="CorelCorpID_0Corel-Layer"/>
  <g id="_1617452478640">
   <path fill="#373435" d="M0 0.18c0,0.26 0.19,0.24 0.34,0.24 0.18,0 0.36,0 0.53,0l0.19 0.78c0.1,0.48 0.26,1.07 0.37,1.57 0.02,0.09 0.17,0.71 0.18,0.78 -0.18,0.04 -0.27,0.08 -0.38,0.18 -0.32,0.31 -0.2,0.84 0.16,1.01 0.06,0.03 0.17,0.07 0.24,0.07l3.62 0c0.22,0 0.26,-0.39 0.01,-0.42l-3.26 0c-0.17,0 -0.52,0.06 -0.53,-0.2 -0.02,-0.27 0.33,-0.22 0.5,-0.22 0.97,0 1.93,0 2.9,0 0.28,0 0.46,0.03 0.65,-0.08 0.15,-0.09 0.26,-0.23 0.3,-0.42 0.05,-0.17 0.45,-1.64 0.45,-1.75 0,-0.13 0,-0.2 -0.06,-0.33 -0.1,-0.19 -0.31,-0.35 -0.52,-0.35l-1.12 0c-0.14,0 -0.27,0.24 -0.1,0.38 0.06,0.05 0.09,0.04 0.19,0.04l0.92 0c0.4,0 0.24,0.34 0.2,0.48 -0.02,0.09 -0.05,0.19 -0.07,0.28l-0.3 1.13c-0.06,0.25 -0.22,0.2 -0.51,0.2 -0.95,0 -1.9,0 -2.85,0l-0.31 -1.3c-0.02,-0.09 -0.04,-0.17 -0.06,-0.26 -0.02,-0.08 -0.04,-0.18 -0.06,-0.27 -0.02,-0.06 -0.04,-0.21 -0.07,-0.26l1.32 0c0.1,0 0.13,0 0.18,-0.04 0.11,-0.09 0.11,-0.24 0,-0.33 -0.06,-0.05 -0.09,-0.05 -0.19,-0.05l-1.4 0c-0.02,-0.03 -0.02,-0.08 -0.03,-0.13l-0.17 -0.73c-0.03,-0.08 -0.09,-0.18 -0.19,-0.18l-0.89 0c-0.08,0 -0.18,0.1 -0.18,0.18z"/>
   <path fill="#373435" d="M3.55 1.98c-0.06,-0.04 -0.1,-0.1 -0.21,-0.1 -0.12,0 -0.21,0.09 -0.21,0.21 0,0.1 0.06,0.14 0.11,0.19l0.31 0.31c0.1,0.1 0.1,0.13 0.24,0.13 0.1,0 0.27,-0.2 0.33,-0.27 0.11,-0.1 0.27,-0.22 0.27,-0.36 0,-0.12 -0.09,-0.21 -0.21,-0.21 -0.12,0 -0.14,0.07 -0.21,0.12l0 -1.17c-0.01,-0.27 -0.41,-0.27 -0.42,-0.01 -0.01,0.26 0,0.88 0,1.16z"/>
   <path fill="#373435" d="M4.39 5.65c-0.01,-0.03 0.03,-0.13 0.05,-0.15 0.11,-0.12 0.35,-0.07 0.36,0.13 0.02,0.25 -0.37,0.31 -0.41,0.02zm-0.42 -0.06c0,0.13 0,0.2 0.06,0.33 0.06,0.13 0.16,0.22 0.29,0.29 0.23,0.11 0.54,0.07 0.72,-0.12 0.41,-0.4 0.08,-1.08 -0.39,-1.08 -0.2,0 -0.35,0.03 -0.5,0.18 -0.09,0.09 -0.18,0.26 -0.18,0.4z"/>
   <path fill="#373435" d="M2.09 5.65c-0.01,-0.06 0.05,-0.2 0.2,-0.21 0.26,-0.02 0.3,0.39 0.02,0.41 -0.12,0 -0.2,-0.09 -0.22,-0.2zm-0.42 -0.06c0,0.13 0,0.2 0.06,0.33 0.1,0.19 0.31,0.35 0.52,0.35 0.13,0 0.2,0 0.33,-0.06 0.19,-0.1 0.35,-0.31 0.35,-0.52 0,-0.19 -0.03,-0.35 -0.18,-0.5 -0.24,-0.24 -0.66,-0.24 -0.9,0 -0.09,0.09 -0.18,0.26 -0.18,0.4z"/>
  </g>
 </g>
</svg>
