<?xml version="1.0" encoding="UTF-8"?>
<!DOCTYPE svg PUBLIC "-//W3C//DTD SVG 1.1//EN" "http://www.w3.org/Graphics/SVG/1.1/DTD/svg11.dtd">
<!-- Creator: CorelDRAW 2018 (64 Bit Versão de avaliação) -->
<svg xmlns="http://www.w3.org/2000/svg" xml:space="preserve" width="50px" height="50px" version="1.1" shape-rendering="geometricPrecision" text-rendering="geometricPrecision" image-rendering="optimizeQuality" fill-rule="evenodd" clip-rule="evenodd"
viewBox="0 0 6.45 6.45"
 xmlns:xlink="http://www.w3.org/1999/xlink">
 <g id="Camada_x0020_1">
  <metadata id="CorelCorpID_0Corel-Layer"/>
  <path fill="#373435" d="M2.91 0.29l0 2.62 -2.62 0c-0.16,0 -0.29,0.14 -0.29,0.34 0,0.14 0.15,0.29 0.29,0.29l2.62 0 0 2.62c0,0.15 0.14,0.29 0.34,0.29 0.14,0 0.29,-0.15 0.29,-0.29l0 -2.62 2.62 0c0.16,0 0.29,-0.14 0.29,-0.34 0,-0.15 -0.15,-0.29 -0.29,-0.29l-2.62 0 0 -2.62c0,-0.16 -0.14,-0.29 -0.34,-0.29 -0.15,0 -0.29,0.14 -0.29,0.29z"/>
 </g>
</svg>
