<?xml version="1.0" encoding="UTF-8"?>
<!DOCTYPE svg PUBLIC "-//W3C//DTD SVG 1.1//EN" "http://www.w3.org/Graphics/SVG/1.1/DTD/svg11.dtd">
<!-- Creator: CorelDRAW 2018 (64 Bit Versão de avaliação) -->
<svg xmlns="http://www.w3.org/2000/svg" xml:space="preserve" width="50px" height="65px" version="1.1" shape-rendering="geometricPrecision" text-rendering="geometricPrecision" image-rendering="optimizeQuality" fill-rule="evenodd" clip-rule="evenodd"
viewBox="0 0 119.19 154.67"
 xmlns:xlink="http://www.w3.org/1999/xlink">
 <g id="Camada_x0020_1">
  <metadata id="CorelCorpID_0Corel-Layer"/>
  <path fill="#343335" d="M108.22 144.04l-43.2 0c-0.49,-7.11 -0.14,-14.47 -0.09,-21.6 0.04,-6.81 1.84,-16.89 -5.25,-16.86 -3.68,0.01 -4.95,2.27 -5.24,5.73 -0.29,3.52 -0.34,7.21 -0.32,10.76 0.04,7.24 0.41,14.79 -0.11,21.97l-42.87 0c-0.65,-9.51 -0.21,-19.21 -0.23,-28.75 -0.02,-9.08 -1.09,-19.46 0.1,-28.34 1.38,-10.29 9.52,-9.56 19.45,-9.45 9.67,0.1 19.37,0.09 29.04,0.14 9.68,0.05 19.46,0.08 29.13,-0.17 9.63,-0.25 18.42,-0.8 19.58,9.26 0.51,4.4 0.43,9.43 0.5,13.91 0.07,4.88 0.08,9.77 0.03,14.65 -0.1,9.52 -0.05,19.27 -0.52,28.75zm-43.1 -77.41c-0.54,-13.66 -0.21,-27.76 -0.15,-41.46 0.02,-6.9 0.07,-3.45 0.1,-10.35 0.01,-3.12 0.37,-7.06 -0.13,-10.03 -0.52,-3.12 -2.01,-4.76 -5.44,-4.79 -3.51,-0.03 -4.75,1.94 -5.21,5.22 -0.39,2.79 -0.05,16.58 -0.03,20.5 0.06,11.62 0.45,29.96 -0.15,40.95 -1.38,0.21 -23.21,0.07 -25.2,0.07 -9.55,0 -14.39,-0.43 -20.79,4.51 -4.44,3.43 -7.92,9.06 -7.96,17.3 -0.08,16.57 -0.28,33.46 -0.06,50 0.18,13.42 -1.73,16.12 9.03,16.12l100.74 0c4.04,0 7.95,0.14 8.89,-3.73 0.74,-3.03 0.3,-9.01 0.3,-12.38 0,-8.37 0,-16.73 0,-25.1 0.01,-8.36 0.19,-16.94 0,-25.28 -0.16,-6.78 -2.78,-13.28 -8.11,-17.01 -7.25,-5.06 -10.53,-4.43 -20.86,-4.43 -2.94,0 -23.92,0.18 -24.97,-0.11z"/>
 </g>
</svg>
