<?xml version="1.0" encoding="UTF-8"?>
<!DOCTYPE svg PUBLIC "-//W3C//DTD SVG 1.1//EN" "http://www.w3.org/Graphics/SVG/1.1/DTD/svg11.dtd">
<!-- Creator: CorelDRAW 2018 (64 Bit Versão de avaliação) -->
<svg xmlns="http://www.w3.org/2000/svg" xml:space="preserve" width="50px" height="36px" version="1.1" shape-rendering="geometricPrecision" text-rendering="geometricPrecision" image-rendering="optimizeQuality" fill-rule="evenodd" clip-rule="evenodd"
viewBox="0 0 79.35 56.39"
 xmlns:xlink="http://www.w3.org/1999/xlink">
 <g id="Camada_x0020_1">
  <metadata id="CorelCorpID_0Corel-Layer"/>
  <path fill="#363435" d="M24.66 42.42l-13.88 -14.02c-1.86,-1.87 -3.56,-3.36 -4.44,-3.73 -3.79,-1.59 -7.49,2.11 -6,6.01 0.35,0.92 2.86,3.92 6.41,7.34l17.15 16.52c4.92,4.96 8.75,-1.3 11.64,-4.18l41.16 -40.88c1.36,-1.35 2.56,-3.01 2.64,-4.68 0.18,-3.54 -3.74,-6.2 -7.08,-4 -0.77,0.52 -2.54,2.38 -3.18,3.06l-38.36 38.31c-3.25,3.34 -3.34,3 -6.06,0.25z"/>
 </g>
</svg>
