<?xml version="1.0" encoding="UTF-8"?>
<!DOCTYPE svg PUBLIC "-//W3C//DTD SVG 1.1//EN" "http://www.w3.org/Graphics/SVG/1.1/DTD/svg11.dtd">
<!-- Creator: CorelDRAW 2018 (64 Bit Versão de avaliação) -->
<svg xmlns="http://www.w3.org/2000/svg" xml:space="preserve" width="50px" height="50px" version="1.1" shape-rendering="geometricPrecision" text-rendering="geometricPrecision" image-rendering="optimizeQuality" fill-rule="evenodd" clip-rule="evenodd"
viewBox="0 0 12.42 12.42"
 xmlns:xlink="http://www.w3.org/1999/xlink">
 <g id="Camada_x0020_1">
  <metadata id="CorelCorpID_0Corel-Layer"/>
  <g id="_1617983086400">
   <path fill="#373435" d="M0 6.04c0,0.79 0.02,0.92 0.18,1.67 0.11,0.53 0.38,1.14 0.65,1.61 0.23,0.41 0.66,0.97 0.98,1.29 0.08,0.07 0.13,0.1 0.2,0.17 1.07,1 2.56,1.64 4.03,1.64 0.79,0 0.92,-0.02 1.67,-0.17 0.18,-0.04 0.4,-0.11 0.58,-0.18 0.34,-0.11 0.72,-0.3 1.03,-0.47 0.36,-0.21 0.79,-0.53 1.08,-0.81 0.08,-0.07 0.13,-0.1 0.21,-0.18 0.07,-0.08 0.1,-0.12 0.17,-0.2 0.07,-0.08 0.11,-0.11 0.18,-0.2 0.17,-0.2 0.34,-0.41 0.48,-0.64 0.3,-0.5 0.56,-0.96 0.72,-1.54 0.19,-0.69 0.26,-1.05 0.26,-1.84 0,-0.41 -0.56,-0.64 -0.85,-0.25 -0.12,0.16 -0.11,0.69 -0.14,1.02 -0.13,1.18 -0.9,2.52 -1.78,3.23 -0.07,0.05 -0.13,0.11 -0.21,0.18 -0.32,0.26 -0.83,0.56 -1.22,0.71 -0.2,0.08 -0.37,0.14 -0.58,0.2 -1.5,0.44 -3.2,0.13 -4.44,-0.75 -0.27,-0.19 -0.47,-0.37 -0.71,-0.6 -1.5,-1.51 -1.96,-3.69 -1.16,-5.71 0.21,-0.5 0.52,-1.02 0.88,-1.42l0.19 -0.21c0.07,-0.07 0.12,-0.12 0.19,-0.19 0.64,-0.65 1.63,-1.16 2.52,-1.34 0.4,-0.08 0.31,-0.05 0.68,-0.09 0.24,-0.03 0.51,0.01 0.68,-0.11 0.15,-0.1 0.26,-0.29 0.2,-0.51 -0.09,-0.33 -0.33,-0.35 -0.57,-0.35l-0.06 0c-1.09,0 -2.38,0.42 -3.28,1.04 -0.46,0.32 -0.95,0.73 -1.3,1.17 -0.06,0.07 -0.1,0.12 -0.16,0.2 -0.07,0.09 -0.11,0.13 -0.17,0.22 -0.06,0.09 -0.09,0.13 -0.15,0.22 -0.34,0.57 -0.66,1.19 -0.8,1.84 -0.09,0.43 -0.18,0.84 -0.18,1.35z"/>
   <path fill="#373435" d="M5.8 7.28l-1.96 -2.12c-0.35,-0.44 -0.9,-0.14 -0.9,0.25 0,0.25 0.42,0.66 0.61,0.84l0.35 0.38c0.06,0.09 0.1,0.12 0.17,0.19 0.08,0.08 0.1,0.12 0.17,0.2 0.06,0.07 0.12,0.11 0.18,0.18 0.07,0.07 0.1,0.12 0.17,0.19l0.7 0.76c0.17,0.18 0.22,0.29 0.51,0.29 0.27,0 0.63,-0.45 0.88,-0.69l5.2 -5.21c0.23,-0.22 0.32,-0.23 0.32,-0.57 0,-0.19 -0.23,-0.42 -0.43,-0.42 -0.33,0 -0.56,0.33 -0.85,0.62l-3.65 3.65c-0.12,0.12 -1.37,1.39 -1.47,1.46z"/>
  </g>
 </g>
</svg>
