<?xml version="1.0" encoding="UTF-8"?>
<!DOCTYPE svg PUBLIC "-//W3C//DTD SVG 1.1//EN" "http://www.w3.org/Graphics/SVG/1.1/DTD/svg11.dtd">
<!-- Creator: CorelDRAW 2018 (64 Bit Versão de avaliação) -->
<svg xmlns="http://www.w3.org/2000/svg" xml:space="preserve" width="50px" height="50px" version="1.1" shape-rendering="geometricPrecision" text-rendering="geometricPrecision" image-rendering="optimizeQuality" fill-rule="evenodd" clip-rule="evenodd"
viewBox="0 0 15.54 15.57"
 xmlns:xlink="http://www.w3.org/1999/xlink">
 <g id="Camada_x0020_1">
  <metadata id="CorelCorpID_0Corel-Layer"/>
  <path fill="#373435" d="M0.22 1.36l6.37 6.44 -6.4 6.48c-0.27,0.28 -0.26,0.74 0.09,1.1 0.25,0.25 0.76,0.25 1.01,0l6.4 -6.49 6.39 6.48c0.27,0.27 0.74,0.26 1.1,-0.09 0.25,-0.26 0.25,-0.76 0,-1.01l-6.39 -6.47 6.55 -6.51c0.28,-0.28 0.27,-0.75 -0.09,-1.1 -0.25,-0.25 -0.75,-0.25 -1.01,0l-6.55 6.51 -6.38 -6.44c-0.27,-0.28 -0.74,-0.27 -1.09,0.09 -0.26,0.25 -0.26,0.75 0,1.01z"/>
 </g>
</svg>
