<?xml version="1.0" encoding="UTF-8"?>
<!DOCTYPE svg PUBLIC "-//W3C//DTD SVG 1.1//EN" "http://www.w3.org/Graphics/SVG/1.1/DTD/svg11.dtd">
<!-- Creator: CorelDRAW 2018 (64 Bit Versão de avaliação) -->
<svg xmlns="http://www.w3.org/2000/svg" xml:space="preserve" width="50px" height="44px" version="1.1" shape-rendering="geometricPrecision" text-rendering="geometricPrecision" image-rendering="optimizeQuality" fill-rule="evenodd" clip-rule="evenodd"
viewBox="0 0 24.69 21.84"
 xmlns:xlink="http://www.w3.org/1999/xlink">
 <g id="Camada_x0020_1">
  <metadata id="CorelCorpID_0Corel-Layer"/>
  <g id="_1617647493712">
   <path fill="#353334" d="M1.71 14.26l0.96 0 0 5.9 -0.96 0 0 -5.9zm3.39 5.16c-0.14,0 -0.54,0.02 -0.62,0 -0.01,-0.06 -0.02,-0.1 -0.03,-0.16 -0.04,-0.23 -0.03,-1.18 -0.03,-1.43 0,-0.16 0.02,-0.24 0.02,-0.39l0 -1.93c0.34,0 0.82,-0.16 1.04,-0.28 0.56,-0.3 1.43,-1.39 2.56,-1.39 0.83,0 1.37,0.21 2.14,0.4l1.14 0.27c0.41,0.1 1.97,0.45 2.24,0.57 0.24,0.11 0.28,0.35 0.28,0.68 0,0.23 -1.13,-0.02 -1.38,-0.02 -0.54,0 -1.01,0.05 -1.53,-0.02l-0.62 -0.04c-0.46,-0.01 -1.48,-0.1 -1.8,0.13 -0.09,0.07 -0.17,0.15 -0.22,0.25 -0.29,0.51 0.04,1.26 0.72,1.29l1.4 0.07c0.12,0 0.16,0.02 0.29,0.02l0.83 0.04c0.27,0.02 0.52,0 0.86,0.04 0.08,0.01 0.2,0 0.29,0 0.12,0 0.15,0.02 0.27,0.02 0.21,0 0.35,0.02 0.56,0.02 0.65,0 0.29,0.1 1.05,-0.09l1.38 -0.41c0.3,-0.1 0.59,-0.18 0.89,-0.27 0.3,-0.1 0.58,-0.2 0.89,-0.29 0.16,-0.05 0.29,-0.1 0.44,-0.14 0.16,-0.04 0.3,-0.1 0.45,-0.15l1.8 -0.57c0.36,-0.12 2.14,-0.67 2.31,-0.61 0.2,0.08 0.46,0.51 -0.06,0.77 -0.35,0.18 -1.1,0.5 -1.5,0.67 -0.33,0.16 -0.67,0.3 -1,0.45 -0.81,0.36 -1.73,0.75 -2.51,1.12l-1.01 0.44c-0.77,0.38 -1.74,0.76 -2.5,1.12l-1.01 0.45c-0.11,0.05 -0.15,0.01 -0.3,0.01l-1.02 -0.08c-0.19,-0.02 -0.47,-0.05 -0.67,-0.06 -0.21,0 -0.46,-0.04 -0.67,-0.05 -0.22,-0.01 -0.48,-0.03 -0.67,-0.06l-1.35 -0.1c-0.08,0 -0.25,-0.02 -0.34,-0.03 -0.36,-0.05 -1.32,-0.08 -1.69,-0.13 -0.22,-0.03 -0.41,-0.05 -0.64,-0.07 -0.23,-0.02 -0.44,-0.06 -0.68,-0.06zm-0.68 -5.66c-0.03,-0.39 -0.36,-0.79 -0.69,-0.97 -0.47,-0.27 -0.94,-0.33 -1.56,-0.33 -0.52,0 -1.2,0.14 -1.52,0.34 -0.17,0.1 -0.36,0.3 -0.46,0.47 -0.14,0.23 -0.19,0.41 -0.19,0.76l0 6.36c0,0.48 0.1,0.65 0.35,0.97 0.15,0.18 0.53,0.48 0.85,0.48l1.84 0c0.39,0 0.89,-0.21 1.1,-0.56 0.05,-0.08 0.05,-0.1 0.09,-0.17l1.02 0.09c0.67,0.04 1.41,0.14 2.08,0.18 0.49,0.03 1.05,0.11 1.57,0.13 0.15,0.01 0.36,0.04 0.52,0.04 0.95,0 2,0.27 3.14,0.27 0.96,0 1.89,-0.36 2.7,-0.77l4.59 -2.06c0.06,-0.02 0.13,-0.05 0.2,-0.09 0.27,-0.13 0.53,-0.23 0.8,-0.36l0.4 -0.18c0.4,-0.16 0.86,-0.4 1.2,-0.54 0.14,-0.06 0.25,-0.12 0.38,-0.18 0.66,-0.33 1.28,-0.57 1.64,-1.28 0.28,-0.57 0.29,-1.2 0.05,-1.79 -0.3,-0.74 -1.01,-1.31 -1.82,-1.31 -0.64,0 -1.32,0.29 -1.93,0.46 -0.44,0.12 -1.24,0.4 -1.72,0.55l-1.73 0.54c-0.28,0.09 -0.56,0.16 -0.85,0.26l-0.66 0.19c-0.09,0.03 -0.15,0.05 -0.23,0.07 0,-0.31 -0.18,-0.74 -0.35,-0.99 -0.2,-0.3 -0.39,-0.47 -0.69,-0.66 -0.54,-0.36 -1.37,-0.48 -2.02,-0.68 -0.88,-0.26 -2.36,-0.62 -3.28,-0.75 -1.21,-0.17 -2.27,-0.18 -3.33,0.43 -0.12,0.07 -0.25,0.17 -0.38,0.26l-0.85 0.75c-0.06,0.03 -0.19,0.07 -0.26,0.07z"/>
   <path fill="#353334" d="M12.85 4.75l0 -2.97 2.33 0 0 2.85c-0.44,-0.29 -0.51,-0.54 -1.21,-0.54 -0.23,0 -0.48,0.15 -0.63,0.25 -0.13,0.09 -0.31,0.29 -0.49,0.41zm-7.93 -2.91l0 8.86c0,0.7 0.84,1.07 1.37,0.67 0.44,-0.32 0.34,-0.95 0.34,-1.45 0,-0.22 -0.02,-0.36 -0.02,-0.58l0 -5.44c0,-0.59 -0.11,-1.36 0.04,-1.92 0.02,-0.1 0.06,-0.13 0.08,-0.2l4.43 0 0 4.19c0,0.33 0.15,0.61 0.31,0.78 0.47,0.49 1.1,0.45 1.64,0.08 0.27,-0.19 0.39,-0.38 0.75,-0.64 0.04,-0.03 0.07,-0.05 0.1,-0.08 0.04,-0.04 0.05,-0.05 0.09,-0.08 0.2,0.05 1.01,1.08 1.65,1.08 0.39,0 0.63,-0.12 0.91,-0.39 0.24,-0.24 0.33,-0.48 0.33,-0.85l0 -4.09c1.29,0 2.52,-0.04 3.82,-0.04 0.94,0 0.65,0.16 0.66,0.82l0 7.03c0,0.25 0.01,0.57 0,0.8l-0.04 0.74c-0.01,0.14 0.03,0.58 0.07,0.72 0.13,0.51 0.48,0.67 1.01,0.67 0.19,0 0.41,-0.18 0.5,-0.3 0.09,-0.12 0.22,-0.37 0.22,-0.57l0 -9.79c0,-0.38 -0.18,-0.79 -0.38,-1.07 -0.08,-0.11 -0.15,-0.17 -0.24,-0.26 -0.17,-0.17 -0.36,-0.3 -0.6,-0.4 -0.24,-0.1 -0.5,-0.13 -0.85,-0.13l-14.11 0c-0.58,0 -1.05,0.13 -1.45,0.51 -0.3,0.28 -0.63,0.76 -0.63,1.33z"/>
   <path fill="#353334" d="M16.34 11.34c0,0.23 0.01,0.42 0.2,0.61 0.12,0.12 0.27,0.19 0.42,0.24 0.28,0.09 0.93,0.15 1.19,0.11 0.67,-0.1 1.15,0.16 1.59,-0.39 0.24,-0.29 0.27,-0.79 -0.03,-1.09 -0.14,-0.13 -0.23,-0.2 -0.44,-0.26 -0.22,-0.06 -0.36,-0.05 -0.64,-0.05 -0.12,-0.01 -0.19,-0.03 -0.33,-0.02 -0.64,0 -1.45,-0.09 -1.83,0.44 -0.06,0.09 -0.13,0.26 -0.13,0.41z"/>
  </g>
 </g>
</svg>
