<?xml version="1.0" encoding="UTF-8"?>
<!DOCTYPE svg PUBLIC "-//W3C//DTD SVG 1.1//EN" "http://www.w3.org/Graphics/SVG/1.1/DTD/svg11.dtd">
<!-- Creator: CorelDRAW 2018 (64 Bit Versão de avaliação) -->
<svg xmlns="http://www.w3.org/2000/svg" xml:space="preserve" width="176389px" height="208139px" version="1.1" shape-rendering="geometricPrecision" text-rendering="geometricPrecision" image-rendering="optimizeQuality" fill-rule="evenodd" clip-rule="evenodd"
viewBox="0 0 382455.71 454145.09"
 xmlns:xlink="http://www.w3.org/1999/xlink">
 <g id="Camada_x0020_1">
  <metadata id="CorelCorpID_0Corel-Layer"/>
  <path fill="#2F2F32" d="M30348.78 142937.83c0,-16627.89 -1335.4,-36120.27 3385.73,-51146.63 8132.06,-25948.9 28704.73,-48001.84 53475.71,-56618.93 17186.93,-5971.49 30659.01,-4854.99 49641.16,-4854.99l110108.81 0c19103.42,0 32358.17,-1020.44 49288.42,5231.36 24226.11,8932.04 44568.86,30499.95 52603.29,56765.38 4574.68,14952.34 3204.64,35427.38 3204.64,52019.05 0,81622.97 59.84,172129.16 0,186305.15 -97.64,19966.39 -1044.07,31096.79 -10487.91,48428.6 -7402.94,13557.11 -19163.25,25389.86 -32139.28,33096.74 -17476.69,10390.27 -29857.45,11664.25 -53354.45,11664.25l-130437.38 0c-23109.61,0 -35986.42,-1505.47 -53100.92,-11930.39 -13155.54,-8023.4 -24273.35,-19286.08 -31932.98,-33292 -9029.68,-16506.64 -10109.96,-27892.15 -10231.22,-46461.73 -97.64,-15158.64 -23.62,-107352.97 -23.62,-189205.86zm74375.92 164215.99l173015.75 0c8240.72,0 14975.97,6735.25 14975.97,14977.55l0 11.02c0,8242.3 -6735.25,14977.55 -14975.97,14977.55l-173015.75 0c-8240.72,0 -14977.54,-6735.25 -14977.54,-14977.55l0 -11.02c0,-8242.3 6736.82,-14977.55 14977.54,-14977.55zm0 -74790.08l173015.75 0c8240.72,0 14975.97,6736.82 14975.97,14977.54l0 12.6c0,8240.72 -6735.25,14977.55 -14975.97,14977.55l-173015.75 0c-8240.72,0 -14977.54,-6736.83 -14977.54,-14977.55l0 -12.6c0,-8240.72 6736.82,-14977.54 14977.54,-14977.54zm0 -115338.59l43548.42 0c8240.72,0 14977.54,6735.25 14977.54,14977.55l0 11.02c0,8242.3 -6736.82,14977.55 -14977.54,14977.55l-43548.42 0c-8240.72,0 -14977.54,-6735.25 -14977.54,-14977.55l0 -11.02c0,-8242.3 6736.82,-14977.55 14977.54,-14977.55zm277006.62 -11530.39c-1433.03,-15815.32 -5499.06,-29019.68 -11906.76,-41145.33 -17393.23,-32964.46 -52578.1,-62130.59 -94876.16,-63998.26 -16931.82,-741.71 -35428.95,-74.01 -52529.27,-74.01l-105908.92 0c-43305.91,-36.22 -79789.95,23097.01 -100738.99,58125.97 -17270.39,28873.23 -15413.75,52784.39 -15413.75,90142.42 0,53003.28 0,94948.59 0,147951.87 0,16627.9 -982.65,36507.67 314.95,52748.17 4223.51,52833.2 52590.69,102183.04 106746.7,104548.33 16955.44,741.71 35452.57,74.01 52578.09,74.01l105896.32 0c17199.53,11.03 30586.57,-2124.35 44543.67,-8495.83 24262.33,-11081.59 43912.19,-29057.47 56207.92,-49630.14 17185.35,-28715.75 15413.75,-52978.08 15413.75,-90129.83 0,-53015.87 0,-94948.59 0,-147964.46 0,-16130.27 1080.28,-36628.92 -327.55,-52152.91z"/>
 </g>
</svg>
