<?xml version="1.0" encoding="UTF-8"?>
<!DOCTYPE svg PUBLIC "-//W3C//DTD SVG 1.1//EN" "http://www.w3.org/Graphics/SVG/1.1/DTD/svg11.dtd">
<!-- Creator: CorelDRAW 2018 (64 Bit Versão de avaliação) -->
<svg xmlns="http://www.w3.org/2000/svg" xml:space="preserve" width="50px" height="50px" version="1.1" shape-rendering="geometricPrecision" text-rendering="geometricPrecision" image-rendering="optimizeQuality" fill-rule="evenodd" clip-rule="evenodd"
viewBox="0 0 1955.45 1956.31"
 xmlns:xlink="http://www.w3.org/1999/xlink">
 <g id="Camada_x0020_1">
  <metadata id="CorelCorpID_0Corel-Layer"/>
  <path fill="#363435" d="M391.12 3.83c-168.57,22.22 -283.91,131.14 -343.29,244.87 -44.76,85.74 -47.35,137.27 -47.35,243.79l0 880.89c0,195.83 -13.19,264.7 99.83,413.79 17.54,23.15 23.31,24.57 36.01,38.12 7.73,8.25 8.62,10.51 17.5,17.38 26.68,20.69 26.08,24.01 63.49,47.7 126.11,79.92 224.96,64.69 375.25,64.69 48.71,0 97.4,0 146.09,0 52.27,0 95.7,9.65 120.69,-24.87 27.19,-37.56 9.5,-82.56 -23.04,-98.42 -21.49,-10.47 -113.26,-5.76 -143.44,-5.37 -89.71,1.22 -199.89,6.57 -287.45,-4.62 -37.6,-4.81 -80.18,-20 -108.79,-36.88 -64.4,-38.04 -109.58,-82.51 -139.97,-154.46 -36.48,-86.43 -27.37,-174.68 -27.37,-267.96l0 -734.8c0,-173.93 -19.68,-333.58 144.74,-442.89 70.84,-47.08 140.41,-54.92 237.87,-54.92l588.72 0c101.26,0 165.17,7.68 239.24,55.73 54.34,35.26 102.69,87.32 128.49,163.84 14.73,43.62 9.65,86.09 20.95,125.13 10.59,36.53 57.72,55.43 96.3,31.99 34.84,-21.17 31.83,-62.33 26.62,-114.02 -9.34,-92.4 -48.61,-160.04 -101.5,-227.26 -60.46,-76.86 -150.39,-131.51 -248.55,-154.7 -62.35,-14.72 -214,-9.53 -285.84,-9.53 -61.24,0 -536.3,-3.67 -585.2,2.78zm62.14 1171.13c2.4,18.85 24.67,39.6 39.04,45.8 14.7,6.32 60.98,3.45 80.64,3.45l340.15 0c35.74,0 44.81,3.71 66.34,-17.77 16.37,-16.36 23.83,-28.69 19.49,-61.15 -2.47,-18.46 -23.63,-39.57 -38.32,-46.18 -14.6,-6.58 -60.81,-3.67 -80.21,-3.67l-340.15 0c-33.41,0 -47.07,-1.51 -67.13,16.74 -15.61,14.22 -23.72,32.55 -19.85,62.78zm45.8 219.58c-41.34,12.15 -66.44,69.91 -29.71,106.42 22.11,21.99 25.13,21.1 64.35,21.08 57.79,-0.01 408.01,2.51 421.74,-1.72 37.79,-11.67 64.02,-65.12 27.9,-105.96 -17.31,-19.57 -29.6,-21.14 -63.71,-21.13 -57.09,0.04 -407.84,-2.43 -420.57,1.31zm-1.45 -591.61c-36.25,10.27 -66.07,64.7 -28.58,107.51 15.51,17.7 33,19.9 64.67,19.89 57.63,-0.02 407.64,2.54 421.11,-1.4 33.37,-9.78 66.45,-60.5 29.27,-106.25 -19.44,-23.94 -42.02,-21.17 -64.45,-21.17 -58.4,0.04 -407.81,-2.6 -422.02,1.42zm1.85 -297.78c-22.96,6.01 -45.89,28.74 -46.65,57.01 -0.54,20.21 0.18,29.24 10.37,42.28 6.1,7.8 17.22,19.3 27.88,24.38 16.28,7.78 363.76,3.83 411.13,3.83 31.56,0 190.81,3.61 208.17,-1.78 50.83,-15.81 64.41,-94.01 5.38,-123.03 -16.51,-8.13 -362.49,-4.01 -409.79,-4.01 -27.11,0 -194.24,-1.89 -206.49,1.32zm971.29 1095.84c128.18,-7.78 233.32,19.74 305.07,128.59 42.66,64.72 40.54,100.16 49.83,168.77 10.25,75.61 102.52,68.38 124.6,21.68 17.19,-36.34 -12.7,-152.5 -25.64,-186.71 -23.94,-63.19 -63.2,-116.98 -113.26,-159.32 -30.47,-25.78 -60.7,-46.95 -98.33,-65.03 -56.57,-27.16 -105.62,-37.67 -176.31,-38.71 -69.09,-1.01 -135.96,-3.43 -197.48,19.64 -49.09,18.41 -100.52,46.68 -138.31,79.79 -37.19,32.61 -70.11,67.76 -98.33,119.62 -25.53,46.91 -46.96,104.35 -49.95,168.1 -0.57,12.27 -1.87,43.03 1.17,53.43 11.66,39.96 68.07,59.16 105.54,31.46 28.95,-21.39 19.96,-100.75 47.98,-170.01 10.2,-25.18 27.21,-50.72 41.49,-67.52l26.37 -28.18c8.6,-10.01 18.56,-16.84 29.7,-24.83 44.47,-31.86 99.17,-46.73 165.86,-50.77zm-157.19 -569.93c-10.03,-98.97 61.61,-191.28 166.35,-202.98 109.25,-12.19 196.43,70.27 204.7,168.43 9.06,107.62 -71.22,193.36 -168.27,201.76 -107.32,9.29 -193.15,-72.34 -202.78,-167.21zm147.79 -331.88c-82.51,9.76 -155.52,48.81 -205.58,111.98 -52.82,66.68 -79.95,128.44 -69.72,241.16 14.41,158.9 170.6,298.57 352.29,274.71 122.74,-16.12 226.81,-104.55 262.2,-210.86 35.87,-107.79 8.98,-245.18 -76.68,-326.78 -6.24,-5.95 -14.13,-13.68 -21.66,-19.73 -60.6,-48.81 -134.93,-83 -240.85,-70.48z"/>
 </g>
</svg>
