<?xml version="1.0" encoding="UTF-8"?>
<!DOCTYPE svg PUBLIC "-//W3C//DTD SVG 1.1//EN" "http://www.w3.org/Graphics/SVG/1.1/DTD/svg11.dtd">
<!-- Creator: CorelDRAW 2018 (64 Bit Versão de avaliação) -->
<svg xmlns="http://www.w3.org/2000/svg" xml:space="preserve" width="50px" height="46px" version="1.1" shape-rendering="geometricPrecision" text-rendering="geometricPrecision" image-rendering="optimizeQuality" fill-rule="evenodd" clip-rule="evenodd"
viewBox="0 0 8.37 7.76"
 xmlns:xlink="http://www.w3.org/1999/xlink">
 <g id="Camada_x0020_1">
  <metadata id="CorelCorpID_0Corel-Layer"/>
  <path fill="#373435" d="M0 5.19l0 1.09c0,0.76 0.7,1.48 1.46,1.48l5.44 0c0.77,0 1.47,-0.72 1.47,-1.48l0 -1.09c0,-0.14 -0.1,-0.26 -0.22,-0.3 -0.68,-0.18 -0.3,1.15 -0.44,1.62 -0.05,0.13 -0.11,0.24 -0.2,0.33 -0.22,0.22 -0.41,0.31 -0.76,0.31l-5.13 0c-0.44,0 -0.82,-0.23 -0.95,-0.63 -0.16,-0.49 0.23,-1.78 -0.44,-1.63 -0.12,0.03 -0.23,0.14 -0.23,0.3zm2.17 -1.33c0,-0.23 0.13,-0.32 0.34,-0.32 0.14,0 0.58,0.49 0.7,0.61l0.67 0.66 0 -4.43c0,-0.13 0,-0.18 0.06,-0.26 0.17,-0.21 0.55,-0.16 0.55,0.24l0 4.45c0.11,-0.07 0.35,-0.34 0.46,-0.45 0.08,-0.08 0.15,-0.14 0.23,-0.23l0.46 -0.47c0.26,-0.26 0.49,-0.15 0.57,0.05 0.11,0.28 -0.26,0.53 -0.54,0.8l-0.93 0.94c-0.22,0.21 -0.34,0.41 -0.59,0.41 -0.14,0 -0.44,-0.35 -0.54,-0.45l-1.24 -1.24c-0.08,-0.08 -0.2,-0.14 -0.2,-0.31z"/>
 </g>
</svg>
