<?xml version="1.0" encoding="UTF-8"?>
<!DOCTYPE svg PUBLIC "-//W3C//DTD SVG 1.1//EN" "http://www.w3.org/Graphics/SVG/1.1/DTD/svg11.dtd">
<!-- Creator: CorelDRAW 2018 (64 Bit Versão de avaliação) -->
<svg xmlns="http://www.w3.org/2000/svg" xml:space="preserve" width="50px" height="27px" version="1.1" shape-rendering="geometricPrecision" text-rendering="geometricPrecision" image-rendering="optimizeQuality" fill-rule="evenodd" clip-rule="evenodd"
viewBox="0 0 5.25 2.87"
 xmlns:xlink="http://www.w3.org/1999/xlink">
 <g id="Camada_x0020_1">
  <metadata id="CorelCorpID_0Corel-Layer"/>
  <path fill="#363435" d="M2.47 2.16l-1.92 -1.95c-0.1,-0.09 -0.18,-0.17 -0.23,-0.19 -0.19,-0.08 -0.38,0.11 -0.3,0.31 0.02,0.04 0.15,0.19 0.32,0.37l2.09 2.07c0.26,0.26 0.45,-0.06 0.6,-0.21l2.09 -2.08c0.07,-0.07 0.13,-0.15 0.13,-0.24 0.01,-0.18 -0.19,-0.31 -0.36,-0.2 -0.04,0.03 -0.13,0.12 -0.16,0.16l-1.95 1.94c-0.16,0.17 -0.17,0.16 -0.31,0.02z"/>
 </g>
</svg>
