<?xml version="1.0" encoding="UTF-8"?>
<!DOCTYPE svg PUBLIC "-//W3C//DTD SVG 1.1//EN" "http://www.w3.org/Graphics/SVG/1.1/DTD/svg11.dtd">
<!-- Creator: CorelDRAW 2018 (64 Bit Versão de avaliação) -->
<svg xmlns="http://www.w3.org/2000/svg" xml:space="preserve" width="194px" height="194px" version="1.1" shape-rendering="geometricPrecision" text-rendering="geometricPrecision" image-rendering="optimizeQuality" fill-rule="evenodd" clip-rule="evenodd"
viewBox="0 0 98.23 98.23"
 xmlns:xlink="http://www.w3.org/1999/xlink">
 <g id="Camada_x0020_1">
  <metadata id="CorelCorpID_0Corel-Layer"/>
  <path fill="#373435" d="M7.19 90.79c0,-11.24 -0.9,-19.66 5.43,-28.11l9.8 -10.01c4.48,-4.52 8.82,-8.85 13.27,-13.39l9.97 -9.84c0.96,-1.25 1.69,-2.97 2.9,-3.65 2.76,1.61 2.18,2.08 4.56,3.99l18.67 18.54c-0.52,3.04 -6.25,7.91 -8.58,10.23l-21.75 21.65c-1.06,0.84 -2.04,2.06 -3.11,3.01 -1.08,0.95 -2.06,1.91 -3.32,2.82 -8.03,5.82 -17.73,5.31 -27.84,4.76zm47.79 -69.44c2.93,-5.29 2.81,-3.77 5.54,-7 0.67,-0.79 1.03,-0.93 1.71,-1.59 0.64,-0.61 0.82,-0.92 1.54,-1.53 11,-9.16 25.16,-1.69 27.08,9.13 0.64,3.61 -0.04,7.48 -1.4,10.42 -1.06,2.31 -2.57,3.91 -4.04,5.63 -0.5,0.59 -1.02,0.95 -1.57,1.5 -1.58,1.61 -4.27,4.78 -7.14,5.48 -1.47,-1.79 -3.71,-3.84 -5.42,-5.59l-10.85 -11.09c-1.77,-1.82 -3.65,-3.51 -5.45,-5.36zm43.12 3.85c1.14,-10.32 -5.33,-19.03 -13.46,-22.94 -9.7,-4.67 -20.49,-1.72 -27.34,5.33 -4.09,4.21 -8.05,8.19 -12.22,12.31 -2.1,2.1 -4.04,4.02 -6.17,6.09 -1.06,1.03 -1.92,2.12 -2.98,3.16 -4.99,4.87 -10.88,10.32 -15.49,15.16l-9.1 9.3c-1.11,0.96 -1.97,2.22 -2.92,3.21 -3.34,3.5 -6.85,9.81 -7.88,16.41 -0.49,3.11 -1.05,21.54 0.32,23.43 1.06,1.47 2.44,1.4 4.71,1.4 14.06,0 23.45,1.98 35.3,-7.62 4.59,-3.72 8.44,-8.03 12.46,-12.05 8.24,-8.24 16.28,-16.32 24.53,-24.53l9.25 -9.15c5.56,-5.73 9.88,-9.37 10.99,-19.51z"/>
 </g>
</svg>
