<?xml version="1.0" encoding="UTF-8"?>
<!DOCTYPE svg PUBLIC "-//W3C//DTD SVG 1.1//EN" "http://www.w3.org/Graphics/SVG/1.1/DTD/svg11.dtd">
<!-- Creator: CorelDRAW 2018 (64 Bit Versão de avaliação) -->
<svg xmlns="http://www.w3.org/2000/svg" xml:space="preserve" width="50px" height="40px" version="1.1" shape-rendering="geometricPrecision" text-rendering="geometricPrecision" image-rendering="optimizeQuality" fill-rule="evenodd" clip-rule="evenodd"
viewBox="0 0 24.69 19.9"
 xmlns:xlink="http://www.w3.org/1999/xlink">
 <g id="Camada_x0020_1">
  <metadata id="CorelCorpID_0Corel-Layer"/>
  <path fill="#373435" d="M1.56 13.8c0,-1.49 -0.1,-7.94 0.12,-8.99 0.12,-0.56 0.35,-0.87 0.4,-1.11 0.25,0.06 2.09,2.01 2.31,2.23 1.3,1.3 3.32,3.4 4.61,4.55 1.77,1.59 4.78,1.63 6.66,0.03 1.03,-0.88 3.67,-3.62 4.62,-4.56 0.22,-0.22 2.08,-2.19 2.33,-2.25 0.11,0.47 0.52,0.74 0.52,2.45l0 7.65c0,1.57 -0.49,2.81 -1.71,3.71 -0.68,0.5 -1.58,0.77 -2.51,0.77l-13.13 0c-1.78,0 -3.26,-0.96 -3.91,-2.59 -0.22,-0.53 -0.31,-1.13 -0.31,-1.89zm1.67 -11.4c0.18,-0.05 0.08,-0.04 0.23,-0.14 0.61,-0.4 1.46,-0.65 2.22,-0.65l13.33 0c0.78,0 1.56,0.24 2.19,0.63 0.15,0.1 0.07,0.11 0.26,0.16 -0.06,0.24 -1.83,1.9 -2.04,2.12l-4.22 4.22c-0.79,0.79 -1.6,1.37 -2.86,1.37 -1.22,0 -2.05,-0.57 -2.82,-1.35l-6.04 -6.04c-0.31,-0.3 -0.17,-0.18 -0.25,-0.32zm-3.23 2.91l0 9.27c0,1.11 0.56,2.28 1.15,3.07 0.39,0.52 0.92,1.01 1.47,1.35 1.03,0.62 1.99,0.9 3.32,0.9l12.81 0c1.35,0 2.29,-0.28 3.32,-0.9 1.45,-0.88 2.62,-2.76 2.62,-4.42l0 -9.27c0,-1.45 -0.73,-2.49 -1.46,-3.43l-0.73 -0.68c-1.15,-0.82 -2.19,-1.2 -3.75,-1.2l-12.81 0c-1.33,0 -2.29,0.28 -3.32,0.9 -0.83,0.5 -1.58,1.34 -2.01,2.21 -0.28,0.56 -0.61,1.4 -0.61,2.2z"/>
 </g>
</svg>
