<?xml version="1.0" encoding="UTF-8"?>
<!DOCTYPE svg PUBLIC "-//W3C//DTD SVG 1.1//EN" "http://www.w3.org/Graphics/SVG/1.1/DTD/svg11.dtd">
<!-- Creator: CorelDRAW 2018 (64 Bit Versão de avaliação) -->
<svg xmlns="http://www.w3.org/2000/svg" xml:space="preserve" width="50px" height="50px" version="1.1" shape-rendering="geometricPrecision" text-rendering="geometricPrecision" image-rendering="optimizeQuality" fill-rule="evenodd" clip-rule="evenodd"
viewBox="0 0 25.32 25.32"
 xmlns:xlink="http://www.w3.org/1999/xlink">
 <g id="Camada_x0020_1">
  <metadata id="CorelCorpID_0Corel-Layer"/>
  <g id="_1617512552352">
   <path fill="#373435" d="M16.37 23.14l0 -18.94c0,-0.5 0.81,-0.62 1.48,-0.84l5.34 -1.78c0.32,0 0.55,0.27 0.55,0.65l0 18.84c0,0.58 -0.9,0.7 -1.67,0.95l-5.01 1.67c-0.37,0.09 -0.69,-0.1 -0.69,-0.55zm0.55 2.18l-0.19 0c-0.52,-0.02 -1.01,-0.22 -1.46,-0.73 -0.61,-0.68 -0.53,-1.5 -0.53,-2.44l-3.56 0c-1.5,0 -2.77,-1.33 -2.77,-3.16 0,-0.85 -0.2,-2.13 0.84,-2.13 1.04,0 0.79,1.47 0.79,2.18 -0.01,0.91 0.42,1.53 1.43,1.53l3.27 0 0 -16.17c0,-2.48 2.57,-2.34 3.26,-2.82 -2.09,0 -4.19,0.01 -6.28,0 -2.32,-0.01 -1.51,1.89 -1.69,3.01 -0.1,0.59 -0.82,1.03 -1.42,0.39 -0.31,-0.33 -0.2,-1.19 -0.2,-1.82 0,-1.35 0.55,-2.28 1.59,-2.85 0.3,-0.15 0.75,-0.31 1.18,-0.31l12.16 0c0.68,0 1.48,0.54 1.78,1.19 0.09,0.18 0.2,0.52 0.2,0.79l0 19.28c0,0.81 -0.7,1.57 -1.31,1.81 -0.75,0.3 -3.73,1.25 -4.59,1.54 -0.88,0.29 -1.72,0.68 -2.5,0.71z"/>
   <path fill="#373435" d="M8.85 10.29c-0.43,0 -8.05,-0.05 -8.29,0.02 -0.35,0.09 -0.54,0.4 -0.56,0.73l0 0.09c0.02,0.3 0.19,0.59 0.53,0.71 0.27,0.09 3.1,0.03 3.52,0.03 1.6,0 3.2,0 4.8,0l-1.87 1.89c-0.23,0.24 -0.78,0.68 -0.88,1 -0.17,0.55 0.11,1.06 0.87,1.06 0.34,0 0.95,-0.72 1.28,-1.05l2.94 -2.94c0.56,-0.56 0.63,-0.88 0.02,-1.48l-3.53 -3.54c-0.34,-0.34 -0.38,-0.48 -0.86,-0.48 -0.54,0 -0.87,0.51 -0.73,1.03 0.14,0.51 2.36,2.32 2.76,2.93z"/>
  </g>
 </g>
</svg>
