<?xml version="1.0" encoding="UTF-8"?>
<!DOCTYPE svg PUBLIC "-//W3C//DTD SVG 1.1//EN" "http://www.w3.org/Graphics/SVG/1.1/DTD/svg11.dtd">
<!-- Creator: CorelDRAW 2018 (64 Bit Versão de avaliação) -->
<svg xmlns="http://www.w3.org/2000/svg" xml:space="preserve" width="50px" height="59px" version="1.1" shape-rendering="geometricPrecision" text-rendering="geometricPrecision" image-rendering="optimizeQuality" fill-rule="evenodd" clip-rule="evenodd"
viewBox="0 0 11.03 13.1"
 xmlns:xlink="http://www.w3.org/1999/xlink">
 <g id="Camada_x0020_1">
  <metadata id="CorelCorpID_0Corel-Layer"/>
  <path fill="#2F2F32" d="M0.88 4.12c0,-0.48 -0.04,-1.04 0.09,-1.47 0.24,-0.75 0.83,-1.39 1.55,-1.64 0.49,-0.17 0.88,-0.14 1.43,-0.14l3.17 0c0.55,0 0.94,-0.02 1.43,0.16 0.69,0.25 1.28,0.88 1.51,1.63 0.13,0.43 0.09,1.02 0.09,1.5 0,2.36 0.01,4.97 0,5.38 0,0.57 -0.03,0.89 -0.3,1.39 -0.21,0.39 -0.55,0.74 -0.92,0.96 -0.51,0.3 -0.87,0.33 -1.54,0.33l-3.77 0c-0.66,0 -1.03,-0.04 -1.53,-0.34 -0.38,-0.23 -0.7,-0.56 -0.92,-0.96 -0.26,-0.48 -0.29,-0.8 -0.29,-1.34 -0.01,-0.44 0,-3.1 0,-5.46zm2.14 4.74l4.99 0c0.24,0 0.43,0.19 0.43,0.43l0 0c0,0.24 -0.19,0.43 -0.43,0.43l-4.99 0c-0.24,0 -0.43,-0.19 -0.43,-0.43l0 0c0,-0.24 0.19,-0.43 0.43,-0.43zm0 -2.16l4.99 0c0.24,0 0.43,0.2 0.43,0.43l0 0c0,0.24 -0.19,0.44 -0.43,0.44l-4.99 0c-0.24,0 -0.43,-0.2 -0.43,-0.44l0 0c0,-0.23 0.19,-0.43 0.43,-0.43zm0 -3.32l1.26 0c0.23,0 0.43,0.19 0.43,0.43l0 0c0,0.24 -0.2,0.43 -0.43,0.43l-1.26 0c-0.24,0 -0.43,-0.19 -0.43,-0.43l0 0c0,-0.24 0.19,-0.43 0.43,-0.43zm7.99 -0.34c-0.04,-0.45 -0.16,-0.83 -0.34,-1.18 -0.5,-0.95 -1.52,-1.8 -2.74,-1.85 -0.49,-0.02 -1.02,0 -1.51,0l-3.06 0c-1.25,0 -2.3,0.66 -2.91,1.67 -0.49,0.84 -0.44,1.53 -0.44,2.6 0,1.53 0,2.74 0,4.27 0,0.48 -0.03,1.06 0.01,1.52 0.12,1.53 1.52,2.95 3.08,3.02 0.49,0.02 1.02,0 1.51,0l3.06 0c0.5,0 0.88,-0.06 1.28,-0.24 0.7,-0.32 1.27,-0.84 1.63,-1.44 0.49,-0.82 0.44,-1.52 0.44,-2.59 0,-1.53 0,-2.74 0,-4.27 0,-0.47 0.03,-1.06 -0.01,-1.51z"/>
 </g>
</svg>
