<?xml version="1.0" encoding="UTF-8"?>
<!DOCTYPE svg PUBLIC "-//W3C//DTD SVG 1.1//EN" "http://www.w3.org/Graphics/SVG/1.1/DTD/svg11.dtd">
<!-- Creator: CorelDRAW 2018 (64 Bit Versão de avaliação) -->
<svg xmlns="http://www.w3.org/2000/svg" xml:space="preserve" width="50px" height="68px" version="1.1" shape-rendering="geometricPrecision" text-rendering="geometricPrecision" image-rendering="optimizeQuality" fill-rule="evenodd" clip-rule="evenodd"
viewBox="0 0 129.83 177.41"
 xmlns:xlink="http://www.w3.org/1999/xlink">
 <g id="Camada_x0020_1">
  <metadata id="CorelCorpID_0Corel-Layer"/>
  <path fill="#363435" d="M21.74 73.35c2.83,-8.58 5.63,-17.05 8.44,-25.56l10.58 -31.98c1.34,-4.04 0.21,-3.57 4.6,-3.58l56.09 -0.05c-0.06,3.7 -6.82,17.59 -8.54,21.53 -6.01,13.73 -12.77,27.79 -18.6,41.58 -1.34,3.17 -3.15,8.41 1.57,10.53 3.26,1.46 36.97,0.68 38.86,0.66 -0.72,2 -2.19,3.49 -3.39,4.94l-45.6 55.89c-2.8,3.04 -4.23,5.52 -8.33,7.42 0,-10.7 -2.09,-22.56 -3.39,-33.21 -0.63,-5.09 -1.17,-11.05 -2.15,-15.98 -0.52,-2.57 -1.09,-4.94 -3.3,-5.75 -2.15,-0.77 -5.83,-0.71 -8.26,-0.71l-27.03 0 8.45 -25.73zm18.87 37.9c0,5.62 4.87,41.41 5.94,50.01 0.34,2.77 0.7,5.54 1.02,8.28 0.39,3.21 0.72,5.18 2.66,6.65 2.22,1.7 4.9,1.52 7.24,0.11 0.83,-0.49 1.5,-1.44 2.19,-2.33l56.78 -69.39c2.12,-2.56 11.52,-13.61 12.47,-15.73 2.5,-5.62 -0.49,-10.96 -4.02,-13 -4.18,-2.4 -11.78,-1.51 -17.08,-1.51 -3.13,0 -16.92,0.15 -18.81,-0.11 1.56,-6.95 10.07,-24.15 13.53,-32.16 2.3,-5.31 4.78,-10.57 7.03,-15.89 3.37,-8 10.57,-17.94 1.82,-24.2 -2.7,-1.94 -5.84,-1.98 -9.61,-1.98l-57.67 0c-3.75,0 -7.31,-0.15 -9.68,1.91 -3.97,3.47 -5.31,9.65 -7.22,15.69 -5.32,16.81 -11.69,35.07 -17.32,51.94l-8.68 25.81c-1.16,3.62 -1.83,5.71 -0.34,9.59 3,7.81 9.33,6.31 16.55,6.31 7.73,0 15.47,0 23.2,0z"/>
 </g>
</svg>
