<?xml version="1.0" encoding="UTF-8"?>
<!DOCTYPE svg PUBLIC "-//W3C//DTD SVG 1.1//EN" "http://www.w3.org/Graphics/SVG/1.1/DTD/svg11.dtd">
<!-- Creator: CorelDRAW 2018 (64 Bit Versão de avaliação) -->
<svg xmlns="http://www.w3.org/2000/svg" xml:space="preserve" width="194px" height="194px" version="1.1" shape-rendering="geometricPrecision" text-rendering="geometricPrecision" image-rendering="optimizeQuality" fill-rule="evenodd" clip-rule="evenodd"
viewBox="0 0 95.8 95.74"
 xmlns:xlink="http://www.w3.org/1999/xlink">
 <g id="Camada_x0020_1">
  <metadata id="CorelCorpID_0Corel-Layer"/>
  <g id="_1619509791504">
   <path fill="#363435" d="M5.87 50.84c0.06,-0.04 0.02,-0.03 0.14,-0.06l0.43 -0.01c0.21,0.01 0.42,0 0.63,0 4.41,0 37.41,-0.08 37.92,0.04 0.1,0.49 0.06,38.81 0.01,39.03 -0.01,0.01 -0.02,0.05 -0.02,0.04 0,-0.01 -0.01,0.03 -0.02,0.04l-34.2 0c-0.97,0 -1.37,0 -2.09,-0.35 -0.57,-0.28 -1.04,-0.62 -1.43,-1.01 -0.34,-0.35 -0.81,-0.94 -1.04,-1.47 -0.35,-0.8 -0.33,-1.07 -0.33,-2.11 0,-1.62 0,-3.25 0,-4.87 0,-9.69 0.11,-19.65 0,-29.27zm44.97 39.08c-0.1,-0.15 -0.07,-0.35 -0.06,-0.56 0.05,-5.12 -0.1,-37.91 0.02,-38.55 0.43,-0.1 9.11,-0.04 9.79,-0.04 1.53,0 28.65,-0.06 29.2,0l0.19 0.07c-0.06,6.51 0,13.06 0,19.57l0 14.7c0.01,1.71 -0.57,2.59 -1.43,3.45 -0.35,0.35 -0.89,0.81 -1.46,1.05 -0.77,0.32 -1.12,0.31 -2.11,0.31l-34.14 0zm0 -84.11c11.36,0.06 22.88,0.02 34.26,0 0.91,0 1.38,0.06 2.06,0.38 0.98,0.45 2.04,1.52 2.47,2.49 0.27,0.61 0.35,1.24 0.35,2.08 -0.02,11.39 0.05,22.81 0,34.2l-0.24 0.07c-0.08,0 -0.24,-0.01 -0.32,-0.01 -5.1,-0.05 -38,0.1 -38.61,-0.03 -0.12,-0.48 -0.04,-31.62 -0.04,-34.36 0,-0.74 -0.09,-4.57 0.07,-4.82zm-5.88 0l0.07 0.25c0,0.08 0,0.23 -0.01,0.32 -0.04,5.05 0.11,38.03 -0.03,38.61 -0.47,0.1 -19.19,0.03 -19.6,0.03 -6.23,0 -12.79,-0.06 -19.01,0l-0.46 -0.04c-0.01,-0.02 -0.03,-0.01 -0.05,-0.02 -0.04,-11.4 0,-22.86 0,-34.27 0,-0.96 0.02,-1.38 0.36,-2.08 0.45,-0.93 1.53,-2.06 2.5,-2.45 0.74,-0.3 1.11,-0.35 2.09,-0.35 11.35,0.01 22.81,0.06 34.14,0zm-44.96 4.05l0 76.01c0.09,0.15 0.07,1.16 0.31,1.98 0.37,1.25 1.19,2.97 2.04,3.91 0.53,0.6 0.52,0.79 1.15,1.23 0.19,0.12 0.13,0.12 0.28,0.28 0.23,0.25 0.45,0.34 0.68,0.51l1.09 0.73c0.69,0.41 1.71,0.84 2.53,1.03 0.19,0.04 0.88,0.14 0.96,0.2l77.6 0c0.07,-0.06 0.72,-0.16 0.89,-0.2 0.83,-0.17 1.84,-0.57 2.56,-0.94 0.89,-0.45 2.33,-1.53 2.93,-2.26 0.12,-0.15 0.12,-0.2 0.24,-0.32 1.03,-1.06 2.06,-3.1 2.37,-4.65l0.17 -1.02 0 -76.96c-0.01,-0.01 -0.02,-0.03 -0.02,-0.04 0,-0.02 -0.01,-0.04 -0.02,-0.05 -0.1,-0.44 -0.01,-0.69 -0.37,-1.87 -0.17,-0.54 -0.47,-1.22 -0.71,-1.63 -0.19,-0.33 -0.97,-1.57 -1.2,-1.8 -0.79,-0.81 -0.17,-0.37 -1.42,-1.45 -1.59,-1.37 -3.31,-2.19 -5.39,-2.5l-0.21 -0.05 -77.19 0 -1.06 0.2c-1.35,0.28 -3.22,1.24 -4.17,2.09 -1.11,0.99 -1.29,1.1 -2.17,2.33 -0.91,1.25 -1.46,2.68 -1.74,4.21 -0.04,0.23 -0.06,0.92 -0.13,1.03z"/>
   <path fill="#363435" d="M20.32 71.43l-3.4 3.27c-0.51,0.56 -1.07,1.23 -1.26,2.13 -0.38,1.87 1.83,4.46 4.49,2.78 0.71,-0.45 2.03,-1.8 2.58,-2.47 0.27,-0.32 0.54,-0.53 0.82,-0.87 0.2,-0.24 0.62,-0.68 0.9,-0.79 0.53,0.48 2.47,2.57 3.29,3.4 2.84,2.84 5.72,0.35 5.44,-2.01 -0.11,-0.84 -0.73,-1.64 -1.23,-2.14 -0.57,-0.58 -1.14,-1.09 -1.71,-1.66 -0.53,-0.53 -1.35,-1.21 -1.69,-1.72 0.22,-0.34 0.49,-0.6 0.8,-0.85l1.29 -1.22c0.59,-0.59 1.44,-1.28 2.01,-2.17 0.86,-1.34 0.67,-2.7 -0.29,-3.67 -0.53,-0.53 -1.36,-0.94 -2.46,-0.82 -1.54,0.17 -3.42,2.61 -4.61,3.82 -0.23,0.23 -0.6,0.7 -0.9,0.81 -0.46,-0.34 -0.84,-0.84 -1.22,-1.25 -1.05,-1.14 -2.89,-3.21 -4.24,-3.38 -1.21,-0.15 -1.88,0.31 -2.45,0.89 -0.27,0.27 -0.49,0.5 -0.66,0.96 -0.16,0.42 -0.25,0.99 -0.15,1.46 0.16,0.83 0.78,1.66 1.25,2.13 0.57,0.57 3.3,3.1 3.4,3.37z"/>
   <path fill="#363435" d="M21.48 23.48c-1.72,0.12 -3.62,-0.08 -5.35,0.02 -2.94,0.16 -3.57,5.03 0.13,5.76 1.32,0.25 3.72,-0.1 5.24,0.07 0,1.01 -0.06,4.58 0.06,5.31 0.38,2.2 3.03,3.23 4.82,1.69 0.43,-0.37 0.76,-1.02 0.9,-1.72 0.09,-0.41 0.03,-4.52 0.03,-5.3 1.21,0 4.37,0.14 5.32,-0.07 3.78,-0.84 2.87,-5.62 0.01,-5.75 -1.7,-0.07 -3.58,0 -5.31,0 -0.14,-1.02 0.09,-4.08 -0.02,-5.41 -0.24,-3.03 -5.35,-3.49 -5.79,0.07 -0.15,1.15 0.1,4 -0.04,5.33z"/>
   <path fill="#363435" d="M60.73 65.03l0 0.82c0,1.22 1.27,2.58 2.61,2.58l16.07 0c0.76,0 1.4,-0.36 1.87,-0.84 1,-1 1.08,-2.85 0.18,-3.97 -0.39,-0.49 -1.14,-1.01 -1.73,-1.01l-16.64 0c-0.79,0 -1.74,0.75 -2.07,1.47 -0.07,0.15 -0.29,0.82 -0.29,0.95z"/>
   <path fill="#363435" d="M79.35 80.17c0.34,0 0.87,-0.13 1.13,-0.24 0.99,-0.42 1.49,-1.43 1.6,-2.55 0.08,-0.76 -0.25,-1.57 -0.64,-2.05 -0.31,-0.37 -1.02,-0.97 -1.71,-0.97l-16.7 0c-0.43,0 -1.2,0.41 -1.56,0.8 -0.74,0.79 -0.74,1.64 -0.74,2.51 0,1.09 1.28,2.5 2.61,2.5l16.01 0z"/>
   <path fill="#363435" d="M60.67 26.51c0,0.73 0.52,1.61 0.91,1.96 0.47,0.42 1.38,0.84 1.95,0.84l15.63 0c0.74,0 1.54,-0.43 1.99,-0.81 1.32,-1.09 1.35,-3.5 -0.26,-4.59 -0.81,-0.55 -1.72,-0.42 -2.91,-0.42 -4.47,0 -8.93,0 -13.39,0 -1.3,0 -1.95,-0.13 -2.81,0.52 -0.81,0.61 -1.11,1.48 -1.11,2.5z"/>
   <path fill="#9C9C9C" d="M44.96 89.92c0.01,-0.01 0.02,-0.05 0.02,-0.04 0,0.01 0.01,-0.03 0.02,-0.04 0.05,-0.22 0.09,-38.54 -0.01,-39.03 -0.51,-0.12 -33.51,-0.04 -37.92,-0.04 -0.21,0 -0.42,0.01 -0.63,0l-0.43 0.01c-0.12,0.03 -0.08,0.02 -0.14,0.06l39.03 0 0.06 39.08z"/>
   <path fill="#989797" d="M89.98 44.96l-39.14 0 0 -39.15c-0.16,0.25 -0.07,4.08 -0.07,4.82 0,2.74 -0.08,33.88 0.04,34.36 0.61,0.13 33.51,-0.02 38.61,0.03 0.08,0 0.24,0.01 0.32,0.01l0.24 -0.07z"/>
   <path fill="#9C9C9C" d="M50.84 89.92l0 -39.08 39.14 0 -0.19 -0.07c-0.55,-0.06 -27.67,0 -29.2,0 -0.68,0 -9.36,-0.06 -9.79,0.04 -0.12,0.64 0.03,33.43 -0.02,38.55 -0.01,0.21 -0.04,0.41 0.06,0.56z"/>
   <path fill="#989797" d="M5.87 44.96c0.02,0.01 0.04,0 0.05,0.02l0.46 0.04c6.22,-0.06 12.78,0 19.01,0 0.41,0 19.13,0.07 19.6,-0.03 0.14,-0.58 -0.01,-33.56 0.03,-38.61 0.01,-0.09 0.01,-0.24 0.01,-0.32l-0.07 -0.25 0.06 39.15 -39.15 0z"/>
  </g>
 </g>
</svg>
