<?xml version="1.0" encoding="UTF-8"?>
<!DOCTYPE svg PUBLIC "-//W3C//DTD SVG 1.1//EN" "http://www.w3.org/Graphics/SVG/1.1/DTD/svg11.dtd">
<!-- Creator: CorelDRAW 2018 (64 Bit Versão de avaliação) -->
<svg xmlns="http://www.w3.org/2000/svg" xml:space="preserve" width="50px" height="58px" version="1.1" shape-rendering="geometricPrecision" text-rendering="geometricPrecision" image-rendering="optimizeQuality" fill-rule="evenodd" clip-rule="evenodd"
viewBox="0 0 5.52 6.38"
 xmlns:xlink="http://www.w3.org/1999/xlink">
 <g id="Camada_x0020_1">
  <metadata id="CorelCorpID_0Corel-Layer"/>
  <g id="_1618009927968">
   <path fill="#363435" d="M2.76 5.96c-0.07,0 -0.31,-0.15 -0.39,-0.2 -0.03,-0.02 -0.05,-0.03 -0.08,-0.05l-1.5 -0.9c-0.06,-0.03 -0.11,-0.05 -0.16,-0.08 -0.1,-0.07 -0.21,-0.14 -0.21,-0.27l0 -2.54c0,-0.07 0.03,-0.13 0.07,-0.17 0.07,-0.07 0.34,-0.22 0.44,-0.27 0.21,-0.13 0.4,-0.24 0.6,-0.36l0.6 -0.36c0.11,-0.06 0.21,-0.12 0.31,-0.18 0.08,-0.05 0.24,-0.16 0.33,-0.16 0.04,0 0.13,0.05 0.17,0.07l0.3 0.18c0.06,0.03 0.11,0.06 0.16,0.1l0.15 0.09c0.05,0.03 0.1,0.06 0.16,0.09l0.3 0.18c0.21,0.12 0.41,0.24 0.62,0.37 0.1,0.06 0.2,0.12 0.3,0.18 0.06,0.03 0.1,0.06 0.14,0.11 0.03,0.05 0.04,0.12 0.04,0.2l0 2.39c0,0.18 -0.04,0.23 -0.17,0.32 -0.03,0.01 -0.05,0.03 -0.08,0.04l-0.16 0.09c-0.53,0.32 -1.07,0.64 -1.61,0.96 -0.06,0.04 -0.26,0.17 -0.33,0.17zm-2.76 -4.11l0 2.68c0,0.08 0.03,0.17 0.06,0.23 0.03,0.06 0.07,0.11 0.12,0.16 0.09,0.09 0.24,0.16 0.35,0.23 0.12,0.07 0.28,0.17 0.4,0.24l0.09 0.06c0.02,0.01 0.03,0.02 0.05,0.03l0.36 0.21c0.03,0.02 0.06,0.04 0.09,0.05l0.81 0.49c0.15,0.09 0.19,0.12 0.37,0.14 0.02,0.01 0.04,0 0.07,0 0.13,0.02 0.35,-0.09 0.47,-0.16 0.01,-0.01 0.03,-0.02 0.04,-0.03l0.18 -0.11c0.03,-0.02 0.06,-0.04 0.09,-0.06 0.06,-0.03 0.12,-0.07 0.18,-0.1l1.44 -0.86c0.14,-0.08 0.22,-0.15 0.29,-0.3 0.03,-0.05 0.06,-0.14 0.06,-0.22l0 -2.69c0,-0.05 -0.01,-0.13 -0.03,-0.18 -0.03,-0.05 -0.05,-0.08 -0.08,-0.13 -0.04,-0.05 -0.05,-0.06 -0.09,-0.09 -0.11,-0.1 -0.53,-0.34 -0.68,-0.43l-1.43 -0.85c-0.14,-0.09 -0.25,-0.16 -0.42,-0.16 -0.14,0 -0.16,0.01 -0.29,0.06 -0.07,0.03 -0.13,0.06 -0.19,0.1 -0.12,0.06 -0.24,0.15 -0.36,0.21l-1.42 0.86c-0.06,0.04 -0.31,0.18 -0.35,0.23 -0.09,0.1 -0.18,0.25 -0.18,0.39z"/>
   <path fill="#363435" d="M2.74 4.25c-0.04,0 -0.08,0 -0.12,-0.01 -0.13,-0.01 -0.27,-0.06 -0.38,-0.13 -0.1,-0.05 -0.21,-0.15 -0.28,-0.23 -0.04,-0.06 -0.07,-0.09 -0.11,-0.15 0,-0.02 -0.01,-0.03 -0.02,-0.05 -0.07,-0.11 -0.12,-0.33 -0.12,-0.46 0,-0.2 0.02,-0.31 0.1,-0.48 0.02,-0.05 0.04,-0.08 0.06,-0.13 0.07,-0.11 0.18,-0.21 0.28,-0.29 0.03,-0.02 0.05,-0.03 0.08,-0.05 0.13,-0.08 0.31,-0.15 0.49,-0.15l0.07 0c0.14,0 0.32,0.05 0.41,0.1 0.13,0.06 0.14,0.07 0.23,0.15 0.06,0.05 0.18,0.18 0.22,0.25 0.09,0.14 0.16,0.32 0.16,0.51 0,0.22 -0.02,0.32 -0.1,0.51 -0.03,0.09 -0.13,0.24 -0.22,0.31 -0.09,0.08 -0.1,0.11 -0.22,0.17 -0.14,0.08 -0.37,0.13 -0.53,0.13zm-1.45 -1.17c0,0.26 0.01,0.48 0.12,0.72 0.05,0.08 0.09,0.15 0.14,0.23 0.02,0.03 0.11,0.14 0.13,0.17l0.05 0.05c0.01,0.01 0.01,0.02 0.02,0.02 0.01,0.01 0.01,0.01 0.02,0.02l0.08 0.07c0.17,0.13 0.33,0.22 0.54,0.27 0.34,0.08 0.66,0.05 0.98,-0.08 0.12,-0.06 0.22,-0.12 0.32,-0.2 0.02,-0.02 0.13,-0.13 0.15,-0.16 0.07,-0.08 0.1,-0.11 0.17,-0.22 0.01,-0.01 0.01,-0.02 0.02,-0.03l0.03 -0.06c0.09,-0.15 0.17,-0.39 0.17,-0.58 0,-0.24 0,-0.37 -0.07,-0.59 -0.02,-0.07 -0.08,-0.18 -0.11,-0.24 -0.04,-0.07 -0.06,-0.1 -0.1,-0.17 -0.08,-0.11 -0.21,-0.23 -0.31,-0.31 -0.11,-0.08 -0.21,-0.14 -0.34,-0.19 -0.12,-0.05 -0.29,-0.1 -0.43,-0.1 -0.23,0 -0.39,0 -0.59,0.08 -0.16,0.06 -0.26,0.1 -0.4,0.22 -0.02,0.01 -0.03,0.02 -0.05,0.04l-0.09 0.08c-0.01,0.01 -0.02,0.01 -0.02,0.02l-0.07 0.07c-0.04,0.06 -0.07,0.09 -0.11,0.15 -0.05,0.08 -0.05,0.09 -0.1,0.17 -0.07,0.12 -0.15,0.35 -0.15,0.55z"/>
  </g>
 </g>
</svg>
