<?xml version="1.0" encoding="UTF-8"?>
<!DOCTYPE svg PUBLIC "-//W3C//DTD SVG 1.1//EN" "http://www.w3.org/Graphics/SVG/1.1/DTD/svg11.dtd">
<!-- Creator: CorelDRAW 2018 (64 Bit Versão de avaliação) -->
<svg xmlns="http://www.w3.org/2000/svg" xml:space="preserve" width="50px" height="50px" version="1.1" shape-rendering="geometricPrecision" text-rendering="geometricPrecision" image-rendering="optimizeQuality" fill-rule="evenodd" clip-rule="evenodd"
viewBox="0 0 12.39 12.4"
 xmlns:xlink="http://www.w3.org/1999/xlink">
 <g id="Camada_x0020_1">
  <metadata id="CorelCorpID_0Corel-Layer"/>
  <path fill="#363435" d="M6.13 2.72c-0.84,0.15 -0.56,1.28 0.16,1.15 0.28,-0.05 0.53,-0.33 0.47,-0.67 -0.04,-0.28 -0.31,-0.54 -0.63,-0.48zm-0.33 -1.92c0.83,-0.06 1.6,0.06 2.31,0.33 0.41,0.16 0.99,0.47 1.32,0.73l0.36 0.3c0.17,0.13 0.36,0.36 0.51,0.52 0.68,0.75 1.21,2.02 1.29,3.09 0.13,1.71 -0.55,3.11 -1.36,4.02l-0.33 0.36c-0.1,0.1 -0.25,0.2 -0.37,0.3 -1.82,1.4 -4.2,1.56 -6.17,0.35 -0.49,-0.3 -0.42,-0.29 -0.77,-0.57l-0.44 -0.43c-0.03,-0.04 -0.04,-0.06 -0.07,-0.09 -1.27,-1.43 -1.65,-3.65 -0.95,-5.44 0.26,-0.66 0.65,-1.26 1.03,-1.68l0.33 -0.35c0.12,-0.11 0.25,-0.2 0.38,-0.31 0.78,-0.63 1.85,-1.06 2.93,-1.13zm6.58 5.76c0.06,-0.94 -0.12,-1.87 -0.43,-2.66 -0.21,-0.51 -0.52,-1.07 -0.85,-1.48 -0.35,-0.45 -0.7,-0.81 -1.16,-1.16 -0.92,-0.69 -2.14,-1.2 -3.38,-1.25 -1.8,-0.08 -3.28,0.49 -4.55,1.62 -0.07,0.06 -0.15,0.13 -0.21,0.19 -0.05,0.06 -0.03,0.05 -0.1,0.11 -0.1,0.08 -0.35,0.39 -0.44,0.51 -1.57,1.97 -1.68,4.97 -0.3,7.09 0.2,0.31 0.3,0.41 0.51,0.67l0.77 0.77c1.69,1.42 4.14,1.84 6.24,0.99 0.37,-0.14 0.72,-0.33 1.02,-0.53 0.61,-0.41 1,-0.73 1.45,-1.27 0.21,-0.26 0.62,-0.85 0.77,-1.15 0.36,-0.74 0.61,-1.5 0.66,-2.45zm-6.3 -1.12c-0.37,0.13 -0.29,0.58 -0.29,0.98l0 2.51c0,0.19 -0.02,0.42 0.06,0.57 0.07,0.11 0.25,0.23 0.46,0.17 0.34,-0.09 0.28,-0.63 0.28,-0.98l0 -2.52c0,-0.19 0.02,-0.42 -0.07,-0.57 -0.07,-0.11 -0.25,-0.22 -0.44,-0.16z"/>
 </g>
</svg>
