<?xml version="1.0" encoding="UTF-8"?>
<!DOCTYPE svg PUBLIC "-//W3C//DTD SVG 1.1//EN" "http://www.w3.org/Graphics/SVG/1.1/DTD/svg11.dtd">
<!-- Creator: CorelDRAW 2018 (64 Bit Versão de avaliação) -->
<svg xmlns="http://www.w3.org/2000/svg" xml:space="preserve" width="50px" height="49px" version="1.1" shape-rendering="geometricPrecision" text-rendering="geometricPrecision" image-rendering="optimizeQuality" fill-rule="evenodd" clip-rule="evenodd"
viewBox="0 0 21.52 20.91"
 xmlns:xlink="http://www.w3.org/1999/xlink">
 <g id="Camada_x0020_1">
  <metadata id="CorelCorpID_0Corel-Layer"/>
  <g id="_1617705855776">
   <g>
    <path fill="#373435" d="M6.15 3.53c-0.53,0 -0.96,0.45 -0.96,1.13 0,0.48 0.48,0.97 0.96,0.97 16.8,0 -3.38,0 13.4,0 0.53,0 0.97,-0.46 0.97,-1.14 0,-0.48 -0.48,-0.96 -0.97,-0.96 -16.8,0 3.39,0 -13.4,0z"/>
    <circle fill="#373435" cx="2.05" cy="4.58" r="1.05"/>
   </g>
   <g>
    <path fill="#373435" d="M6.15 9.41c-0.53,0 -0.96,0.45 -0.96,1.13 0,0.48 0.48,0.97 0.96,0.97 16.8,0 -3.38,0 13.4,0 0.53,0 0.97,-0.46 0.97,-1.14 0,-0.48 -0.48,-0.96 -0.97,-0.96 -16.8,0 3.39,0 -13.4,0z"/>
    <circle fill="#373435" cx="2.05" cy="10.46" r="1.05"/>
   </g>
   <g>
    <path fill="#373435" d="M6.15 15.28c-0.53,0 -0.96,0.46 -0.96,1.14 0,0.48 0.48,0.96 0.96,0.96 16.8,0 -3.38,0 13.4,0 0.53,0 0.97,-0.46 0.97,-1.13 0,-0.48 -0.48,-0.97 -0.97,-0.97 -16.8,0 3.39,0 -13.4,0z"/>
    <circle fill="#373435" cx="2.05" cy="16.33" r="1.05"/>
   </g>
  </g>
 </g>
</svg>
