<?xml version="1.0" encoding="UTF-8"?>
<!DOCTYPE svg PUBLIC "-//W3C//DTD SVG 1.1//EN" "http://www.w3.org/Graphics/SVG/1.1/DTD/svg11.dtd">
<!-- Creator: CorelDRAW 2018 (64 Bit Versão de avaliação) -->
<svg xmlns="http://www.w3.org/2000/svg" xml:space="preserve" width="50px" height="51px" version="1.1" shape-rendering="geometricPrecision" text-rendering="geometricPrecision" image-rendering="optimizeQuality" fill-rule="evenodd" clip-rule="evenodd"
viewBox="0 0 32.34 33.22"
 xmlns:xlink="http://www.w3.org/1999/xlink">
 <g id="Camada_x0020_1">
  <metadata id="CorelCorpID_0Corel-Layer"/>
  <path fill="black" d="M6.13 4.74c0,1.75 1.6,1.75 3.6,2.42 0.3,0.1 1.25,0.43 1.52,0.43 0.48,0 1.1,-0.5 1.1,-0.97 0,-1.05 -0.35,-1.21 -1.71,-1.6 -0.27,-0.07 -0.57,-0.2 -0.82,-0.22 0.07,-0.06 -0.02,0 0.11,-0.08 0.06,-0.03 0.12,-0.07 0.17,-0.09 0.13,-0.07 0.2,-0.1 0.31,-0.15 1.34,-0.68 3.61,-1.24 5.12,-1.24 2.46,0 3.65,0.1 5.93,1.01 1.08,0.43 2.68,1.37 3.56,2.16l1.43 1.36c0.23,0.23 0.43,0.51 0.65,0.77 0.22,0.27 0.41,0.53 0.6,0.83 1.63,2.45 2.63,5.79 2.29,8.92 -0.16,1.47 -0.34,2.2 -0.78,3.5 -0.29,0.88 -0.91,2.07 -1.4,2.81 -0.3,0.44 -0.87,1.27 -1.23,1.63 -0.27,0.26 -0.42,0.5 -0.68,0.74 -0.69,0.63 -1.24,1.05 -1.98,1.59 -2.58,1.91 -6.26,2.62 -9.55,2.25 -2.06,-0.23 -4.89,-1.34 -6.54,-2.67l-0.78 -0.65c-0.64,-0.63 -0.34,-0.24 -1.04,-1.04 -0.12,-0.14 -0.23,-0.22 -0.35,-0.35 -0.44,-0.5 -1.19,-1.55 -1.48,-2.1 -0.35,-0.65 -0.64,-1.17 -0.93,-1.92 -1.19,-3.04 -1.21,-6.48 -0.15,-9.6 0.12,-0.34 0.26,-0.7 0.41,-1.02 0.23,-0.49 0.41,-0.77 0.41,-1.21 0,-0.6 -0.49,-1.1 -1.17,-1.1 -0.77,0 -1.06,0.69 -1.3,1.23 -0.25,0.56 -0.54,1.26 -0.71,1.88 -0.19,0.68 -0.35,1.26 -0.49,2.04 -0.82,4.53 0.43,9.03 3.08,12.57 2.75,3.68 7.57,6.35 12.4,6.35 3.01,0 4.7,-0.35 7.26,-1.49 3.32,-1.49 6.07,-4.26 7.69,-7.5 0.07,-0.14 0.1,-0.24 0.16,-0.36 1.99,-4.04 2,-9.57 0,-13.62 -0.97,-1.97 -1.18,-2.15 -2.31,-3.6 -0.45,-0.57 -1.41,-1.51 -1.98,-1.97 -0.19,-0.16 -0.32,-0.27 -0.54,-0.44 -0.22,-0.16 -0.36,-0.28 -0.59,-0.44 -4.47,-3.09 -10.13,-3.78 -15.23,-1.74 -0.22,0.09 -0.49,0.23 -0.69,0.28 0.04,-0.55 0.32,-0.41 0.32,-1.37 0,-0.43 -0.53,-0.97 -0.97,-0.97 -1.23,0 -1.22,0.71 -1.78,2.11 -0.18,0.46 -0.94,2.28 -0.94,2.63zm7 6.74l0 6.56c0,1.4 1.44,2.91 3.05,2.91l4.41 0c1.19,0 1.41,-2.14 0,-2.27 -0.89,-0.07 -2.96,0.06 -4.09,0.01 -0.65,-0.03 -1.07,-0.32 -1.1,-0.98 -0.08,-1.96 0.08,-4.35 0,-6.16 -0.06,-1.53 -2.27,-1.41 -2.27,-0.07z"/>
 </g>
</svg>
