<?xml version="1.0" encoding="UTF-8"?>
<!DOCTYPE svg PUBLIC "-//W3C//DTD SVG 1.1//EN" "http://www.w3.org/Graphics/SVG/1.1/DTD/svg11.dtd">
<!-- Creator: CorelDRAW 2018 (64 Bit Versão de avaliação) -->
<svg xmlns="http://www.w3.org/2000/svg" xml:space="preserve" width="50px" height="91px" version="1.1" shape-rendering="geometricPrecision" text-rendering="geometricPrecision" image-rendering="optimizeQuality" fill-rule="evenodd" clip-rule="evenodd"
viewBox="0 0 15.72 28.8"
 xmlns:xlink="http://www.w3.org/1999/xlink">
 <g id="Camada_x0020_1">
  <metadata id="CorelCorpID_0Corel-Layer"/>
  <path fill="#363435" d="M11.82 15.24l-10.66 10.56c-0.52,0.52 -0.94,0.99 -1.04,1.23 -0.44,1.06 0.59,2.09 1.68,1.68 0.25,-0.1 1.08,-0.81 2.04,-1.79l11.36 -11.47c1.38,-1.37 -0.36,-2.43 -1.17,-3.24l-11.39 -11.47c-0.37,-0.38 -0.84,-0.71 -1.3,-0.74 -0.99,-0.05 -1.73,1.05 -1.12,1.98 0.15,0.21 0.67,0.7 0.86,0.88l10.67 10.7c0.93,0.9 0.84,0.93 0.07,1.68z"/>
 </g>
</svg>
