<?xml version="1.0" encoding="UTF-8"?>
<!DOCTYPE svg PUBLIC "-//W3C//DTD SVG 1.1//EN" "http://www.w3.org/Graphics/SVG/1.1/DTD/svg11.dtd">
<!-- Creator: CorelDRAW 2018 (64 Bit Versão de avaliação) -->
<svg xmlns="http://www.w3.org/2000/svg" xml:space="preserve" width="50px" height="50px" version="1.1" shape-rendering="geometricPrecision" text-rendering="geometricPrecision" image-rendering="optimizeQuality" fill-rule="evenodd" clip-rule="evenodd"
viewBox="0 0 12.58 12.56"
 xmlns:xlink="http://www.w3.org/1999/xlink">
 <g id="Camada_x0020_1">
  <metadata id="CorelCorpID_0Corel-Layer"/>
  <path fill="#373435" d="M1.46 3.35c0.05,-0.08 0.32,-0.27 0.42,-0.33 0.46,-0.27 0.75,-0.45 1.23,-0.69 0.1,-0.04 0.16,-0.1 0.25,-0.12 0.11,0.12 1.87,1.02 2.11,1.14l2.15 1.13c0.11,0.06 0.57,0.28 0.61,0.35 -0.12,0.03 -1.55,0.76 -1.7,0.84 -0.31,0.15 -0.15,0.16 -0.84,-0.19 -0.29,-0.14 -0.56,-0.28 -0.85,-0.42 -0.22,-0.11 -3.27,-1.61 -3.38,-1.71zm2.84 -1.64c0.33,-0.21 1.39,-0.71 1.72,-0.79 0.69,-0.15 1.68,0.48 2.3,0.81l1.24 0.65c0.29,0.14 0.54,0.28 0.82,0.44 0.14,0.09 0.25,0.15 0.39,0.24 0.09,0.06 0.31,0.22 0.36,0.29 -0.12,0.11 -0.67,0.35 -0.85,0.44 -0.29,0.15 -0.58,0.29 -0.87,0.44 -0.25,0.13 -0.2,0.09 -0.43,-0.04l-1.29 -0.67c-0.15,-0.07 -0.27,-0.15 -0.41,-0.22 -0.08,-0.04 -0.15,-0.07 -0.22,-0.11 -0.08,-0.04 -0.12,-0.07 -0.21,-0.12l-0.87 -0.45c-0.14,-0.08 -0.25,-0.14 -0.41,-0.21l-1.27 -0.7zm7.27 2.44c0.14,0.33 0.11,2.49 0.11,3 0,1.11 -0.06,1.71 -0.83,2.29 -0.43,0.32 -1.09,0.6 -1.49,0.84 -0.17,0.11 -0.34,0.17 -0.51,0.27 -0.18,0.1 -0.34,0.17 -0.51,0.26l-0.52 0.28c-0.2,0.1 -0.88,0.47 -1.09,0.49l0 -5.03 2.02 -1.01c0,0.41 -0.01,0.83 0,1.23 0.01,0.19 0.06,0.34 0.17,0.43 0.12,0.1 0.3,0.15 0.47,0.07 0.35,-0.16 0.26,-0.62 0.26,-0.97 0,-0.41 0,-0.82 0,-1.23l1.92 -0.92zm-5.71 7.43c-0.21,-0.02 -0.87,-0.38 -1.08,-0.48 -0.35,-0.18 -0.68,-0.35 -1.02,-0.54 -0.45,-0.25 -1.03,-0.52 -1.52,-0.81 -0.5,-0.3 -0.97,-0.53 -1.18,-1.17 -0.21,-0.63 -0.15,-2.2 -0.15,-2.96 0,-0.35 0.02,-1.26 0.11,-1.47l4.84 2.4 0 5.03zm-5.85 -5.33c0,0.87 -0.04,2.1 0.31,2.86 0.43,0.97 1.33,1.3 2.13,1.77l2.07 1.08c0.17,0.09 0.34,0.18 0.52,0.27 1.27,0.58 1.85,0.32 2.99,-0.25 0.19,-0.09 0.35,-0.17 0.53,-0.27l1.54 -0.81c0.45,-0.25 1.12,-0.58 1.46,-0.89 0.21,-0.19 0.19,-0.14 0.4,-0.39 0.43,-0.53 0.51,-1.05 0.59,-1.76 0.04,-0.42 0.04,-2.69 0,-3.14 -0.04,-0.48 -0.12,-0.91 -0.28,-1.28 -0.08,-0.18 -0.17,-0.33 -0.29,-0.48 -0.36,-0.44 -0.83,-0.75 -1.35,-1.02l-1.01 -0.54c-0.34,-0.2 -0.71,-0.35 -1.05,-0.54 -0.3,-0.19 -1.26,-0.66 -1.6,-0.75 -0.76,-0.21 -1.19,-0.11 -1.91,0.21l-3.57 1.89c-0.2,0.13 -0.5,0.34 -0.67,0.51 -0.2,0.2 -0.38,0.44 -0.5,0.7 -0.38,0.84 -0.24,1.55 -0.31,2.04 -0.02,0.21 0,0.57 0,0.79z"/>
 </g>
</svg>
