<?xml version="1.0" encoding="UTF-8"?>
<!DOCTYPE svg PUBLIC "-//W3C//DTD SVG 1.1//EN" "http://www.w3.org/Graphics/SVG/1.1/DTD/svg11.dtd">
<!-- Creator: CorelDRAW 2018 (64 Bit Versão de avaliação) -->
<svg xmlns="http://www.w3.org/2000/svg" xml:space="preserve" width="50px" height="50px" version="1.1" shape-rendering="geometricPrecision" text-rendering="geometricPrecision" image-rendering="optimizeQuality" fill-rule="evenodd" clip-rule="evenodd"
viewBox="0 0 1989.42 1985.29"
 xmlns:xlink="http://www.w3.org/1999/xlink">
 <g id="Camada_x0020_1">
  <metadata id="CorelCorpID_0Corel-Layer"/>
  <g id="_3089371930480">
   <path fill="black" d="M426.02 864.42c0,41.17 38.13,88.23 60.38,121.6 34.45,51.7 70.76,103.13 110.47,150.1l261.04 260.09c39.62,31.14 108.22,86.16 149.96,110.63 19.84,11.63 33.27,21.21 53.34,33.5 78.95,48.41 83.04,34.83 172.36,-54.47 21.61,-21.63 77.1,-87.9 106.5,-87.9 48.63,0 54.23,14.94 85.83,46.54l124.08 124.08c21.27,21.27 50.66,43.39 50.66,77.54 0,38.36 -28.27,55.15 -48.61,75.48 -45.88,45.89 -77.91,87.24 -143.14,109.15 -91.38,30.71 -133.09,26.09 -233.96,5.34 -36.75,-7.57 -79.63,-19.97 -111.98,-32.8 -151.01,-59.86 -312.95,-153.6 -429.09,-261.61 -9.24,-8.58 -9.4,-9.07 -19.98,-17.25 -36.33,-28.09 -77.78,-76.17 -110.24,-108.98 -160.23,-161.94 -338.25,-430.72 -363.37,-658.21 -6.8,-61.58 -16.35,-101.45 12.68,-174.15 38.02,-95.2 84.9,-115.83 143.71,-174.77 53.46,-53.59 103.35,10.29 122.11,29.05l126.15 126.15c93.85,93.85 53.16,102.75 -82.72,237.81 -16.7,16.62 -36.18,31.59 -36.18,63.08zm-426.02 -194.38c0,238.53 99.54,436.75 212.6,606.33l100.82 134.93c40.91,46.81 129.72,148.88 171.72,183.98 9.94,8.31 12.9,9.03 22.64,18.72 120.05,119.48 331.27,248.35 481.32,308.65 146.31,58.8 199.31,62.64 346.83,62.64 48.5,0 112.05,-19.27 146.21,-35.77 80.48,-38.9 138.52,-104.22 202.35,-169.91 12.87,-13.26 29.15,-38.17 35.6,-55.4 17.87,-47.72 23.3,-87.1 6.3,-137.65 -21.13,-62.87 -47.75,-79.55 -93.69,-125.51 -49.97,-49.95 -97,-96.7 -146.77,-146.89 -48.88,-49.3 -135.14,-71.75 -214.49,-38.58 -70.99,29.68 -115.38,105.69 -158.86,134.8 -38.97,-10.4 -194.76,-142.35 -228.08,-168.96 -26.02,-20.76 -141.35,-139.7 -164.84,-170.18 -25.36,-32.92 -131.37,-159.78 -140.62,-194.4 42.62,-63.64 174.29,-120.39 147.3,-275.51 -6.17,-35.42 -28.46,-75.18 -48.98,-95.79 -29.03,-29.14 -193.71,-198.21 -218.99,-215.28 -82.72,-55.88 -185.08,-47 -248.56,14.68 -100.7,97.83 -209.81,195.92 -209.81,365.1z"/>
   <path fill="black" d="M930.6 57.9c0,127.47 123.19,31.85 378.16,134.71 297.85,120.14 499.8,374.25 540.8,700 4.72,37.5 4.06,75.06 7.49,116.59 6.76,81.57 132.37,69.44 132.37,-0.02 0,-212.36 -37.13,-338.25 -135.06,-518.41 -73.32,-134.88 -223.03,-281.66 -358.4,-357.14 -158.16,-88.2 -298.84,-133.63 -507.46,-133.63 -25.82,0 -57.9,32.08 -57.9,57.9z"/>
   <path fill="black" d="M976.1 479.78c0,83.52 68.35,67.62 128.9,77.9 148.87,25.29 276.14,137.79 316.1,279.48 23.52,83.41 6.27,131.68 35.58,162.96 43.03,45.91 115,13.43 115,-44.7 0,-89.05 -14.95,-163.09 -49.61,-231.63 -20.12,-39.79 -43.19,-83.06 -73.49,-116.77 -6.68,-7.43 -9.1,-8.71 -15.78,-17.32 -23.88,-30.78 -22.53,-22.77 -48.28,-46.84 -87.79,-82.1 -225.02,-125.12 -350.52,-125.12 -21.09,0 -57.9,24.66 -57.9,62.04z"/>
  </g>
 </g>
</svg>
