<?xml version="1.0" encoding="UTF-8"?>
<!DOCTYPE svg PUBLIC "-//W3C//DTD SVG 1.1//EN" "http://www.w3.org/Graphics/SVG/1.1/DTD/svg11.dtd">
<!-- Creator: CorelDRAW 2018 (64 Bit Versão de avaliação) -->
<svg xmlns="http://www.w3.org/2000/svg" xml:space="preserve" width="50px" height="91px" version="1.1" shape-rendering="geometricPrecision" text-rendering="geometricPrecision" image-rendering="optimizeQuality" fill-rule="evenodd" clip-rule="evenodd"
viewBox="0 0 6.53 11.97"
 xmlns:xlink="http://www.w3.org/1999/xlink">
 <g id="Camada_x0020_1">
  <metadata id="CorelCorpID_0Corel-Layer"/>
  <path fill="#363435" d="M1.62 6.33l4.43 4.39c0.22,0.21 0.39,0.41 0.43,0.51 0.18,0.44 -0.24,0.87 -0.7,0.7 -0.1,-0.04 -0.44,-0.34 -0.85,-0.74l-4.72 -4.77c-0.57,-0.57 0.15,-1.01 0.49,-1.35l4.73 -4.76c0.16,-0.16 0.35,-0.3 0.54,-0.31 0.41,-0.02 0.72,0.43 0.47,0.82 -0.06,0.09 -0.28,0.3 -0.36,0.37l-4.43 4.44c-0.39,0.38 -0.35,0.39 -0.03,0.7z"/>
 </g>
</svg>
