<?xml version="1.0" encoding="UTF-8"?>
<!DOCTYPE svg PUBLIC "-//W3C//DTD SVG 1.1//EN" "http://www.w3.org/Graphics/SVG/1.1/DTD/svg11.dtd">
<!-- Creator: CorelDRAW 2018 (64 Bit Versão de avaliação) -->
<svg xmlns="http://www.w3.org/2000/svg" xml:space="preserve" width="50px" height="50px" version="1.1" shape-rendering="geometricPrecision" text-rendering="geometricPrecision" image-rendering="optimizeQuality" fill-rule="evenodd" clip-rule="evenodd"
viewBox="0 0 24.45 24.64"
 xmlns:xlink="http://www.w3.org/1999/xlink">
 <g id="Camada_x0020_1">
  <metadata id="CorelCorpID_0Corel-Layer"/>
  <g id="_1617966889136">
   <path fill="#363435" d="M1.69 9.19c0,-1.22 0.14,-2.54 0.16,-3.81l0.1 -1.21c0.16,-1.14 0.78,-1.88 1.81,-2.15l3.69 -0.28c0.2,-0.01 0.42,0.01 0.63,0.01 0.56,-0.01 0.97,-0.18 1.83,0.07 1.18,0.33 1.98,1.38 2.96,2.37 0.46,0.45 0.87,0.86 1.32,1.32l3.28 3.32c0.24,0.24 0.39,0.45 0.63,0.69 0.73,0.72 2.37,2.3 2.94,2.98 0.73,0.88 1.72,1.25 1.72,3.19 0,1.08 -0.51,1.91 -1.07,2.47 -0.61,0.6 -1.18,1.18 -1.79,1.79 -0.6,0.6 -1.17,1.17 -1.77,1.77 -0.61,0.61 -1.47,1.2 -2.39,1.2 -2.15,0 -2.65,-0.98 -4.29,-2.63l-5.15 -5.25c-0.6,-0.59 -1.15,-1.15 -1.74,-1.74l-1.72 -1.77c-0.59,-0.59 -1.15,-1.46 -1.15,-2.34zm6.72 -9.19l0.36 0c2.31,0.03 2.88,0.58 4.42,2.13l4.57 4.56c0.26,0.27 0.52,0.5 0.77,0.77 1.01,1.1 1.95,2 3,3.06 0.56,0.56 1.87,1.93 2.15,2.4 0.77,1.29 0.77,1.81 0.77,3.19 0,0.81 -0.46,1.75 -0.77,2.29 -0.43,0.72 -3.76,3.91 -4.5,4.64 -0.5,0.51 -1.06,0.98 -1.82,1.24 -0.84,0.28 -1.5,0.45 -2.56,0.32 -1.87,-0.23 -2.73,-1.3 -3.75,-2.33 -2.04,-2.03 -4.01,-4.06 -6.05,-6.1 -0.14,-0.14 -0.26,-0.25 -0.39,-0.39l-2.62 -2.67c-0.57,-0.57 -0.96,-0.94 -1.37,-1.69 -0.33,-0.57 -0.61,-1.44 -0.62,-2.32l0 -0.08 0.11 -2.2c0.01,-0.93 0.06,-2.87 0.27,-3.54 0.26,-0.86 0.56,-1.28 1.16,-1.89 1.31,-1.31 2.85,-1.23 4.8,-1.28 0.28,-0.01 0.4,-0.06 0.74,-0.06 0.24,0 0.49,0.01 0.74,0 0.27,0 0.35,-0.04 0.59,-0.05z"/>
   <path fill="#363435" d="M6.97 8.19l-0.26 0c-0.51,0 -1.22,-0.59 -1.22,-1.06 0,-0.56 -0.03,-0.98 0.47,-1.38 0.29,-0.24 0.54,-0.29 0.92,-0.27 1.36,0.08 1.47,1.4 1.19,1.95 -0.06,0.1 -0.2,0.29 -0.27,0.37 -0.15,0.17 -0.52,0.39 -0.83,0.39zm-3.22 -1.48c0,0.5 0.09,0.93 0.26,1.32 0.43,0.95 1.43,1.85 2.49,1.85 1.02,0 1.72,-0.11 2.44,-0.83 0.27,-0.27 0.43,-0.48 0.62,-0.81 0.6,-1.06 0.36,-2.68 -0.57,-3.61 -1.2,-1.2 -3.15,-1.16 -4.3,0 -0.28,0.28 -0.46,0.47 -0.64,0.84 -0.14,0.29 -0.3,0.83 -0.3,1.24z"/>
   <path fill="#363435" d="M15.16 19.28c0,0.61 0.39,0.95 0.79,0.95 0.55,0 1.07,-0.68 1.39,-0.99l2.37 -2.38c0.34,-0.34 0.98,-0.91 0.48,-1.56 -0.18,-0.22 -0.52,-0.33 -0.82,-0.27 -0.38,0.08 -0.48,0.28 -0.71,0.51l-3.01 3.01c-0.18,0.18 -0.49,0.41 -0.49,0.73z"/>
  </g>
 </g>
</svg>
