<?xml version="1.0" encoding="UTF-8"?>
<!DOCTYPE svg PUBLIC "-//W3C//DTD SVG 1.1//EN" "http://www.w3.org/Graphics/SVG/1.1/DTD/svg11.dtd">
<!-- Creator: CorelDRAW 2018 (64 Bit Versão de avaliação) -->
<svg xmlns="http://www.w3.org/2000/svg" xml:space="preserve" width="50px" height="50px" version="1.1" shape-rendering="geometricPrecision" text-rendering="geometricPrecision" image-rendering="optimizeQuality" fill-rule="evenodd" clip-rule="evenodd"
viewBox="0 0 2035.14 2034.26"
 xmlns:xlink="http://www.w3.org/1999/xlink">
 <g id="Camada_x0020_1">
  <metadata id="CorelCorpID_0Corel-Layer"/>
  <g id="_3089371946064">
   <path fill="#363435" d="M489.03 1893.14c-74.02,0 -94.4,-1.77 -163.96,-30.4 -98.04,-40.38 -184.83,-159.77 -184.83,-270.48 0,-92.88 22.51,-153.1 72.64,-220.24 18.65,-24.98 54.84,-63.01 77.13,-85.3l455.31 -455.31c4.79,-4.8 8.27,-8.89 13.43,-13.19 34.17,-28.55 63.84,-61.15 106.58,-82.48 91.4,-45.59 188.12,-47.99 281.35,-6.15 41.22,18.49 51.67,28.95 82.21,53.6 16.58,13.39 34.71,34.05 47.17,51.34 86.56,120.04 74.95,265.35 -9.5,382.31 -36,49.87 -246.47,253.09 -293.58,300.2 -72.1,72.09 -142.25,142.24 -214.34,214.35 -67.2,67.19 -95.25,102.87 -180.81,141.37 -21.1,9.49 -59.6,20.38 -88.8,20.38zm-45.26 141.12c113.62,0 210.96,-31.28 300.51,-98.9 23.55,-17.77 46.81,-36.71 67.61,-57.53l497.91 -497.92c47.03,-47.03 75.52,-83.12 109.04,-138.59 23.68,-39.19 55.38,-133.03 55.38,-194.91 0,-87.04 -8.22,-152.98 -45.26,-226.32 -78.71,-155.89 -227.28,-260.93 -426.03,-260.93 -95.91,0 -198.66,41.81 -268.96,95.82 -66.68,51.23 -127.11,117.85 -187.01,177.76 -122.69,122.69 -243.43,243.42 -366.12,366.11 -31.62,31.62 -58.43,59.58 -85.52,95.56 -117.47,155.96 -126.46,352.29 -26.47,518.35 38.33,63.68 96.16,121.41 160.38,159.13 20.66,12.14 39.33,21.49 62.37,30.83 39.29,15.94 96.44,31.54 152.17,31.54z"/>
   <path fill="#363435" d="M1194.64 63.9c0,31.67 3.79,52.07 42.51,66.66 34.11,12.84 96.64,9.98 129.09,14.7 63.17,9.17 89.34,17.86 147.92,41.13 167.04,66.32 288.65,201.13 347.2,369.04 26.41,75.75 25.4,109.27 33.14,182.53 0.85,7.89 0.08,14.87 1.08,22.88 3.71,29.57 8.89,47.61 29.18,66.68 25.85,24.27 82.99,16.89 102.48,-21.55 12.97,-25.57 6,-59.55 6.14,-95.05 0.27,-69.19 -33.7,-190.61 -59.32,-254.87 -36.16,-90.72 -88.38,-168.49 -159.65,-234.42l-42.37 -37.52c-36.45,-29.35 -44.82,-39.36 -88.53,-68.57 -65.35,-43.68 -142.56,-74.71 -222.06,-94.79 -62.11,-15.66 -127.54,-20.75 -202.9,-20.75 -42.13,0 -63.91,36.98 -63.91,63.9z"/>
   <path fill="#363435" d="M915.06 1014.47c0,-68.08 99.48,-130.71 165.81,-64.63 95.03,94.69 -44.82,232.94 -135.94,135.94 -14.41,-15.33 -29.87,-42.44 -29.87,-71.31zm98.53 242.3c38.7,0 67.73,-7.43 97.41,-19.74 145.08,-60.19 190.08,-264.89 72.33,-381.66 -67.62,-67.07 -168.87,-95.51 -259.42,-53.06 -53.66,25.15 -100.32,59.56 -123.76,115.88 -13.74,33 -19.68,52.94 -23.24,96.75 -2.23,27.51 10,72.15 20.58,98.46 34.45,85.7 122.7,143.37 216.1,143.37z"/>
   <path fill="#363435" d="M1189.32 391.41c0,91.2 88.33,71.67 147.55,86.76 30.18,7.68 53.37,18.13 76.97,32.2 15.08,8.99 35.39,22.56 47.72,34.82 6.53,6.49 10.44,7.84 15.95,13.34l47.45 61.71c62.04,103.83 20.47,164.52 69.64,209.95 28.95,26.74 72.96,16.86 91.95,-5.46 53.66,-63.06 -13.85,-224.75 -41.77,-271.05 -7.87,-13.07 -14.67,-25.25 -23.7,-37.54 -8.46,-11.52 -17.57,-23.55 -27.69,-33.55 -10.9,-10.8 -19.75,-19.74 -30.59,-30.65 -7.09,-7.13 -10.4,-8.46 -17.33,-14.63 -57.78,-51.36 -102.36,-76.81 -182.54,-97.04 -30.07,-7.58 -74.72,-15.08 -109.9,-10.29 -32.67,4.44 -63.71,24.7 -63.71,61.43z"/>
  </g>
 </g>
</svg>
