<?xml version="1.0" encoding="UTF-8"?>
<!DOCTYPE svg PUBLIC "-//W3C//DTD SVG 1.1//EN" "http://www.w3.org/Graphics/SVG/1.1/DTD/svg11.dtd">
<!-- Creator: CorelDRAW 2018 (64 Bit Versão de avaliação) -->
<svg xmlns="http://www.w3.org/2000/svg" xml:space="preserve" width="50px" height="50px" version="1.1" shape-rendering="geometricPrecision" text-rendering="geometricPrecision" image-rendering="optimizeQuality" fill-rule="evenodd" clip-rule="evenodd"
viewBox="0 0 6.27 6.28"
 xmlns:xlink="http://www.w3.org/1999/xlink">
 <g id="Camada_x0020_1">
  <metadata id="CorelCorpID_0Corel-Layer"/>
  <path fill="#363234" d="M2.69 0.4c0.63,-0.04 1.32,0.22 1.77,0.64 0.35,0.34 0.74,0.93 0.77,1.66 0.02,0.62 -0.18,1.23 -0.58,1.69 -0.08,0.1 -0.09,0.09 -0.14,0.15 -0.03,0.03 -0.05,0.05 -0.08,0.08 -0.06,0.05 -0.1,0.09 -0.17,0.13 -0.11,0.08 -0.24,0.16 -0.36,0.23 -0.22,0.13 -0.67,0.24 -0.96,0.25 -0.57,0.01 -0.99,-0.09 -1.44,-0.38 -0.27,-0.18 -0.43,-0.34 -0.63,-0.58 -0.08,-0.11 -0.16,-0.24 -0.22,-0.38 -0.13,-0.27 -0.24,-0.61 -0.26,-0.95 -0.04,-0.76 0.31,-1.51 0.89,-1.99 0.02,-0.02 0.05,-0.04 0.08,-0.07 0.11,-0.08 0.23,-0.15 0.37,-0.22 0.28,-0.14 0.61,-0.23 0.96,-0.26zm2.27 4.24c0.03,-0.04 0.07,-0.09 0.1,-0.13 0.1,-0.13 0.17,-0.23 0.25,-0.39 0.1,-0.21 0.17,-0.38 0.24,-0.63 0.21,-0.87 -0.02,-1.82 -0.59,-2.49 -0.08,-0.09 -0.23,-0.25 -0.32,-0.33 -0.26,-0.21 -0.48,-0.35 -0.82,-0.49 -0.89,-0.36 -1.97,-0.16 -2.71,0.39 -0.08,0.07 -0.16,0.13 -0.23,0.2 -0.21,0.19 -0.42,0.48 -0.56,0.74 -0.23,0.44 -0.34,0.84 -0.32,1.41 0.03,0.67 0.22,1.12 0.57,1.6 0.04,0.06 0.06,0.07 0.09,0.12 0.14,0.16 0.4,0.39 0.57,0.51 0.8,0.55 1.84,0.63 2.74,0.24 0.23,-0.1 0.35,-0.2 0.53,-0.33 0.13,-0.09 0.14,-0.11 0.28,0.01 0.04,0.03 0.08,0.06 0.11,0.1l0.11 0.11c0.19,0.2 0.45,0.45 0.65,0.65l0.16 0.16c0.02,0.02 0.04,0.04 0.06,0.05 0.06,0.07 0.14,0.18 0.29,0.12 0.1,-0.05 0.15,-0.2 0.08,-0.29 -0.02,-0.03 -0.02,-0.03 -0.05,-0.06 -0.02,-0.02 -0.03,-0.03 -0.05,-0.05 -0.04,-0.04 -0.07,-0.07 -0.11,-0.11l-0.16 -0.16c-0.03,-0.02 -0.03,-0.04 -0.06,-0.06 -0.07,-0.07 -0.14,-0.14 -0.22,-0.21l-0.43 -0.44c-0.06,-0.05 -0.15,-0.15 -0.2,-0.24z"/>
 </g>
</svg>
