<?xml version="1.0" encoding="UTF-8"?>
<!DOCTYPE svg PUBLIC "-//W3C//DTD SVG 1.1//EN" "http://www.w3.org/Graphics/SVG/1.1/DTD/svg11.dtd">
<!-- Creator: CorelDRAW 2018 (64 Bit Versão de avaliação) -->
<svg xmlns="http://www.w3.org/2000/svg" xml:space="preserve" width="50px" height="51px" version="1.1" shape-rendering="geometricPrecision" text-rendering="geometricPrecision" image-rendering="optimizeQuality" fill-rule="evenodd" clip-rule="evenodd"
viewBox="0 0 6.14 6.29"
 xmlns:xlink="http://www.w3.org/1999/xlink">
 <g id="Camada_x0020_1">
  <metadata id="CorelCorpID_0Corel-Layer"/>
  <g id="_1617647483632">
   <path fill="#373435" d="M0.43 4.02c0.1,-0.02 0.31,-0.21 0.44,-0.07 0.04,0.05 0.62,1.23 0.71,1.4 0.08,0.18 0.17,0.31 -0.05,0.42 -0.05,0.02 -0.14,0.08 -0.2,0.09 -0.01,-0.07 -0.71,-1.43 -0.79,-1.6 -0.03,-0.06 -0.1,-0.17 -0.11,-0.24zm5.71 -0.48l0 0.08c-0.01,0.11 -0.05,0.22 -0.14,0.34 -0.07,0.09 -0.13,0.17 -0.2,0.27 -0.17,0.22 -0.65,0.91 -0.86,1.07 -0.18,0.13 -0.46,0.27 -0.69,0.27l-2.21 0c0,0.24 -0.12,0.39 -0.26,0.48 -0.05,0.03 -0.46,0.24 -0.5,0.24 -0.16,0 -0.17,-0.07 -0.25,-0.24l-0.89 -1.77c-0.06,-0.12 -0.13,-0.23 -0.14,-0.32l0 -0.04c0.01,-0.06 0.04,-0.11 0.13,-0.15 0.19,-0.09 0.42,-0.24 0.61,-0.24 0.11,0 0.14,0.02 0.22,0.05 0.06,0.02 0.09,-0.05 0.14,-0.09l0.27 -0.23c0.2,-0.16 0.47,-0.28 0.73,-0.28 0.33,0 0.48,0.03 0.76,0.2 0.05,0.03 0.08,0.05 0.12,0.08 0.2,0.17 0.17,0.15 0.45,0.15l0.81 0c0.11,0.02 0.22,0.07 0.28,0.13 0.04,0.04 0.07,0.07 0.1,0.11 0.03,0.05 0.03,0.08 0.06,0.13l0.35 -0.37c0.17,-0.21 0.31,-0.36 0.61,-0.36 0.22,0 0.48,0.21 0.5,0.49zm-4.23 1.67l-0.67 -1.34c0.04,-0.05 0.34,-0.31 0.39,-0.35 0.28,-0.21 0.65,-0.24 0.98,-0.07 0.39,0.22 0.2,0.32 0.78,0.32 0.11,0 0.75,-0.01 0.82,0.01 0.16,0.04 0.17,0.25 0.04,0.33 -0.12,0.06 -0.96,-0.01 -1.07,0.03 -0.18,0.06 -0.15,0.35 0.06,0.35l1.08 0c0.26,0 0.43,-0.26 0.59,-0.42 0.03,-0.03 0.04,-0.04 0.06,-0.06l0.44 -0.48c0.05,-0.04 0.08,-0.09 0.14,-0.11 0.13,-0.03 0.27,0.07 0.21,0.24 -0.01,0.03 -0.08,0.12 -0.1,0.15l-0.66 0.88c-0.31,0.41 -0.46,0.52 -1.03,0.52 -0.69,0 -1.38,0 -2.06,0z"/>
   <path fill="#373435" d="M2.92 2.38c0.33,-0.02 0.61,0.05 0.8,0.34 0.11,0.17 0.11,0.26 0.13,0.45 0.03,0.19 0.27,0.18 0.33,0.05 0.05,-0.09 -0.03,-0.4 -0.07,-0.49 -0.06,-0.17 -0.16,-0.31 -0.3,-0.42 -0.08,-0.07 -0.16,-0.12 -0.25,-0.17 -0.15,-0.07 -0.28,-0.1 -0.47,-0.1 -0.18,-0.01 -0.36,-0.01 -0.52,0.05 -0.13,0.05 -0.26,0.12 -0.36,0.21 -0.1,0.09 -0.19,0.18 -0.26,0.31 -0.07,0.13 -0.13,0.28 -0.13,0.45 -0.01,0.03 -0.01,0.11 0,0.14 0.03,0.1 0.18,0.15 0.28,0.08 0.07,-0.06 0.05,-0.26 0.12,-0.45 0.03,-0.06 0.07,-0.13 0.11,-0.17l0.07 -0.08c0.02,-0.03 0.05,-0.04 0.08,-0.06 0.12,-0.09 0.26,-0.13 0.44,-0.14zm-0.42 -1.5c-0.02,-0.26 0.17,-0.5 0.44,-0.53 0.29,-0.04 0.52,0.18 0.54,0.44 0.02,0.28 -0.19,0.51 -0.44,0.53 -0.29,0.03 -0.51,-0.19 -0.54,-0.44zm0.39 -0.87c-0.22,0.02 -0.41,0.13 -0.54,0.29 -0.14,0.18 -0.21,0.34 -0.18,0.64 0.04,0.42 0.45,0.78 0.93,0.72 0.32,-0.04 0.59,-0.27 0.69,-0.55 0.09,-0.29 0.02,-0.65 -0.21,-0.87 -0.01,-0.01 -0.03,-0.03 -0.05,-0.05 -0.16,-0.13 -0.36,-0.22 -0.64,-0.18z"/>
  </g>
 </g>
</svg>
