<?xml version="1.0" encoding="UTF-8"?>
<!DOCTYPE svg PUBLIC "-//W3C//DTD SVG 1.1//EN" "http://www.w3.org/Graphics/SVG/1.1/DTD/svg11.dtd">
<!-- Creator: CorelDRAW 2018 (64 Bit Versão de avaliação) -->
<svg xmlns="http://www.w3.org/2000/svg" xml:space="preserve" width="50px" height="50px" version="1.1" shape-rendering="geometricPrecision" text-rendering="geometricPrecision" image-rendering="optimizeQuality" fill-rule="evenodd" clip-rule="evenodd"
viewBox="0 0 12.42 12.42"
 xmlns:xlink="http://www.w3.org/1999/xlink">
 <g id="Camada_x0020_1">
  <metadata id="CorelCorpID_0Corel-Layer"/>
  <path fill="#363435" d="M4.36 8.97l7.15 0c0.01,0.41 0,0.82 0,1.22 0,0.37 0.05,0.8 -0.15,1.05 -0.23,0.29 -0.49,0.27 -0.95,0.27l-3.63 0c-0.8,0 -1.62,0.02 -2.42,0l0 -2.54zm-0.91 2.54c-0.42,0.01 -0.85,0 -1.27,0 -0.42,0 -0.82,0.04 -1.06,-0.2 -0.25,-0.26 -0.21,-0.65 -0.21,-1.07 0,-0.42 -0.01,-0.85 0,-1.27l2.55 0 -0.01 2.54zm0.91 -7.15l7.15 0 0 3.7 -7.15 0 0 -3.7zm-3.45 0l2.55 0 0 3.7 -2.55 0 0 -3.7zm3.45 -3.45c2.01,-0.02 4.06,0 6.08,0 0.42,0 0.73,0 0.93,0.28 0.19,0.27 0.14,0.68 0.14,1.06 0,0.19 0.01,1.1 0,1.21l-7.15 0 0 -2.55zm-3.44 0.67c-0.02,-0.18 0.12,-0.39 0.21,-0.47 0.1,-0.1 0.27,-0.19 0.46,-0.19 0.06,-0.03 1.8,-0.04 1.87,-0.01 0.01,0.13 0,2.03 0,2.4 0,0.11 0.02,0.13 -0.02,0.15l-2.53 0c-0.01,-0.08 -0.01,-1.54 0,-1.78 0,-0.1 0.01,-0.08 0.01,-0.09 0,-0.01 0,-0.01 0,-0.01zm-0.91 9.34c0.05,0.82 0.74,1.49 1.6,1.5 1.03,0 2.07,0 3.1,0 1.55,0 3.1,0 4.65,0 0.4,0 1.19,0.01 1.55,-0.01 0.82,-0.04 1.5,-0.74 1.51,-1.6 0,-1.03 0,-2.07 0,-3.1l0 -4.65c0,-0.39 0.01,-1.22 -0.01,-1.55 -0.04,-0.83 -0.75,-1.5 -1.61,-1.5l-7.75 0c-0.37,0 -1.24,-0.02 -1.55,0 -0.82,0.05 -1.49,0.75 -1.49,1.61 -0.01,2.57 0,5.17 0,7.75 0,0.36 -0.02,1.25 0,1.55z"/>
 </g>
</svg>
