<?xml version="1.0" encoding="UTF-8"?>
<!DOCTYPE svg PUBLIC "-//W3C//DTD SVG 1.1//EN" "http://www.w3.org/Graphics/SVG/1.1/DTD/svg11.dtd">
<!-- Creator: CorelDRAW 2018 (64 Bit Versão de avaliação) -->
<svg xmlns="http://www.w3.org/2000/svg" xml:space="preserve" width="50px" height="59px" version="1.1" shape-rendering="geometricPrecision" text-rendering="geometricPrecision" image-rendering="optimizeQuality" fill-rule="evenodd" clip-rule="evenodd"
viewBox="0 0 7.28 8.59"
 xmlns:xlink="http://www.w3.org/1999/xlink">
 <g id="Camada_x0020_1">
  <metadata id="CorelCorpID_0Corel-Layer"/>
  <g id="_1619509789712">
   <path fill="#373435" d="M0.61 7.62l0 -4.17c0,-0.11 0.03,-0.2 0.09,-0.26l1.53 -1.39c0.03,-0.03 0.05,-0.05 0.09,-0.09 0.04,-0.04 0.05,-0.04 0.1,-0.08l0.76 -0.7c0.17,-0.15 0.38,-0.41 0.61,-0.27 0.08,0.05 0.59,0.55 0.68,0.61 0.12,0.1 0.25,0.24 0.38,0.35l1.24 1.13c0.04,0.04 0.06,0.04 0.1,0.08 0.03,0.03 0.05,0.06 0.09,0.09l0.29 0.26c0.06,0.06 0.1,0.15 0.1,0.27l0 4.17c0,0.23 -0.13,0.36 -0.36,0.36l-5.34 0c-0.24,0 -0.36,-0.13 -0.36,-0.36zm-0.61 -4.26l0 4.39c0,0.2 0.13,0.44 0.26,0.58 0.02,0.02 0.09,0.07 0.12,0.09 0.11,0.09 0.3,0.17 0.45,0.17l5.61 0c0.41,0 0.84,-0.43 0.84,-0.84l0 -4.39c0,-0.14 -0.04,-0.24 -0.08,-0.34 -0.12,-0.27 -0.34,-0.39 -0.52,-0.57l-0.34 -0.31c-0.14,-0.11 -0.63,-0.59 -0.79,-0.73l-1.14 -1.02c-0.46,-0.44 -0.9,-0.54 -1.42,-0.12l-1.25 1.13c-0.05,0.04 -0.07,0.07 -0.11,0.12 -0.05,0.04 -0.07,0.05 -0.12,0.09 -0.28,0.25 -0.76,0.72 -1.02,0.93 -0.04,0.03 -0.07,0.06 -0.11,0.1 -0.11,0.11 -0.22,0.2 -0.3,0.37 -0.04,0.1 -0.08,0.21 -0.08,0.35z"/>
   <path fill="#373435" d="M2.12 7.03c0,0.21 0.13,0.35 0.27,0.35l2.5 0c0.14,0 0.26,-0.14 0.26,-0.35 0,-0.11 -0.14,-0.26 -0.26,-0.26l-2.5 0c-0.12,0 -0.27,0.15 -0.27,0.26z"/>
  </g>
 </g>
</svg>
