<?xml version="1.0" encoding="UTF-8"?>
<!DOCTYPE svg PUBLIC "-//W3C//DTD SVG 1.1//EN" "http://www.w3.org/Graphics/SVG/1.1/DTD/svg11.dtd">
<!-- Creator: CorelDRAW 2018 (64 Bit Versão de avaliação) -->
<svg xmlns="http://www.w3.org/2000/svg" xml:space="preserve" width="50px" height="53px" version="1.1" shape-rendering="geometricPrecision" text-rendering="geometricPrecision" image-rendering="optimizeQuality" fill-rule="evenodd" clip-rule="evenodd"
viewBox="0 0 626.43 659.83"
 xmlns:xlink="http://www.w3.org/1999/xlink">
 <g id="Camada_x0020_1">
  <metadata id="CorelCorpID_0Corel-Layer"/>
  <path fill="#363435" d="M539.1 145.3c-1.89,25.72 -5.45,52.67 -8.16,78.37 -2.8,26.51 -4.64,53.29 -7.12,79.89 -7.17,76.77 -14.21,164.58 -17.76,242.12 -0.6,13.24 -1.54,26.69 -4.63,39.07 -2.82,11.34 -8.14,22.26 -16.59,26.39 -14.17,6.9 -143.76,3.22 -169.67,3.18 -23.53,-0.02 -159.19,2.34 -171.17,-1.69 -20.52,-6.9 -21.31,-39.4 -23.02,-63.67 -1.89,-26.83 -3.81,-53.86 -5.75,-80.69 -3.87,-53.44 -8.87,-106.79 -13.06,-160.17 -2.13,-27.16 -3.53,-54.3 -5.4,-81.48 -1.94,-28 -5.78,-52.43 -4.47,-81.32l446.8 0zm-291.24 -145.3l130.7 0c13.19,0 23.99,10.8 23.99,23.99l0 0c0,13.19 -10.8,23.99 -23.99,23.99l-130.7 0c-13.19,0 -23.98,-10.8 -23.98,-23.99l0 0c0,-13.19 10.79,-23.99 23.98,-23.99zm304.19 97.58c-49.26,1.67 -98.65,0.89 -147.95,0.89l-296.92 -0.01c-24.2,0 -49.95,-1.11 -73.86,-0.44 -10.61,0.3 -22.43,1.84 -28.63,8.06 -6.58,6.6 -5.67,22.41 -0.8,29.47 5.64,8.18 16.42,7.83 28.7,8.41 12.41,0.57 12.42,11.55 13.34,23.16l26.53 345.96c1.72,22.68 2.91,46.42 6.06,68.61 3.23,22.74 9.56,39.32 21.02,53.54 9.9,12.27 25.83,22.62 49.83,23.87 23.77,1.24 50.54,0.46 74.62,0.51 73.87,0.17 147.91,-1.41 221.65,0.08 22.91,0.46 46.47,0.46 63.72,-10.49 16.09,-10.22 26.29,-23.55 32.46,-42.12 13.01,-39.15 11.34,-91.15 15.15,-133.22 2.09,-23.11 3.64,-46.3 5.22,-69.47 4.61,-67.65 9.7,-139.57 15.89,-207.09 1.01,-11.06 1.8,-22.75 3.57,-33.62 5.52,-33.88 31.02,-7.3 42.62,-31.84 4.6,-9.72 1.38,-23.42 -5.35,-28.04 -12.23,-8.39 -49.92,-6.8 -66.87,-6.22z"/>
 </g>
</svg>
