<?xml version="1.0" encoding="UTF-8"?>
<!DOCTYPE svg PUBLIC "-//W3C//DTD SVG 1.1//EN" "http://www.w3.org/Graphics/SVG/1.1/DTD/svg11.dtd">
<!-- Creator: CorelDRAW 2018 (64 Bit Versão de avaliação) -->
<svg xmlns="http://www.w3.org/2000/svg" xml:space="preserve" width="176389px" height="95250px" version="1.1" shape-rendering="geometricPrecision" text-rendering="geometricPrecision" image-rendering="optimizeQuality" fill-rule="evenodd" clip-rule="evenodd"
viewBox="0 0 24933.63 13605.94"
 xmlns:xlink="http://www.w3.org/1999/xlink">
 <g id="Camada_x0020_1">
  <metadata id="CorelCorpID_0Corel-Layer"/>
  <path fill="#363435" d="M11738.05 3370.05l-9136.67 9229.63c-448.87,453.32 -859.04,811.82 -1070.52,900.71 -914.77,384.8 -1809.37,-507.76 -1449.01,-1450.87 84.44,-221.29 702.19,-932.74 1547.16,-1769.74l9926.27 -9833.32c1187.54,-1195.87 2109.73,312.95 2807.67,1009.59l9931.08 9861.65c327.95,325.72 617.57,726.45 638.12,1130.88 43.34,852.56 -903.85,1495.49 -1708.26,963.29 -187.4,-124.07 -614.42,-573.49 -769.05,-738.3l-9255.74 -9242.23c-783.48,-804.96 -805.52,-723.3 -1461.05,-61.29z"/>
 </g>
</svg>
