<?xml version="1.0" encoding="UTF-8"?>
<!DOCTYPE svg PUBLIC "-//W3C//DTD SVG 1.1//EN" "http://www.w3.org/Graphics/SVG/1.1/DTD/svg11.dtd">
<!-- Creator: CorelDRAW 2018 (64 Bit Versão de avaliação) -->
<svg xmlns="http://www.w3.org/2000/svg" xml:space="preserve" width="50px" height="46px" version="1.1" shape-rendering="geometricPrecision" text-rendering="geometricPrecision" image-rendering="optimizeQuality" fill-rule="evenodd" clip-rule="evenodd"
viewBox="0 0 12.42 11.52"
 xmlns:xlink="http://www.w3.org/1999/xlink">
 <g id="Camada_x0020_1">
  <metadata id="CorelCorpID_0Corel-Layer"/>
  <path fill="black" d="M0 7.71l0 1.61c0,1.13 1.04,2.2 2.17,2.2l8.08 0c1.13,0 2.17,-1.07 2.17,-2.2l0 -1.61c0,-0.22 -0.14,-0.4 -0.32,-0.44 -1.01,-0.28 -0.45,1.7 -0.66,2.39 -0.06,0.2 -0.16,0.37 -0.29,0.5 -0.32,0.32 -0.61,0.46 -1.13,0.46l-7.62 0c-0.66,0 -1.22,-0.34 -1.41,-0.94 -0.23,-0.73 0.35,-2.64 -0.64,-2.42 -0.19,0.04 -0.35,0.21 -0.35,0.45zm3.22 -4.75c0,0.34 0.19,0.48 0.51,0.48 0.21,0 0.86,-0.73 1.03,-0.91l1 -0.98 0 6.58c0,0.2 0,0.27 0.09,0.39 0.26,0.31 0.82,0.24 0.81,-0.36l0 -6.61c0.16,0.11 0.52,0.51 0.69,0.67 0.12,0.12 0.22,0.22 0.34,0.34l0.68 0.7c0.38,0.39 0.73,0.23 0.84,-0.06 0.17,-0.43 -0.38,-0.8 -0.79,-1.2l-1.38 -1.39c-0.32,-0.32 -0.5,-0.61 -0.89,-0.61 -0.2,0 -0.64,0.52 -0.79,0.67l-1.84 1.84c-0.13,0.12 -0.3,0.21 -0.3,0.45z"/>
 </g>
</svg>
