<?xml version="1.0" encoding="UTF-8"?>
<!DOCTYPE svg PUBLIC "-//W3C//DTD SVG 1.1//EN" "http://www.w3.org/Graphics/SVG/1.1/DTD/svg11.dtd">
<!-- Creator: CorelDRAW 2018 (64 Bit Versão de avaliação) -->
<svg xmlns="http://www.w3.org/2000/svg" xml:space="preserve" width="50px" height="67px" version="1.1" shape-rendering="geometricPrecision" text-rendering="geometricPrecision" image-rendering="optimizeQuality" fill-rule="evenodd" clip-rule="evenodd"
viewBox="0 0 8.74 11.64"
 xmlns:xlink="http://www.w3.org/1999/xlink">
 <g id="Camada_x0020_1">
  <metadata id="CorelCorpID_0Corel-Layer"/>
  <path fill="#363435" d="M7.61 10.22c0.38,0.67 0.4,1.36 0.73,1.41 0.63,0.06 0.35,-0.91 0.21,-1.27 -0.17,-0.46 -0.4,-0.83 -0.66,-1.12 -0.9,-1.03 -2.32,-1.16 -3.6,-1.14 -1.3,0.02 -2.58,0.18 -3.47,1.2 -0.32,0.35 -0.57,0.79 -0.72,1.29 -0.24,0.77 0,1.04 0.23,1.05 0.1,0 0.2,-0.05 0.25,-0.12 0.21,-0.3 0.25,-0.79 0.48,-1.27 0.58,-1.18 2.06,-1.39 3.23,-1.41 1.2,-0.01 2.65,0.19 3.32,1.38zm-3.24 -10.22c1.68,0 3.04,1.36 3.04,3.04 0,1.68 -1.36,3.04 -3.04,3.04 -1.68,0 -3.04,-1.36 -3.04,-3.04 0,-1.68 1.36,-3.04 3.04,-3.04zm0 0.81c1.23,0 2.23,1 2.23,2.23 0,1.23 -1,2.23 -2.23,2.23 -1.24,0 -2.24,-1 -2.24,-2.23 0,-1.23 1,-2.23 2.24,-2.23z"/>
 </g>
</svg>
